/* XPM */
static char *_1_down011671528865[] = {
/* columns rows colors chars-per-pixel */
"64 64 9 1 ",
"  c None",
". c black",
"X c #604020",
"o c #284858",
"O c #F88838",
"+ c #D8A830",
"@ c #F8C038",
"# c #F0D070",
"$ c #E8E8F8",
/* pixels */
"                                                                ",
"                                                                ",
"                                                                ",
"                                                                ",
"                                                                ",
"                                                                ",
"                                                                ",
"                                                                ",
"                                                                ",
"                                                                ",
"                                                                ",
"                                                                ",
"                                                                ",
"                                                                ",
"                                                                ",
"                                                                ",
"                           XXXXXXXXXX                           ",
"                           XXXXXXXXXX                           ",
"                         XX@@@@@@@@@@XX                         ",
"                         XX@@@@@@@@@@XX                         ",
"                       XXOO@@@@@@@@@@OOXX                       ",
"                       XXOO@@@@@@@@@@OOXX                       ",
"                       XX@@@@@@@@@@@@@@XX                       ",
"                       XX@@@@@@@@@@@@@@XX                       ",
"                       XX@@OO@@@@@@OO@@XX                       ",
"                       XX@@OO@@@@@@OO@@XX                       ",
"                     XXOO$$@@@@@@@@@@$$OOXX                     ",
"                     XXOO$$@@@@@@@@@@$$OOXX                     ",
"                     XXOOoo@@@@@@@@@@ooOOXX                     ",
"                     XXOOoo@@@@@@@@@@ooOOXX                     ",
"                     ..OOoo@@@@@@@@@@ooOO..                     ",
"                     ..OOoo@@@@@@@@@@ooOO..                     ",
"                       ..OOOO@@@@@@OOOO..                       ",
"                       ..OOOO@@@@@@OOOO..                       ",
"                       XX..OOOOOOOOOO..XX                       ",
"                       XX..OOOOOOOOOO..XX                       ",
"                       ..OO..........OO..                       ",
"                       ..OO..........OO..                       ",
"                       ..OOXX++##++XXOO..                       ",
"                       ..OOXX++##++XXOO..                       ",
"                     XXOO....######....OOXX                     ",
"                     XXOO....######....OOXX                     ",
"                     XXOOOO++######++OOOOXX                     ",
"                     XXOOOO++######++OOOOXX                     ",
"                       ......XXXXXX..OOOOXX                     ",
"                       ......XXXXXX..OOOOXX                     ",
"                                     ....                       ",
"                                     ....                       ",
"                                                                ",
"                                                                ",
"                                                                ",
"                                                                ",
"                                                                ",
"                                                                ",
"                                                                ",
"                                                                ",
"                                                                ",
"                                                                ",
"                                                                ",
"                                                                ",
"                                                                ",
"                                                                ",
"                                                                ",
"                                                                "
};
