/* XPM */
static char *_3_down041671529271[] = {
/* columns rows colors chars-per-pixel */
"64 64 12 1 ",
"  c None",
". c black",
"X c #603000",
"o c #284858",
"O c #904020",
"+ c #C85828",
"@ c #F87838",
"# c #D8A830",
"$ c #F0D070",
"% c #408080",
"& c #A0A0A0",
"* c #D8D8F8",
/* pixels */
"                                                                ",
"                                                                ",
"                                                                ",
"                                                                ",
"                                                                ",
"                                                                ",
"                                                                ",
"                                                                ",
"                        XX            XX                        ",
"                        XX            XX                        ",
"                      XX@@XX        XX@@XX                      ",
"                      XX@@XX        XX@@XX                      ",
"                      ..@@XX        XX@@..                      ",
"                      ..@@XX        XX@@..                      ",
"                      ..@@XXOOOOOOOOXX@@..                      ",
"                      ..@@XXOOOOOOOOXX@@..                      ",
"        XXXXXX  XXXX  ..@@@@XX@@@@XX@@@@..  XXXX  XXXXXX        ",
"        XXXXXX  XXXX  ..@@@@XX@@@@XX@@@@..  XXXX  XXXXXX        ",
"      XX++++++XX++XX  ..++@@OO@@@@OO@@++..  XX++XX++++++XX      ",
"      XX++++++XX++XX  ..++@@OO@@@@OO@@++..  XX++XX++++++XX      ",
"    XX++ooooooOO++XX  XX++@@++@@@@++@@++XX  XX++OOoooooo++XX    ",
"    XX++ooooooOO++XX  XX++@@++@@@@++@@++XX  XX++OOoooooo++XX    ",
"    XXoo%%%%%%%%OOXX  XXOO@@@@@@@@@@@@OOXX  XXOO%%%%%%%%ooXX    ",
"    XXoo%%%%%%%%OOXX  XXOO@@@@@@@@@@@@OOXX  XXOO%%%%%%%%ooXX    ",
"        oo%%%%%%OOOO..OO@@@@@@@@@@@@@@@@OO..OOOO%%%%%%oo        ",
"        oo%%%%%%OOOO..OO@@@@@@@@@@@@@@@@OO..OOOO%%%%%%oo        ",
"          oo%%ooooOO..++**@@@@@@@@@@@@**++..OOoooo%%oo          ",
"          oo%%ooooOO..++**@@@@@@@@@@@@**++..OOoooo%%oo          ",
"          ooooooooOO..@@**%%@@@@@@@@%%**@@..OOoooooooo          ",
"          ooooooooOO..@@**%%@@@@@@@@%%**@@..OOoooooooo          ",
"          oooooooooo..@@@@oo++@@@@++oo@@@@..oooooooooo          ",
"          oooooooooo..@@@@oo++@@@@++oo@@@@..oooooooooo          ",
"              ooooooOOXX@@@@@@@@@@@@@@@@XXOOoooooo              ",
"              ooooooOOXX@@@@@@@@@@@@@@@@XXOOoooooo              ",
"                  oooo..++@@@@@@@@@@@@++..oooo                  ",
"                  oooo..++@@@@@@@@@@@@++..oooo                  ",
"                    XX++..@@++@@@@++@@..++XX                    ",
"                    XX++..@@++@@@@++@@..++XX                    ",
"                    XX@@++XX&&++++&&XX++@@XX                    ",
"                    XX@@++XX&&++++&&XX++@@XX                    ",
"                  ..@@++XX##XX....XX##XX++@@..                  ",
"                  ..@@++XX##XX....XX##XX++@@..                  ",
"                  ..++XX##$$########$$##XX++....                ",
"                  ..++XX##$$########$$##XX++....                ",
"                ..++XXOO##$$$$$$$$$$$$##OOXX++..                ",
"                ..++XXOO##$$$$$$$$$$$$##OOXX++..                ",
"                ..++++++####$$$$$$$$####++++OO..                ",
"                ..++++++####$$$$$$$$####++++OO..                ",
"                ..OO++++..############..++++..                  ",
"                ..OO++++..############..++++..                  ",
"                  ..OOOOOO..########..OOOOOO..                  ",
"                  ..OOOOOO..########..OOOOOO..                  ",
"                  ..&&OO&&..XXXXXXXXXX......                    ",
"                  ..&&OO&&..XXXXXXXXXX......                    ",
"                    ......                                      ",
"                    ......                                      ",
"                                                                ",
"                                                                ",
"                                                                ",
"                                                                ",
"                                                                ",
"                                                                ",
"                                                                ",
"                                                                "
};
