/* XPM */
static char *_3_right041671529272[] = {
/* columns rows colors chars-per-pixel */
"64 64 15 1 ",
"  c None",
". c black",
"X c #603000",
"o c #604000",
"O c #284858",
"+ c #C01020",
"@ c #904020",
"# c #C85828",
"$ c #F87838",
"% c #F8B810",
"& c #D8A830",
"* c #F0D070",
"= c #408080",
"- c #A0A0A0",
"; c #D8D8F8",
/* pixels */
"                                                                ",
"                                                                ",
"                                                                ",
"                                                                ",
"                                                                ",
"                                                                ",
"                                                                ",
"                                                                ",
"                                                                ",
"                           XXXXXX                               ",
"                           XXXXXX                               ",
"                           XX####XXXX                           ",
"                           XX####XXXX                           ",
"                             XXXX####XXXXXX                     ",
"                             XXXX####XXXXXX                     ",
"                       XX....XXXXXX####$$$$XXXX                 ",
"                       XX....XXXXXX####$$$$XXXX                 ",
"         ++        XXXX@@..$$$$$$##XXXX$$$$$$$$XX               ",
"         ++        XXXX@@..$$$$$$##XXXX$$$$$$$$XX               ",
"           ++    XX@@@@@@@@XXXX##$$$$$$$$$$$$$$$$XXXXXXXX       ",
"           ++    XX@@@@@@@@XXXX##$$$$$$$$$$$$$$$$XXXXXXXX       ",
"         ++++  XX@@@@@@....XX  XXXX@@##$$$$$$$$$$##$$$$$$XX     ",
"         ++++  XX@@@@@@....XX  XXXX@@##$$$$$$$$$$##$$$$$$XX     ",
"       ++++++XX@@......$$$$..  XX@@######--##$$$$$$$$$$$$XX     ",
"       ++++++XX@@......$$$$..  XX@@######--##$$$$$$$$$$$$XX     ",
"       ++%%++....$$$$$$##XXXX  ..####$$##;;;;OO@@$$$$##$$..     ",
"       ++%%++....$$$$$$##XXXX  ..####$$##;;;;OO@@$$$$##$$..     ",
"     ++%%%%..$$$$##==OO##..@@XX..####$$$$##;;==$$$$$$$$##..     ",
"     ++%%%%..$$$$##==OO##..@@XX..####$$$$##;;==$$$$$$$$##..     ",
"     ++%%..$$##======OO##..@@..@@######$$$$$$$$$$$$##--..       ",
"     ++%%..$$##======OO##..@@..@@######$$$$$$$$$$$$##--..       ",
"     ++++..$$======OOOOOO##..XXXX######@@$$$$$$##XX....         ",
"     ++++..$$======OOOOOO##..XXXX######@@$$$$$$##XX....         ",
"       ..$$##======OOOOOOOO##############@@XX....               ",
"       ..$$##======OOOOOOOO##############@@XX....               ",
"       ..$$==OOOO==OOOOOOOOOOOO########&&oo                     ",
"       ..$$==OOOO==OOOOOOOOOOOO########&&oo                     ",
"       ..$$..    OOOOOO    OO####@@$$@@&&oo                     ",
"       ..$$..    OOOOOO    OO####@@$$@@&&oo                     ",
"       ....@@      OO    XX####$$XX##$$XX**oo                   ",
"       ....@@      OO    XX####$$XX##$$XX**oo                   ",
"         XX##XXXX      XX@@##$$$$$$XX$$XX**oo                   ",
"         XX##XXXX      XX@@##$$$$$$XX$$XX**oo                   ",
"         XX######XXXXXX######$$$$$$$$XX@@**oo                   ",
"         XX######XXXXXX######$$$$$$$$XX@@**oo                   ",
"           XX############@@####$$$$$$##**&&oo                   ",
"           XX############@@####$$$$$$##**&&oo                   ",
"             XX@@########@@XX####$$$$@@&&oo                     ",
"             XX@@########@@XX####$$$$@@&&oo                     ",
"               XXXXXX@@####..@@####@@XXoo                       ",
"               XXXXXX@@####..@@####@@XXoo                       ",
"                     XXXXXXXX..####--..                         ",
"                     XXXXXXXX..####--..                         ",
"                               ......                           ",
"                               ......                           ",
"                                                                ",
"                                                                ",
"                                                                ",
"                                                                ",
"                                                                ",
"                                                                ",
"                                                                ",
"                                                                ",
"                                                                "
};
