/* XPM */
static char *_3_up031671529273[] = {
/* columns rows colors chars-per-pixel */
"64 64 8 1 ",
"  c None",
". c black",
"X c #603000",
"o c #C01020",
"O c #904020",
"+ c #C85828",
"@ c #F87838",
"# c #F8B810",
/* pixels */
"                                                                ",
"                                                                ",
"                                                                ",
"                                                                ",
"                                                                ",
"                                                                ",
"                                                                ",
"                                                                ",
"                            XXXXXXXX                            ",
"                            XXXXXXXX                            ",
"                        XXXX++++++++XXXX                        ",
"                        XXXX++++++++XXXX                        ",
"                      XXXX++++@@@@++++XXXX                      ",
"                      XXXX++++@@@@++++XXXX                      ",
"                    ..@@++XX@@@@@@@@XX++@@..                    ",
"                    ..@@++XX@@@@@@@@XX++@@..                    ",
"                  ..@@++..@@@@@@@@@@@@..++@@..                  ",
"                  ..@@++..@@@@@@@@@@@@..++@@..                  ",
"                  ....OO++@@@@@@@@@@@@++OO....                  ",
"                  ....OO++@@@@@@@@@@@@++OO....                  ",
"                    XX++++++@@@@@@@@++++++XX                    ",
"                    XX++++++@@@@@@@@++++++XX                    ",
"                    XX++++++++++++++++++++XX                    ",
"                    XX++++++++++++++++++++XX                    ",
"                      XX++++++++++++++++XX                      ",
"                      XX++++++++++++++++XX                      ",
"                      XX++++++oo##++++++XX                      ",
"                      XX++++++oo##++++++XX                      ",
"                  ....  XX++oooo++++++XX  ....                  ",
"                  ....  XX++oooo++++++XX  ....                  ",
"                ..@@..  XX++oo##oo++OOXX  ..@@..                ",
"                ..@@..  XX++oo##oo++OOXX  ..@@..                ",
"              XX++@@OO..XXoo##ooooooOOXX..OO@@++XX              ",
"              XX++@@OO..XXoo##ooooooOOXX..OO@@++XX              ",
"            XX@@@@++@@++..oo####ooooOO..++@@++@@@@XX            ",
"            XX@@@@++@@++..oo####ooooOO..++@@++@@@@XX            ",
"            XX@@@@++++++++XXoo####ooXX++++++++@@@@XX            ",
"            XX@@@@++++++++XXoo####ooXX++++++++@@@@XX            ",
"          XX@@@@@@++++++++++..##ooOO++++++++++@@@@@@XX          ",
"          XX@@@@@@++++++++++..##ooOO++++++++++@@@@@@XX          ",
"          XX@@@@++++++++++++..ooXX++++++++++++++@@@@XX          ",
"          XX@@@@++++++++++++..ooXX++++++++++++++@@@@XX          ",
"        ..@@@@@@++++++OOXX..@@@@..++++XXOO++++++@@@@@@..        ",
"        ..@@@@@@++++++OOXX..@@@@..++++XXOO++++++@@@@@@..        ",
"        ..@@++@@++++XXOO++..@@@@XX++++++OOXX++++@@++@@..        ",
"        ..@@++@@++++XXOO++..@@@@XX++++++OOXX++++@@++@@..        ",
"        ..@@OO........++..@@@@@@++XXOO++++........OO@@..        ",
"        ..@@OO........++..@@@@@@++XXOO++++........OO@@..        ",
"        ....      XXOOOO..++@@@@++++XX++++OOXX      ....        ",
"        ....      XXOOOO..++@@@@++++XX++++OOXX      ....        ",
"                    ..OO..++++++++++OOOOOOOOXX                  ",
"                    ..OO..++++++++++OOOOOOOOXX                  ",
"                      ..XX..++++++OOXXXXXX..                    ",
"                      ..XX..++++++OOXXXXXX..                    ",
"                            ........  ....                      ",
"                            ........  ....                      ",
"                                                                ",
"                                                                ",
"                                                                ",
"                                                                ",
"                                                                ",
"                                                                ",
"                                                                ",
"                                                                "
};
