/* XPM */
static char *_3_up021671529273[] = {
/* columns rows colors chars-per-pixel */
"64 64 8 1 ",
"  c None",
". c black",
"X c #603000",
"o c #C01020",
"O c #904020",
"+ c #C85828",
"@ c #F87838",
"# c #F8B810",
/* pixels */
"                                                                ",
"                                                                ",
"                                                                ",
"                                                                ",
"                                                                ",
"                                                                ",
"                                                                ",
"                                                                ",
"                            XXXXXXXX                            ",
"                            XXXXXXXX                            ",
"                        XXXX++++++++XXXX                        ",
"                        XXXX++++++++XXXX                        ",
"                      XXXX++++@@@@++++XXXX                      ",
"                      XXXX++++@@@@++++XXXX                      ",
"                    ..@@++XX@@@@@@@@XX++@@..                    ",
"                    ..@@++XX@@@@@@@@XX++@@..                    ",
"                  ..@@++..@@@@@@@@@@@@..++@@..                  ",
"                  ..@@++..@@@@@@@@@@@@..++@@..                  ",
"                  ....OO++@@@@@@@@@@@@++OO....                  ",
"                  ....OO++@@@@@@@@@@@@++OO....                  ",
"                    XX++++++@@@@@@@@++++++XX                    ",
"                    XX++++++@@@@@@@@++++++XX                    ",
"                    XX++++++++++++oo++++++XX                    ",
"                    XX++++++++++++oo++++++XX                    ",
"                ....  XX++++++##oooo++++XX  ....                ",
"                ....  XX++++++##oooo++++XX  ....                ",
"            XX..@@..  XX++++##oooo++++++XX  ..@@..XX            ",
"            XX..@@..  XX++++##oooo++++++XX  ..@@..XX            ",
"          XX@@++@@XX..  XXoo##oooo++++XX  ..XX@@++@@XX          ",
"          XX@@++@@XX..  XXoo##oooo++++XX  ..XX@@++@@XX          ",
"        XX@@@@@@++@@..  XXoo####ooooOOXX  ..@@++@@@@@@XX        ",
"        XX@@@@@@++@@..  XXoo####ooooOOXX  ..@@++@@@@@@XX        ",
"      XX@@@@@@++++++++XXOOoo######ooOOOOXX++++++++@@@@@@XX      ",
"      XX@@@@@@++++++++XXOOoo######ooOOOOXX++++++++@@@@@@XX      ",
"      XX@@@@@@++++++++++XXXXoo####..OOXX++++++++++@@@@@@XX      ",
"      XX@@@@@@++++++++++XXXXoo####..OOXX++++++++++@@@@@@XX      ",
"    ..@@@@@@++++++++++++++++XXoooo..XX++++++++++++++@@@@@@..    ",
"    ..@@@@@@++++++++++++++++XXoooo..XX++++++++++++++@@@@@@..    ",
"    ..@@++@@++++++++++++++++..@@..++++++++++++++++++@@++@@..    ",
"    ..@@++@@++++++++++++++++..@@..++++++++++++++++++@@++@@..    ",
"    ......XX++++++XXXX++++..@@@@..++++++++XXXX++++++XX......    ",
"    ......XX++++++XXXX++++..@@@@..++++++++XXXX++++++XX......    ",
"            ....XX  XXXXXX..@@@@XX++++XXXXXX  XX....            ",
"            ....XX  XXXXXX..@@@@XX++++XXXXXX  XX....            ",
"                    XX++..@@@@@@++XX++++++++XX                  ",
"                    XX++..@@@@@@++XX++++++++XX                  ",
"                  XX++++..++@@@@++XXOO++++OOXX                  ",
"                  XX++++..++@@@@++XXOO++++OOXX                  ",
"                  XXOO++..++++++++++OOOOOOOOXX                  ",
"                  XXOO++..++++++++++OOOOOOOOXX                  ",
"                  XXOOOO..++++++++++XXOOOO..                    ",
"                  XXOOOO..++++++++++XXOOOO..                    ",
"                    ..XXXX..++++++OOXX....                      ",
"                    ..XXXX..++++++OOXX....                      ",
"                      ....  ........                            ",
"                      ....  ........                            ",
"                                                                ",
"                                                                ",
"                                                                ",
"                                                                ",
"                                                                ",
"                                                                ",
"                                                                ",
"                                                                "
};
