/* XPM */
static char *result[] = {
/* columns rows colors chars-per-pixel */
"64 64 8 1 ",
"  c #585078",
". c #F80800",
"X c #987038",
"o c #F89800",
"O c #E0C078",
"+ c #303080",
"@ c #F8E0A8",
"# c None",
/* pixels */
"################################################################",
"################################################################",
"################################################################",
"################################################################",
"################################################################",
"################################################################",
"################################################################",
"################################################################",
"################################################################",
"################################################################",
"################################################################",
"################################################################",
"####################################..##########################",
"####################################..##########################",
"################################......##########################",
"################################......##########################",
"##############################..oooo..##########################",
"##############################..oooo..##########################",
"##################          ..........        ##################",
"##################          ..........        ##################",
"################++OOoo++OOOO........OOOO++ooOO++################",
"################++OOoo++OOOO........OOOO++ooOO++################",
"################++OOoo++OOOO....oooo..OO++ooOO++################",
"################++OOoo++OOOO....oooo..OO++ooOO++################",
"################++    ++  ....oooooo..  ++    ++################",
"################++    ++  ....oooooo..  ++    ++################",
"################XXOOoo++....oooooooooo..++ooOOXX################",
"################XXOOoo++....oooooooooo..++ooOOXX################",
"################++OOoo......ooOOOOoooo..++ooOO++################",
"################++OOoo......ooOOOOoooo..++ooOO++################",
"################++    ....ooOOOO@@OOoo....    ++################",
"################++    ....ooOOOO@@OOoo....    ++################",
"################XXOOoo....ooOO@@@@OOoo....ooOOXX################",
"################XXOOoo....ooOO@@@@OOoo....ooOOXX################",
"################++OOoo....ooOO@@@@OOoo....ooOO++################",
"################++OOoo....ooOO@@@@OOoo....ooOO++################",
"################++    ++..oooo@@OOoo....++    ++################",
"################++    ++..oooo@@OOoo....++    ++################",
"################XXOOoo++++....oooo....++++ooOOXX################",
"################XXOOoo++++....oooo....++++ooOOXX################",
"################++OOoo++++++........++++++ooOO++################",
"################++OOoo++++++........++++++ooOO++################",
"################++    ++++++++++++++++++++    ++################",
"################++    ++++++++++++++++++++    ++################",
"################XXOOOO++oooo++oooo++oooo++OOOOXX################",
"################XXOOOO++oooo++oooo++oooo++OOOOXX################",
"################++OOOO++OOOO++OOOO++OOOO++OOOO++################",
"################++OOOO++OOOO++OOOO++OOOO++OOOO++################",
"################++    ++    ++    ++    ++    ++################",
"################++    ++    ++    ++    ++    ++################",
"################++    ++    ++    ++    ++    ++################",
"################++    ++    ++    ++    ++    ++################",
"################################################################",
"################################################################",
"################################################################",
"################################################################",
"################################################################",
"################################################################",
"################################################################",
"################################################################",
"################################################################",
"################################################################",
"################################################################",
"################################################################"
};
