/* XPM */
static char *result[] = {
/* columns rows colors chars-per-pixel */
"64 64 8 1 ",
"  c #585078",
". c #F80800",
"X c #987038",
"o c #F89800",
"O c #E0C078",
"+ c #303080",
"@ c #F8E0A8",
"# c None",
/* pixels */
"################################################################",
"################################################################",
"################################################################",
"################################################################",
"################################################################",
"################################################################",
"################################################################",
"################################################################",
"################################################################",
"################################################################",
"################################################################",
"##############################..################################",
"##############################..################################",
"##############################..################################",
"##############################..################################",
"############################..oo################################",
"############################..oo################################",
"##########################........##############################",
"##########################........##############################",
"##################        ..........          ##################",
"##################        ..........          ##################",
"################++OOoo++....oooo....OOOO++ooOO++################",
"################++OOoo++....oooo....OOOO++ooOO++################",
"################++OOoo++..@@..oo......OO++ooOO++################",
"################++OOoo++..@@..oo......OO++ooOO++################",
"################++    ++..OOoooooooooo..++    ++################",
"################++    ++..OOoooooooooo..++    ++################",
"################XXOOoo++..oooooooooooo..++ooOOXX################",
"################XXOOoo++..oooooooooooo..++ooOOXX################",
"################++OOoo++..oooooooooooo..++ooOO++################",
"################++OOoo++..oooooooooooo..++ooOO++################",
"################++    ++....ooOOOOoo....++    ++################",
"################++    ++....ooOOOOoo....++    ++################",
"################XXOOoo++++..OO@@@@OO..++++ooOOXX################",
"################XXOOoo++++..OO@@@@OO..++++ooOOXX################",
"################++OOoo++++..OOOO@@@@..++++ooOO++################",
"################++OOoo++++..OOOO@@@@..++++ooOO++################",
"################++    ++++..ooOO@@....++++    ++################",
"################++    ++++..ooOO@@....++++    ++################",
"################XXOOoo++++++..oooo..++++++ooOOXX################",
"################XXOOoo++++++..oooo..++++++ooOOXX################",
"################++OOoo++++++++....++++++++ooOO++################",
"################++OOoo++++++++....++++++++ooOO++################",
"################++    ++++++++++++++++++++    ++################",
"################++    ++++++++++++++++++++    ++################",
"################XXOOOO++oooo++oooo++oooo++OOOOXX################",
"################XXOOOO++oooo++oooo++oooo++OOOOXX################",
"################++OOOO++OOOO++OOOO++OOOO++OOOO++################",
"################++OOOO++OOOO++OOOO++OOOO++OOOO++################",
"################++    ++    ++    ++    ++    ++################",
"################++    ++    ++    ++    ++    ++################",
"################++    ++    ++    ++    ++    ++################",
"################++    ++    ++    ++    ++    ++################",
"################################################################",
"################################################################",
"################################################################",
"################################################################",
"################################################################",
"################################################################",
"################################################################",
"################################################################",
"################################################################",
"################################################################",
"################################################################"
};
