/* XPM */
static char *result[] = {
/* columns rows colors chars-per-pixel */
"64 64 21 1 ",
"  c #8E824A",
". c #8D824B",
"X c #7A7980",
"o c #C1C1C1",
"O c #BEBEC1",
"+ c #BDBDC0",
"@ c #BCBCC0",
"# c #BAB9C0",
"$ c #BCBBC0",
"% c #8F834B",
"& c #ADA169",
"* c #ACA06A",
"= c #AEA26A",
"- c #ADA16B",
"; c #C0C0C1",
": c #BDBCC0",
"> c #BBBAC0",
", c #BEBDC1",
"< c #BFBEC1",
"1 c #BFBFC1",
"2 c #C1C0C1",
/* pixels */
"          .XXXXooooooooooooooooooooooooooooooooooooooooooooooooo",
"          .XXXXoooooooO++++Ooooooooooooooooooooooooooooooooooooo",
"          .XXXXooooooo@####$oooooooooooooooooooooooooooooooooooo",
"          .XXXXooooooo@####$oooooooooooooooooooooooooooooooooooo",
"  %&&&&&&&*XXXXooooooo@####$oooooooooooooooooooooooooooooooooooo",
"  %=======-XXXXooooooo@####$oooooooooooooooooooooooooooooooooooo",
"  %=======-XXXX;;ooooo:>>>>:oooooooooooooooooooooooooooooooooooo",
"  %=======-XXXX>:ooooo;;;;;;oooooooooooooooooooooooooooooooooooo",
"  %=======-XXXX#@ooooooooooooooooooooooooooooooooooooooooooooooo",
"  %=======-XXXX#@ooooooooooooooooooooooooooooooooooooooooooooooo",
"  %=======-XXXX#@ooooooooooooooooooooooooooooooooooooooooooooooo",
"XXXXXXXXXXXXXXX#@ooooooooooooooooooooooooooooooooooooooooooooooo",
"XXXXXXXXXXXXXXX#@oooooooooo;,,,,,,,,,,Ooooooooooooooooooooooo<,,",
"XXXXXXXXXXXXXXX#@oooooooooo1##########>;ooooooooooooooooooooo$##",
"XXXXXXXXXXXXXXX#@oooooooooo1##########>;ooooooooooooooooooooo$##",
"ooooo,##########@oooooooooo1##########>;ooooooooooooooooooooo$##",
"ooooo,##########@oooooooooo1##########>;ooooooooooooooooooooo$##",
"oooooO##########:oooooooooo1##########>;ooooooooooooooooooooo@##",
"ooooo;1111111111;oooooooooo1##########>;ooooooooooooooooooooo;11",
"ooooooooooooooooooooooooooo1##########>;oooooooooooooooooooooooo",
"ooooooooooooooooooooooooooo1##########>;oooooooooooooooooooooooo",
"ooooooooooooooooooooooooooo1##########>;oooooooooooooooooooooooo",
"ooooooooooooooooooooooooooo1##########>;oooooooooooooooooooooooo",
"oooooooooooooooo;OOOOO;oooo;::::::::::+2oooooooooooooooooooooooo",
"oooooooooooooooo<#####<ooooooooooooooooooooooooooooooooooooooooo",
"oooooooooooooooo<#####<ooooooooooooooooooooooooooooooooooooooooo",
"oooooooooooooooo<#####<ooooooooooooooooooooooooooooooooooooooooo",
"oooooooooooooooo<#####<ooooooooooooooooooooooooooooooooooooooooo",
"oooooooooooooooo<#####<ooooooooooooooooooooooooooooooooooooooooo",
"oooooooooooooooo;11111;ooooooooooooooooooooooooooooooooooooooooo",
"oooooooooooooooooooooooooooooooooooooooooooooooooooooooooooooooo",
"oooooooooooooooooooooooooooooooooooooooooooooooooooooooooooooooo",
"oooooooooooooooooooooooooooooooooooooooooooooooooooooooooooooooo",
"oooooooooooooooooooooooooooooooooooooooooooooooooooooooooooooooo",
"oooooooooooooooooooooooooooooooooooooooooooooooooooooooooooooooo",
"oooooooooooooooooooooooooooooooooooooooooooooooooooooooooooooooo",
"oooooooooooooooooooooooooooooooooooooooooooooooooooooooooooooooo",
"oooooooooooooooooooooooooooooooooooooooooooooooooooooooooooooooo",
"oooooooooooooooooooooooooooooooooooooooooooooooooooooooooooooooo",
"oooooooooooooooooooooooooooooooooooooooooooooooooooooooooooooooo",
"oooooooooooooooooooooooooooooooooooooooooooooooooooooooooooooooo",
"oooooooooooooooooooooooooooooooooooooooooooooooooooooooooooooooo",
"oooooooooooooooooooooooooooooooooooooooooooooooooooooooooooooooo",
"oooooooooooooooooooooooooooooooooooooooooooooooooooooooooooooooo",
"oooooooooooooooooooooooooooooooooooooooooooooooooooooooooooooooo",
"oooooooooooooooooooooooooooooooooooooooooooooooooooooooooooooooo",
"oooooooooooooooooooooooooooooooooooooooooooooooooooooooooooooooo",
"oooooooooooooooooooooooooooooooooooooooooooooooooooooooooooooooo",
"oooooooooooooooooooooooooooooooooooooooooooooooooooooooooooooooo",
"oooooooooooooooooooooooooooooooooooooooooooooooooooooooooooooooo",
"oooooooooooooooooooooooooooooooooooooooooooooooooooooooooooooooo",
"oooooooooooooooooooooooooooooooooooooooooooooooooooooooooooooO++",
"ooooooooooooooooooooooooooooooooooooooooooooooooooooooooooooo$##",
"ooooooooooooooooooooooooooooooooooooooooooooooooooooooooooooo$##",
"ooooooooooooooooooooooooooooooooooooooooooooooooooooooooooooo$##",
"ooooooooooooooooooooooooooooooooooooooooooooooooooooooooooooo$##",
"ooooooooooooooooooooooooooooooooooooooo;;;;;ooooooooooooooooo:>>",
";ooooooooooooooooooooooooooooooooooooo;$>>>>Ooooooooooooooooo;;;",
";ooooooooooooooooooooooooooooooooooooo;>####+ooooooooooooooooooo",
";ooooooooooooooooooooooooooooooooooooo;>####+ooooooooooooooooooo",
";ooooooooooooooooooooooooooooooooooooo;>####+ooooooooooooooooooo",
";ooooooooooooooooooooooooooooooooooooo;>####+ooooooooooooooooooo",
";oooooooooooooooooooooooooo;OOOOO;oooo;+::::1ooooooooooooooooooo",
"ooooooooooooooooooooooooooo1#####Ooooooooooooooooooooooooooooooo"
};
