/* XPM */
static char *result[] = {
/* columns rows colors chars-per-pixel */
"64 64 8 1 ",
"  c #585078",
". c #F80800",
"X c #987038",
"o c #F89800",
"O c #E0C078",
"+ c #303080",
"@ c #F8E0A8",
"# c None",
/* pixels */
"################################################################",
"################################################################",
"############################..##################################",
"############################..##################################",
"##############################..################################",
"##############################..################################",
"##############################..################################",
"##############################..################################",
"##############################oo..##############################",
"##############################oo..##############################",
"##############################oo..##############################",
"##############################oo..##############################",
"##############################oooo##############################",
"##############################oooo##############################",
"############################..oooo##############################",
"############################..oooo##############################",
"############################..oo..##############################",
"############################..oo..##############################",
"############################oooooo..############################",
"############################oooooo..############################",
"##################        ..oooooo..          ##################",
"##################        ..oooooo..          ##################",
"################++OOoo++oo..oooooo....oo++ooOO++################",
"################++OOoo++oo..oooooo....oo++ooOO++################",
"################++OOoo++oo..ooOOoooo..oo++ooOO++################",
"################++OOoo++oo..ooOOoooo..oo++ooOO++################",
"################++    ++  ..ooOOoooo..  ++    ++################",
"################++    ++  ..ooOOoooo..  ++    ++################",
"################XXoooo++..oooo@@OOoooo..++ooooXX################",
"################XXoooo++..oooo@@OOoooo..++ooooXX################",
"################++oooo++..ooOO@@@@oooo..++oooo++################",
"################++oooo++..ooOO@@@@oooo..++oooo++################",
"################++    ++..oo@@@@@@@@oo..++    ++################",
"################++    ++..oo@@@@@@@@oo..++    ++################",
"################XXoooo++..oo@@@@@@@@oo..++ooooXX################",
"################XXoooo++..oo@@@@@@@@oo..++ooooXX################",
"################++oooo++..oo@@@@@@@@....++oooo++################",
"################++oooo++..oo@@@@@@@@....++oooo++################",
"################++    ++..oooo@@@@oo....++    ++################",
"################++    ++..oooo@@@@oo....++    ++################",
"################XXoooo++++....oooo....++++ooooXX################",
"################XXoooo++++....oooo....++++ooooXX################",
"################++oooo++++++........++++++oooo++################",
"################++oooo++++++........++++++oooo++################",
"################++    ++++++++++++++++++++    ++################",
"################++    ++++++++++++++++++++    ++################",
"################XXOOOO++oooo++oooo++oooo++OOOOXX################",
"################XXOOOO++oooo++oooo++oooo++OOOOXX################",
"################++OOOO++oooo++oooo++oooo++OOOO++################",
"################++OOOO++oooo++oooo++oooo++OOOO++################",
"################++    ++    ++    ++    ++    ++################",
"################++    ++    ++    ++    ++    ++################",
"################++    ++    ++    ++    ++    ++################",
"################++    ++    ++    ++    ++    ++################",
"################################################################",
"################################################################",
"################################################################",
"################################################################",
"################################################################",
"################################################################",
"################################################################",
"################################################################",
"################################################################",
"################################################################"
};
