/* XPM */
static char *result[] = {
/* columns rows colors chars-per-pixel */
"64 64 21 1 ",
"  c #C1C1C1",
". c #BFBFC1",
"X c #BAB9C0",
"o c #BEBEC1",
"O c #C0C0C1",
"+ c #BDBDC0",
"@ c #BDBCC0",
"# c #BBBAC0",
"$ c #BCBBC0",
"% c #BFBEC1",
"& c #C1C0C1",
"* c #BCBCC0",
"= c #BEBDC1",
"- c #7A7980",
"; c #8E824A",
": c #8F834B",
"> c #AEA26A",
", c #ADA16B",
"< c #ADA169",
"1 c #ACA06A",
"2 c #8D824B",
/* pixels */
"                           .XXXXXo                              ",
"O                          OoooooO    O+@@@@.                   ",
"O                                     O#XXXX+                   ",
"O                                     O#XXXX+                   ",
"O                                     O#XXXX+                   ",
"O                                     O#XXXX+                   ",
"O                                     O$####o                OOO",
"                                       OOOOO                 @##",
"                                                             $XX",
"                                                             $XX",
"                                                             $XX",
"                                                             $XX",
"                                                             o++",
"                                                                ",
"                                                                ",
"                                                                ",
"                                                                ",
"                                                                ",
"                                                                ",
"                                                                ",
"                                                                ",
"                                                                ",
"                                                                ",
"                                                                ",
"                                                                ",
"                                                                ",
"                                                                ",
"                                                                ",
"                                                                ",
"                                                                ",
"                                                                ",
"                                                                ",
"                                                                ",
"                                                                ",
"                O.....O                                         ",
"                %XXXXX%                                         ",
"                %XXXXX%                                         ",
"                %XXXXX%                                         ",
"                %XXXXX%                                         ",
"                %XXXXX%                                         ",
"                OoooooO    O@@@@@@@@@@+&                        ",
"                           .XXXXXXXXXX#O                        ",
"                           .XXXXXXXXXX#O                        ",
"                           .XXXXXXXXXX#O                        ",
"                           .XXXXXXXXXX#O                        ",
"     O..........O          .XXXXXXXXXX#O                     O..",
"     oXXXXXXXXXX@          .XXXXXXXXXX#O                     *XX",
"     =XXXXXXXXXX*          .XXXXXXXXXX#O                     $XX",
"     =XXXXXXXXXX*          .XXXXXXXXXX#O                     $XX",
"---------------X*          .XXXXXXXXXX#O                     $XX",
"---------------X*          .XXXXXXXXXX#O                     $XX",
"---------------X*          O==========o                      %==",
"---------------X*                                               ",
";;:>>>>>>>,----X*                                               ",
";;:>>>>>>>,----X*                                               ",
";;:>>>>>>>,----X*                                               ",
";;:>>>>>>>,----#@     OOOOOO                                    ",
";;:>>>>>>>,----OO     @####@                                    ",
";;:>>>>>>>,----       *XXXX$                                    ",
";;:<<<<<<<1----       *XXXX$                                    ",
";;;;;;;;;;2----       *XXXX$                                    ",
";;;;;;;;;;2----       *XXXX$                                    ",
";;;;;;;;;;2----       o++++o                                    ",
";;;;;;;;;;2----                                                 "
};
