/* XPM */
static char *result[] = {
/* columns rows colors chars-per-pixel */
"64 64 5 1 ",
"  c #BAB9C0",
". c #C1C1C1",
"X c #7A7980",
"o c #8E824A",
"O c #AEA26A",
/* pixels */
"       ........................    ............................ ",
".......................    ............................    .....",
".......................    ............................    .....",
".......................    ............................    .....",
".......................    ............................    .....",
".......    .....................................................",
".......    .....................................................",
".......    .....................................................",
".......    .....................................................",
"   ........................................................     ",
"   ........................................................     ",
"   ........................................................     ",
"   ........................................................     ",
"   ........................................................     ",
"   ........................................................     ",
"   ........................................................     ",
"   ........................................................     ",
"................................................................",
"................................................................",
"................................................................",
"................................................................",
"................................................................",
"................................................................",
"................................................................",
"................................................................",
".......................................    .....................",
".......................................    .....................",
".......................................    .....................",
".......................................    .....................",
"...........................        .............................",
"...........................        .............................",
"...........................        .............................",
"...........................        .............................",
".......    ................        ........        .............",
".......    ................        ........        .............",
".......    ................        ........        .............",
".......    ................        ........        .............",
"...........................................        .............",
"...........................................        .............",
"...........................................        .............",
"...........................................        .............",
"   ................................    ........................ ",
"   ................................    ........................ ",
"   ................................    ........................ ",
"   ................................    ........................ ",
"................................................................",
"................................................................",
"................................................................",
"................................................................",
"XXXXXXXXXXXXXXXXXXXXXXXXXXXXXXXXXXXXXXXXXXXXXXXXXXXXXXXXXXXXXXXX",
"XXXXXXXXXXXXXXXXXXXXXXXXXXXXXXXXXXXXXXXXXXXXXXXXXXXXXXXXXXXXXXXX",
"XXXXXXXXXXXXXXXXXXXXXXXXXXXXXXXXXXXXXXXXXXXXXXXXXXXXXXXXXXXXXXXX",
"XXXXXXXXXXXXXXXXXXXXXXXXXXXXXXXXXXXXXXXXXXXXXXXXXXXXXXXXXXXXXXXX",
"oooOOOOOOOOOOOOOOOOOOOOOOOOOOOOOOOOooooOOOOOOOOOOOOOOOOOOOOOOOOo",
"oooOOOOOOOOOOOOOOOOOOOOOOOOOOOOOOOOooooOOOOOOOOOOOOOOOOOOOOOOOOo",
"oooOOOOOOOOOOOOOOOOOOOOOOOOOOOOOOOOooooOOOOOOOOOOOOOOOOOOOOOOOOo",
"oooOOOOOOOOOOOOOOOOOOOOOOOOOOOOOOOOooooOOOOOOOOOOOOOOOOOOOOOOOOo",
"oooOOOOOOOOOOOOOOOOOOOOOOOOOOOOOOOOooooOOOOOOOOOOOOOOOOOOOOOOOOo",
"oooOOOOOOOOOOOOOOOOOOOOOOOOOOOOOOOOooooOOOOOOOOOOOOOOOOOOOOOOOOo",
"oooOOOOOOOOOOOOOOOOOOOOOOOOOOOOOOOOooooOOOOOOOOOOOOOOOOOOOOOOOOo",
"oooOOOOOOOOOOOOOOOOOOOOOOOOOOOOOOOOooooOOOOOOOOOOOOOOOOOOOOOOOOo",
"oooooooooooooooooooooooooooooooooooooooooooooooooooooooooooooooo",
"oooooooooooooooooooooooooooooooooooooooooooooooooooooooooooooooo",
"oooooooooooooooooooooooooooooooooooooooooooooooooooooooooooooooo"
};
