/* XPM */
static char *_1_up041671529028[] = {
/* columns rows colors chars-per-pixel */
"64 64 7 1 ",
"  c None",
". c black",
"X c #604020",
"o c #E02828",
"O c #F88838",
"+ c #F8C038",
"@ c #F0D070",
/* pixels */
"                                                                ",
"                                                                ",
"                                                                ",
"                                                                ",
"                                                                ",
"                                                                ",
"                                                                ",
"                                                                ",
"                                                                ",
"                                                                ",
"                                                                ",
"                                                                ",
"                                                                ",
"                                                                ",
"                                                                ",
"                           XXXXXXXXXX                           ",
"                           XXXXXXXXXX                           ",
"                         XX++++++++++XX                         ",
"                         XX++++++++++XX                         ",
"                       XXOO++++++++++OOXX                       ",
"                       XXOO++++++++++OOXX                       ",
"                       XX++++++++++++++XX                       ",
"                       XX++++++++++++++XX                       ",
"                       XX++++++++++oo++XX                       ",
"                       XX++++++++++oo++XX                       ",
"                     XXOO++++++++@@oo++OOXX                     ",
"                     XXOO++++++++@@oo++OOXX                     ",
"                     ..OO++++++oooooo++OO..                     ",
"                     ..OO++++++oooooo++OO..                     ",
"                     ..OOOO++oooo@@ooOOOO..                     ",
"                     ..OOOO++oooo@@ooOOOO..                     ",
"                       ..OO++oooo@@@@OO..                       ",
"                       ..OO++oooo@@@@OO..                       ",
"                         ..++++oo@@oo..                         ",
"                         ..++++oo@@oo..                         ",
"                       ..++++++ooooXX++..                       ",
"                       ..++++++ooooXX++..                       ",
"                       ..++++++XX++XX++..                       ",
"                       ..++++++XX++XX++..                       ",
"                     XXOO++++++XX++XX++OOXX                     ",
"                     XXOO++++++XX++XX++OOXX                     ",
"                     XXOO++++XX++++..OOOOXX                     ",
"                     XXOO++++XX++++..OOOOXX                     ",
"                     XXOOOO++XXOOOO..OO..                       ",
"                     XXOOOO++XXOOOO..OO..                       ",
"                       XXOOOOXX....XX..                         ",
"                       XXOOOOXX....XX..                         ",
"                         ....                                   ",
"                         ....                                   ",
"                                                                ",
"                                                                ",
"                                                                ",
"                                                                ",
"                                                                ",
"                                                                ",
"                                                                ",
"                                                                ",
"                                                                ",
"                                                                ",
"                                                                ",
"                                                                ",
"                                                                ",
"                                                                ",
"                                                                "
};
