/* XPM */
static char *down1673351254[] = {
/* columns rows colors chars-per-pixel */
"64 64 170 2 ",
"   c None",
".  c black",
"X  c #090909",
"o  c gray4",
"O  c #0B0B0D",
"+  c #0E0E10",
"@  c #101013",
"#  c #151515",
"$  c #151517",
"%  c #161619",
"&  c #17171B",
"*  c #1C1C1E",
"=  c gray12",
"-  c #361604",
";  c #281515",
":  c #1C1C20",
">  c #1D1D20",
",  c #202023",
"<  c #202025",
"1  c #212125",
"2  c #222228",
"3  c #27272A",
"4  c #2A2A2C",
"5  c #2B2535",
"6  c #2A2A30",
"7  c #353537",
"8  c #303038",
"9  c #35353B",
"0  c #35353C",
"q  c #3B3B3E",
"w  c #512412",
"e  c #422B27",
"r  c #483325",
"t  c #55392F",
"y  c #683D2B",
"u  c #53453D",
"i  c #2B1D40",
"p  c #3B3942",
"a  c #3D3C45",
"s  c #403850",
"d  c #385870",
"f  c #404045",
"g  c #404048",
"h  c #45434D",
"j  c #4D4D53",
"k  c #4F4D56",
"l  c #4F4F56",
"z  c #505058",
"x  c #784040",
"c  c #7C5B46",
"v  c #765649",
"b  c #6C5D5E",
"n  c #73585B",
"m  c #524368",
"M  c #55486B",
"N  c #5C5968",
"B  c #554375",
"V  c #584576",
"C  c #5B4877",
"Z  c #5D4B78",
"A  c #605078",
"S  c #626267",
"D  c #606068",
"F  c #666073",
"G  c #656373",
"H  c #6D6D78",
"J  c #7D6B73",
"K  c #72727B",
"L  c #A3410C",
"P  c #A04B1D",
"I  c #86402F",
"U  c #C6500F",
"Y  c #C55414",
"T  c #D85810",
"R  c #C5693F",
"E  c #90654B",
"W  c #806068",
"Q  c #98746A",
"!  c #867974",
"~  c #D57D58",
"^  c #C28574",
"/  c #D89870",
"(  c #553B80",
")  c #644A8E",
"_  c #685B83",
"`  c #69568B",
"'  c #6C548C",
"]  c #6B4D9B",
"[  c #715793",
"{  c #58608D",
"}  c #746F81",
"|  c #706B8D",
" . c #777584",
".. c #787588",
"X. c #7B629E",
"o. c #7B6B9B",
"O. c #7E7192",
"+. c #7B5DA0",
"@. c #7478A2",
"#. c #A87880",
"$. c #8268A7",
"%. c #8263A9",
"&. c #8464AD",
"*. c #8565AD",
"=. c #9A79A4",
"-. c #8E6ABB",
";. c #926CBF",
":. c #907DB5",
">. c #8058C0",
",. c #855DC2",
"<. c #8860C3",
"1. c #9068C5",
"2. c #956DC7",
"3. c #9870C8",
"4. c #658090",
"5. c #858393",
"6. c #878792",
"7. c #878495",
"8. c #8B859B",
"9. c #92929C",
"0. c #B48983",
"q. c #BB838B",
"w. c #8C88A1",
"e. c #928CA2",
"r. c #9590A5",
"t. c #9B9BA5",
"y. c #9088B8",
"u. c #A880BD",
"i. c #A09BB2",
"p. c #A5A5B2",
"a. c #ABA5BD",
"s. c #ABABB8",
"d. c #C99D8E",
"f. c #D59D89",
"g. c #C19B9F",
"h. c #D0AB90",
"j. c #DFB096",
"k. c #DDB39D",
"l. c #E3AB88",
"z. c #D3A3A0",
"x. c #D0A8BB",
"c. c #D5ADBC",
"v. c #D8B0BD",
"b. c #EDBDA0",
"n. c #E3B8AB",
"m. c #F1C4A8",
"M. c #F8D0B8",
"N. c #A380D3",
"B. c #A685D6",
"V. c #AA8BDA",
"C. c #AB94D7",
"Z. c #AD90DD",
"A. c #A8A0C8",
"S. c #ABA8CB",
"D. c #B4B4C1",
"F. c #BFBDC5",
"G. c #BBBBC8",
"H. c #BFBFCD",
"J. c #B5ADD3",
"K. c #B195E1",
"L. c #B8A0E8",
"P. c #C0D0D0",
"I. c #E1D1DB",
"U. c #D0C8E8",
"Y. c #D8D3ED",
"T. c #E0DDF3",
"R. c #EDE0E3",
"E. c #E3E1F4",
"W. c #E8E8F8",
"Q. c white",
/* pixels */
"                                                                                                                                ",
"                                                                                                                                ",
"                                                                                                                                ",
"                                                                                                                                ",
"                                                  s a s s A Q.Q.Q.F s a s s                                                     ",
"                                                m Z Z Z N $.x.P.F.o.Z Z Z Z m                                                   ",
"                                              s Z 3.3.3.3.[ s s s +.3.3.3.3.Z s                                                 ",
"                                          s s +.*.3.3.3.3.*.Z M M %.3.3.3.3.*.+.s                                               ",
"                                          s s 3.3.3.3.3.3.*.A A A *.3.3.3.3.3.3.s s                                             ",
"                                        s +.+.3.3.3.3.3.3.;.*.*.*.;.3.3.3.3.3.3.3.+.s s                                         ",
"                                      s s 3.3.3.3.3.3.3.3.3.3.3.3.3.3.3.3.3.3.3.3.+.s s                                         ",
"                                    s +.3.3.3.3.3.3.3.3.3.3.3.3.3.3.3.3.3.3.3.3.3.+.s s                                         ",
"                                    s +.3.3.3.3.3.3.3.3.3.3.3.3.3.3.3.3.3.3.3.3.3.+.s s                                         ",
"                                    s +.3.3.3.3.3.3.3.3.3.3.3.3.3.3.3.3.3.3.3.3.3.+.s s                                         ",
"                                    s +.3.3.3.3.3.3.3.3.3.3.3.3.3.3.3.3.3.3.3.3.3.+.s s                                         ",
"                                    s +.3.3.3.Z.B.3.3.3.3.3.3.3.3.3.3.3.3.3.B.Z.3.-.+.' s                                       ",
"                                    s +.3.3.3.L.Z.3.3.3.3.3.3.3.3.3.3.3.3.3.Z.L.3.3.3.+.s                                       ",
"                                    s +.3.L.L.L.L.L.N.3.3.3.3.3.3.3.3.3.N.L.L.L.L.Z.3.+.s                                       ",
"                                    5 X.N.L.L.L.C.:.$.+.3.3.3.3.3.3.3.+.$.:.C.L.L.K.N.X.5                                       ",
"                                    . o.L.L.L.L.:.s s s 3.3.3.3.3.3.3.s s s :.L.L.L.L.o..                                       ",
"                                    . o.L.N.N._ ` ] ] ] Z [ 3.3.3.[ Z ] ] ] ` _ N.V.L.o..                                       ",
"                                    . o.L.3.3.s B >.>.>.s Z 3.3.3.Z s >.>.>.B s 3.N.L.o..                                       ",
"                                s Z 3.3.3.3.3.s n / b.M.>.] s s s ] >.M.b./ n s 3.3.3.3.3.Z s                                   ",
"                                s Z 3.3.3.+.+.n Q l.m.M.u.=.J J J =.u.M.m.l.Q n +.*.3.3.3.Z s                                   ",
"                                s Z 3.3.3.s s / l.M.M.M.M.M.M.M.M.M.M.M.M.M.l./ s Z 3.3.3.Z s                                   ",
"                                s C 1.2.3.s s / f.x.c.v.M.M.M.M.M.M.M.v.c.x.f./ s Z 3.2.1.C s                                   ",
"                                s B >.1.3.s s / q.>.1.3.M.M.M.M.M.M.M.3.1.>.q./ s Z 3.1.>.B s                                   ",
"                                s B >.,.<.s s / d.S.@.{ M.M.M.M.M.M.M.{ @.S.d./ s V <.,.>.B s                                   ",
"                                s B >.>.>.s s / h.P.4.d M.M.M.M.M.M.M.d 4.P.h./ s B >.>.>.B s                                   ",
"                                . i >.>.>.s s / k.W.j . M.M.M.M.M.M.M.. j W.k./ s B >.>.>.i .                                   ",
"                                . i >.>.>.B B / j.R.! u M.M.M.M.M.M.M.u ! R.j./ B ) >.>.>.i .                                   ",
"                                . i >.>.>.>.>./ l.M.M.M.M.M.M.M.M.M.M.M.M.M.l./ >.>.>.>.>.i .                                   ",
"                                . i >.>.>.>.>.r c l.m.M.M.M.M.M.M.M.M.M.m.l.c r >.>.>.>.>.i .                                   ",
"                                . i >.>.>.>.>.. r / b.M.M.M.M.M.M.M.M.M.b./ r . >.>.>.>.>.i .                                   ",
"                                . . . ( >.. . . . . E / M.b./ / / b.M./ E .     . i >.( . . .                                   ",
"                                . . . ( >.. . . . . E / M.b./ / / b.M./ E .     . i >.( . . .                                   ",
"                                    . . . . . A.J.U.h . . ; x x x ; . . o ;         . . .                                       ",
"                                    . % 1 h h A.J.U. .h - w I I I e 1 h k S a       . . .                                       ",
"                                    . f D U.U.A.J.U.U.U.L L L L L v S U.Y.W.l .                                                 ",
"                                . + 1 0 g 5.5...8.J.J.J.U R q.~ U 0.a.T.E.W.D.t..                                               ",
"                                . @ 8 8 8 D D D ..A.A.A.T / U.~ T z.U.W.W.W.W.W.. .                                             ",
"                                . @ 8 8 8 . .     D a.U.T T T z.U.T.W.W.G.S a.U.U.8.. .                                         ",
"                                . + 1 1 1 . .     f i.U.T U P ^ z.I.W.G.9.f 7.a.U.8.. .                                         ",
"                                    . . .         . 8.U.T L 5 P T n.W.D f . f D U.8.. .                                         ",
"                                                  . a N y t 8 t y b H , * # 4 7 h a                                             ",
"                                                  . & 2 8 8 8 8 8 8 8 . O ; = = . .                                             ",
"                                                  f : O | W P P P J | . O = 3 6 . .                                             ",
"                                                  D , . y.#.T T T #.y.. o = 6 8 . .                                             ",
"                                              D z 8 s.W.8 G U.U.U.U.U.2 & . . .                                                 ",
"                                              f l H P.W.H  .8.8.8.e.r.1 % . . .                                                 ",
"                                              . k W.E.W.W.t.. . . # = = # .                                                     ",
"                                              . j W.W.W.W.p.1 9 f * o o o                                                       ",
"                                              . j W.W.W.W.s.8 z D , . . .                                                       ",
"                                                  . t.W.W.G.S                                                                   ",
"                                                  . K s.s.6.s                                                                   ",
"                                                  . 1 8 8 < .                                                                   ",
"                                                  . : 6 6 : .                                                                   ",
"                                                  . # * = # .                                                                   ",
"                                                    o o o o                                                                     ",
"                                                    . . . .                                                                     ",
"                                                                                                                                ",
"                                                                                                                                ",
"                                                                                                                                ",
"                                                                                                                                "
};
