/* XPM */
static char *right1673351254[] = {
/* columns rows colors chars-per-pixel */
"64 64 165 2 ",
"   c None",
".  c #010001",
"X  c #070708",
"o  c #0B0A0B",
"O  c #0D0A12",
"+  c #130D1D",
"@  c #161212",
"#  c #17161B",
"$  c #18181B",
"%  c #311A1A",
"&  c #1D1B25",
"*  c #1D1729",
"=  c #201E28",
"-  c #241936",
";  c #1A2934",
":  c #212125",
">  c #24222B",
",  c #2D2C32",
"<  c #2B2537",
"1  c #312F3F",
"2  c #303038",
"3  c #39393E",
"4  c #38353E",
"5  c #432B29",
"6  c #784830",
"7  c #2C1E42",
"8  c #33234C",
"9  c #3C3A43",
"0  c #373446",
"q  c #3B2858",
"w  c #3F3158",
"e  c #403850",
"r  c #463B5B",
"t  c #483D5B",
"y  c #4B3E64",
"u  c #4E3F69",
"i  c #543A7E",
"p  c #385870",
"a  c #48464F",
"s  c #45454B",
"d  c #494651",
"f  c #484554",
"g  c #53525C",
"h  c #764040",
"j  c #794141",
"k  c #52416F",
"l  c #574C6D",
"z  c #575462",
"x  c #5B5362",
"c  c #595962",
"v  c #564476",
"b  c #5A4C72",
"n  c #5C4979",
"m  c #4C4862",
"M  c #655C6A",
"N  c #62626B",
"B  c #74636D",
"V  c #676572",
"C  c #6B6A74",
"Z  c #6E6979",
"A  c #796D78",
"S  c #72707C",
"D  c #844D4B",
"F  c #87504D",
"G  c #94664E",
"H  c #8B767A",
"J  c #B77A60",
"K  c #AA7D65",
"L  c #B6805E",
"P  c #BD8568",
"I  c #A38979",
"U  c #D99A72",
"Y  c #5E4785",
"T  c #614987",
"R  c #644B8C",
"E  c #6B4D9A",
"W  c #644893",
"Q  c #785C98",
"!  c #676283",
"~  c #6A6487",
"^  c #7B7C88",
"/  c #7B6599",
"(  c #7A739B",
")  c #6C4AA2",
"_  c #7551AE",
"`  c #7E5BAD",
"'  c #7D56BB",
"]  c #7C57B5",
"[  c #7F60A6",
"{  c #7166A4",
"}  c #805BB6",
"|  c #8564AE",
" . c #8776AA",
".. c #8579A8",
"X. c #8A67B5",
"o. c #8767B0",
"O. c #947EBB",
"+. c #8476B4",
"@. c #8058C0",
"#. c #8B63C4",
"$. c #936BC6",
"%. c #956EC9",
"&. c #9870C8",
"*. c #9D78CD",
"=. c #9A7AD3",
"-. c #A17DD1",
";. c #78909D",
":. c #83838D",
">. c #8A8496",
",. c #898398",
"<. c #8F8C9C",
"1. c #8A8897",
"2. c #9C8484",
"3. c #AC948F",
"4. c #B6A79F",
"5. c #938DA4",
"6. c #9892A9",
"7. c #9691A8",
"8. c #8B84B2",
"9. c #9189B8",
"0. c #958EB3",
"q. c #9B93BE",
"w. c #9E97B3",
"e. c #A29CB3",
"r. c #A69FB9",
"t. c #A0A0AC",
"y. c #AAA3B8",
"u. c #B1B1BE",
"i. c #C79FBB",
"p. c #C8AEA1",
"a. c #CBA8B6",
"s. c #D4ACBB",
"d. c #D8B3BD",
"f. c #DBB7A2",
"g. c #EDC5BA",
"h. c #F4CCB8",
"j. c #F8D0B8",
"k. c #9A89C7",
"l. c #A483D4",
"z. c #AA8CDA",
"x. c #AF92DF",
"c. c #A69EC8",
"v. c #AFA9C4",
"b. c #AAA2CC",
"n. c #B1AAC5",
"m. c #B4ACCA",
"M. c #B9B1CB",
"N. c #B195E1",
"B. c #B59CE5",
"V. c #B8A0E8",
"C. c #C0B8D0",
"Z. c #C5BDDF",
"A. c #C6BEE0",
"S. c #C2C2CF",
"D. c #C0D0D0",
"F. c #E6D3C6",
"G. c #F3D8CE",
"H. c #F1DAD2",
"J. c #CDC5E5",
"K. c #D0C8E7",
"L. c #D0C8E8",
"P. c #DBDBEA",
"I. c #D4D8E3",
"U. c #E8E8F8",
"Y. c #E1E1F0",
/* pixels */
"                                                                                                                                ",
"                                                                                                                                ",
"                                                                                                                                ",
"                                                e e e e 9 e w w e e e e e e e e e                                               ",
"                                                r r r r r r r r r r r r t t t t t                                               ",
"                                              w W @.@.@.@.@.@.@.@.@.@.#.&.&.&.#.@.v e                                           ",
"                                            m u E @.@.@.@.@.@.@.@.@.@.@.&.&.&.#.@.T k                                           ",
"                                          e Y @.@.@.@.@.@.@.@.@.@.@.@.#.&.&.&.&.$.#.' k e                                       ",
"                                        k v E @.@.@.@.@.@.@.@.@.@.@.@.@.$.$.&.&.&.#.#.T v                                       ",
"                                      e v ' @.@.@.@.@.@.@.@.@.@.@.@.@.@.@.#.&.&.%.&.&.@.@.r e e                                 ",
"                                      e n #.%.=.$.@.#.#.@.$.#.#.#.@.@.@.@.@.#.$.&.&.&.$.#.r e e                                 ",
"                                      e n &.l.V.z.&.&.&.&.%.&.&.&.$.@.@.@.@.@.#.&.&.%.&.&.t e e                                 ",
"                                  e l ..&.z.N.V.N.x.-.&.&.&.&.&.&.&.$.#.#.#.@.@.#.#.#.#.#.r e e                                 ",
"                                  e b V.B.V.V.V.B.B.-.&.&.&.&.&.&.&.&.&.&.#.@.@.@.} @.} ' r e e                                 ",
"                              e t ` X.-.z.V.B.V.z.-.&.&.&.&.x.B.N.z.&.&.&.%.$.#.@.T v k v e e e                                 ",
"                              e y &.&.&.-.V.Z.B.-.&.&.&.&.&.B.V.V.N.&.&.&.&.&.#.@.i w e w 9 e e                                 ",
"                              o # %.&.&.l.V.x.*.&.&.&.&.@.@.B.V.V.V.B.N.N.N.N./ y E _ ] _ r e e                                 ",
"                              . O %.&.&.-.V.z.%.&.&.&.&.#.@.B.B.V.V.V.V.V.V.V.| w E @.@.@.y e e                                 ",
"                              . O @.@.&.&.&.&.&.&.&.&.&.@.@.*.*.V.V.V.V.V...e R ] a.h.h.h.j h h                                 ",
"                              . O @.@.*.&.&.&.&.&.&.&.&.@.@.&.&.V.B.V.V.V...r R @.a.j.j.j.F j 6                                 ",
"                              . @ @.@.&.&.&.&.&.&.&.@.} $.&.&.&.O.&.&.| e H j.j.j.j.j.j.j.U U U                                 ",
"                              . O @.@.&.&.&.&.&.&.&.} _ $.&.&.&.&.&.X.Q x I j.j.j.j.j.j.j.P P L                                 ",
"                              . O @.@.@.@.&.&.&.&.&.b e X.&.&.&.&.X.e B j.j.j.j.j.j.j.j.j.@ . .                                 ",
"                              @ = @.@.@.@.$.#.$.$.#.b e X.&.&.&.&.X.e B j.g.s.d.C.h.j.j.j.@ . .                                 ",
"                              e r @.@.@.@.@.@.@.@.@.i w X.&.&.&.&.X.e B j.i.} #.&.d.j.j.j.@ . .                                 ",
"                              e r @.@.@.@.@.' @.@.@.w = } #.&.&.&.X.e B j.d.k.+.{ a.j.j.j.5 % %                                 ",
"                              e r @.@.@.@.@.' @.@.@.- . ) @.&.&.&.} e B h.F.D.;.p 4.j.j.j.D 6 j                                 ",
"                              & - @.@.@.@.@.@.@.@.' - . ) @.#.@.X.} e B j.F.P.^ ; 3.j.j.j.D h j                                 ",
"                              . O @.' @.@.@.@.@.@.@.- . ) @.@.@.@._ 5 B j.H.U.S . I j.j.G.F h 6                                 ",
"                              . O @.@.@.@.@.@.@.@.@.W i 7 7 @.@.@.' Q | A 3.G.p.I f.j.j.j.J J J                                 ",
"                              . O @.@.@.' @.@.@.@.@.@.@.+ . ' @.@.@.&.| e H j.j.j.j.j.j.j.U U U                                 ",
"                                  * 8 @.@.@.@.@.@.@.@.@.+ . ' @.@.@.O.X.| | M 3.j.j.j.J G                                       ",
"                                  . * @.@.@.@.@.@.@.@.@.+ . ' ' @.@.&.&.&.Q w I j.j.j.G 6                                       ",
"                                      O 8 @.@.@.@.@.@.@._ _ + + &.X.t t t < X o @ @ @                                           ",
"                                      . 7 @.@.@.@.@.@.@.@.@.X . &.X.e e e > . . . . .                                           ",
"                                          . q ' @.@.@.@.+ . . . X O N N N N                                                     ",
"                                          . q _ _ _ _ _ + . . . o # C C C N                                                     ",
"                                              . . . . . . . . . N S L.L.K.^ .                                                   ",
"                                              . . . . . & & , , c C e.v.L.<., >                                                 ",
"                                                    . . ( 9.L.J.N g . 9 L.L.L.M .                                               ",
"                                                    . . ( 9.,.,.<.^ : 9 ,.y.L.,.s ,                                             ",
"                                                    . . ( 9.X X U.I.N s . g L.L.L.f . . .                                       ",
"                                                      . f m . X U.P.t.;., a Z t.K.z # # # .                                     ",
"                                                        . . . X U.U.Y.C.N 9 . Z L.V 2 2 2 X . .                                 ",
"                                                        . . :.<.U.U.U.P.u.:.3 s g 9 2 2 2 X . .                                 ",
"                                                        . . Y.U.U.U.U.U.U.u.N , . : 2 2 2 . . .                                 ",
"                                                        . . g c B N N V N g 2 $ . o O o O                                       ",
"                                                        . . > > , 2 2 2 2 , : @ . . . . .                                       ",
"                                                    . . 6.n.c c y.y.y.w...0.m.m.n.                                              ",
"                                                    . . v.L.N N C.C.M.n.9.b.L.L.L.                                              ",
"                                                    . . g N M N L.L.J.7.. c L.L.L.d . . .                                       ",
"                                                    X X z c V V L.L.J.7.X z L.L.L.f X . .                                       ",
"                                                . . >.C.9.9.J.L.L.v.. 9 L.L.L.L.L.c.8.& .                                       ",
"                                                . . >.C.c.q.A.A.m.6.. 4 n.M.A.A.J.0.( & .                                       ",
"                                                . . >.C.M.C.9.8.. .     . 0 9.9.8.0 .                                           ",
"                                                  . C >.M.C.~ V . .     . 0 ! ! ! 2 .                                           ",
"                                                    . . e.C.X .             . . .                                               ",
"                                                      . N S . .             . . .                                               ",
"                                                        . . . .                                                                 ",
"                                                        . . . .                                                                 ",
"                                                                                                                                ",
"                                                                                                                                ",
"                                                                                                                                ",
"                                                                                                                                "
};
