/* XPM */
static char *_3_left021671529271[] = {
/* columns rows colors chars-per-pixel */
"64 64 15 1 ",
"  c None",
". c black",
"X c #603000",
"o c #604000",
"O c #284858",
"+ c #C01020",
"@ c #904020",
"# c #C85828",
"$ c #F87838",
"% c #F8B810",
"& c #D8A830",
"* c #F0D070",
"= c #408080",
"- c #A0A0A0",
"; c #D8D8F8",
/* pixels */
"                                                                ",
"                                                                ",
"                                                                ",
"                                                                ",
"                                                                ",
"                                                                ",
"                                                                ",
"                                                                ",
"                                                                ",
"                              XXXXXX                            ",
"                              XXXXXX                            ",
"                          XXXX####XX                            ",
"                          XXXX####XX                            ",
"                    XXXXXX####XXXX                              ",
"                    XXXXXX####XXXX                              ",
"                XXXX$$$$####XXXXXX....                          ",
"                XXXX$$$$####XXXXXX....                          ",
"              XX$$$$$$$$XXXX##$$$$$$..XX                        ",
"              XX$$$$$$$$XXXX##$$$$$$..XX                        ",
"      XXXXXXXX$$$$$$$$$$$$$$$$##XXXX@@@@XX                      ",
"      XXXXXXXX$$$$$$$$$$$$$$$$##XXXX@@@@XX                      ",
"    XX$$$$$$##$$$$$$$$$$##@@XXXXXX....@@@@XX                    ",
"    XX$$$$$$##$$$$$$$$$$##@@XXXXXX....@@@@XX                    ",
"    XX$$$$$$$$$$$$##--######@@XX..$$$$....XX            ++      ",
"    XX$$$$$$$$$$$$##--######@@XX..$$$$....XX            ++      ",
"    ..$$##$$$$@@OO;;;;##$$####..XXXX##$$$$..        ++++        ",
"    ..$$##$$$$@@OO;;;;##$$####..XXXX##$$$$..        ++++        ",
"    ..##$$$$$$$$==;;##$$$$####..XX..##OO##$$..    ++++          ",
"    ..##$$$$$$$$==;;##$$$$####..XX..##OO##$$..    ++++          ",
"      ..--##$$$$$$$$$$$$######@@....##OO==##$$..  ++++++        ",
"      ..--##$$$$$$$$$$$$######@@....##OO==##$$..  ++++++        ",
"        ....XX##$$$$$$@@######XXXX##OOOO====$$..  ++++%%++      ",
"        ....XX##$$$$$$@@######XXXX##OOOO====$$..  ++++%%++      ",
"              ....XX@@############OOOOOO====##$$..++++++%%++    ",
"              ....XX@@############OOOOOO====##$$..++++++%%++    ",
"                    oo&&########OOOOOOOO==OO==$$..++++++%%++    ",
"                    oo&&########OOOOOOOO==OO==$$..++++++%%++    ",
"                    oo&&@@$$@@####OO  OOOO  ..$$..  ++%%%%++    ",
"                    oo&&@@$$@@####OO  OOOO  ..$$..  ++%%%%++    ",
"                  oo**XX$$##XX######XXOO      ....  ++%%++++    ",
"                  oo**XX$$##XX######XXOO      ....  ++%%++++    ",
"                  oo**XX$$XX$$$$####@@XX          XXXX++++      ",
"                  oo**XX$$XX$$$$####@@XX          XXXX++++      ",
"                  oo**@@XX$$$$$$$$######@@XXXXXXXX####XX        ",
"                  oo**@@XX$$$$$$$$######@@XXXXXXXX####XX        ",
"                  oo&&**##$$$$$$$$##@@##############XX          ",
"                  oo&&**##$$$$$$$$##@@##############XX          ",
"                    oo&&@@##$$$$####XX##########@@XX            ",
"                    oo&&@@##$$$$####XX##########@@XX            ",
"                      ooXXXX@@@@##@@..####@@XXXXXX              ",
"                      ooXXXX@@@@##@@..####@@XXXXXX              ",
"                          XX..--####..XXXXXX                    ",
"                          XX..--####..XXXXXX                    ",
"                              ......                            ",
"                              ......                            ",
"                                                                ",
"                                                                ",
"                                                                ",
"                                                                ",
"                                                                ",
"                                                                ",
"                                                                ",
"                                                                ",
"                                                                "
};
