/* XPM */
static char *_3_right021671529272[] = {
/* columns rows colors chars-per-pixel */
"64 64 15 1 ",
"  c None",
". c black",
"X c #603000",
"o c #604000",
"O c #284858",
"+ c #C01020",
"@ c #904020",
"# c #C85828",
"$ c #F87838",
"% c #F8B810",
"& c #D8A830",
"* c #F0D070",
"= c #408080",
"- c #A0A0A0",
"; c #D8D8F8",
/* pixels */
"                                                                ",
"                                                                ",
"                                                                ",
"                                                                ",
"                                                                ",
"                                                                ",
"                                                                ",
"                                                                ",
"                                                                ",
"                            XXXXXX                              ",
"                            XXXXXX                              ",
"                            XX####XXXX                          ",
"                            XX####XXXX                          ",
"                              XXXX####XXXXXX                    ",
"                              XXXX####XXXXXX                    ",
"                          ....XXXXXX####$$$$XXXX                ",
"                          ....XXXXXX####$$$$XXXX                ",
"                        XX..$$$$$$##XXXX$$$$$$$$XX              ",
"                        XX..$$$$$$##XXXX$$$$$$$$XX              ",
"                      XX@@@@XXXX##$$$$$$$$$$$$$$$$XXXXXXXX      ",
"                      XX@@@@XXXX##$$$$$$$$$$$$$$$$XXXXXXXX      ",
"                    XX@@@@....XXXXXX@@##$$$$$$$$$$##$$$$$$XX    ",
"                    XX@@@@....XXXXXX@@##$$$$$$$$$$##$$$$$$XX    ",
"      ++            XX....$$$$..XX@@######--##$$$$$$$$$$$$XX    ",
"      ++            XX....$$$$..XX@@######--##$$$$$$$$$$$$XX    ",
"        ++++        ..$$$$##XXXX..####$$##;;;;OO@@$$$$##$$..    ",
"        ++++        ..$$$$##XXXX..####$$##;;;;OO@@$$$$##$$..    ",
"          ++++    ..$$##OO##..XX..####$$$$##;;==$$$$$$$$##..    ",
"          ++++    ..$$##OO##..XX..####$$$$##;;==$$$$$$$$##..    ",
"        ++++++  ..$$##==OO##....@@######$$$$$$$$$$$$##--..      ",
"        ++++++  ..$$##==OO##....@@######$$$$$$$$$$$$##--..      ",
"      ++%%++++  ..$$====OOOO##XXXX######@@$$$$$$##XX....        ",
"      ++%%++++  ..$$====OOOO##XXXX######@@$$$$$$##XX....        ",
"    ++%%++++++..$$##====OOOOOO############@@XX....              ",
"    ++%%++++++..$$##====OOOOOO############@@XX....              ",
"    ++%%++++++..$$==OO==OOOOOOOO########&&oo                    ",
"    ++%%++++++..$$==OO==OOOOOOOO########&&oo                    ",
"    ++%%%%++  ..$$..  OOOO  OO####@@$$@@&&oo                    ",
"    ++%%%%++  ..$$..  OOOO  OO####@@$$@@&&oo                    ",
"    ++++%%++  ....      OOXX######XX##$$XX**oo                  ",
"    ++++%%++  ....      OOXX######XX##$$XX**oo                  ",
"      ++++XXXX          XX@@####$$$$XX$$XX**oo                  ",
"      ++++XXXX          XX@@####$$$$XX$$XX**oo                  ",
"        XX####XXXXXXXX@@######$$$$$$$$XX@@**oo                  ",
"        XX####XXXXXXXX@@######$$$$$$$$XX@@**oo                  ",
"          XX##############@@##$$$$$$$$##**&&oo                  ",
"          XX##############@@##$$$$$$$$##**&&oo                  ",
"            XX@@##########XX####$$$$##@@&&oo                    ",
"            XX@@##########XX####$$$$##@@&&oo                    ",
"              XXXXXX@@####..@@##@@@@XXXXoo                      ",
"              XXXXXX@@####..@@##@@@@XXXXoo                      ",
"                    XXXXXX..####--..XX                          ",
"                    XXXXXX..####--..XX                          ",
"                            ......                              ",
"                            ......                              ",
"                                                                ",
"                                                                ",
"                                                                ",
"                                                                ",
"                                                                ",
"                                                                ",
"                                                                ",
"                                                                ",
"                                                                "
};
