/* XPM */
static char *candy_y1671636508[] = {
/* columns rows colors chars-per-pixel */
"64 64 215 2 ",
"   c None",
".  c #333232",
"X  c gray20",
"o  c #343230",
"O  c #353231",
"+  c #353331",
"@  c #343333",
"#  c #353431",
"$  c #353433",
"%  c #373432",
"&  c #363533",
"*  c #363534",
"=  c #373534",
"-  c #373634",
";  c #383531",
":  c #383634",
">  c #393735",
",  c #7B3026",
"<  c #6B5547",
"1  c #6B5548",
"2  c #6C5648",
"3  c #7C5F4D",
"4  c #7C5F4E",
"5  c #7D614C",
"6  c #7C604E",
"7  c #7D604E",
"8  c #7D614E",
"9  c #7D614F",
"0  c #6C635F",
"q  c #6D645E",
"w  c #6D6460",
"e  c #7B716B",
"r  c #7B706C",
"t  c #7C716D",
"y  c #7D726D",
"u  c #7E726C",
"i  c #7D726E",
"p  c #7E726E",
"a  c #CD1700",
"s  c #CE1800",
"d  c #CE1901",
"f  c #CE1A01",
"g  c #CE1A02",
"h  c #CF1B03",
"j  c #D11C03",
"k  c #D21D05",
"l  c #D41F07",
"z  c #D52108",
"x  c #D7230B",
"c  c #D6240C",
"v  c #DA3D00",
"b  c #D22B10",
"n  c #DE2A10",
"m  c #DC2B13",
"M  c #DE2C13",
"N  c #DB2C14",
"B  c #D5391D",
"V  c #D43A25",
"C  c #8B6B1C",
"Z  c #8C6A1C",
"A  c #B67013",
"S  c #E1470A",
"D  c #E25900",
"F  c #E96F00",
"G  c #E9640B",
"H  c #E97000",
"J  c #EB7303",
"K  c #EF7707",
"L  c #E97800",
"P  c #EF7909",
"I  c #D74326",
"U  c #D55232",
"Y  c #DB5B3B",
"T  c #DE5C3C",
"R  c #DE5C3D",
"E  c #946F57",
"W  c #946F58",
"Q  c #956F58",
"!  c #A77A5D",
"~  c #A6795E",
"^  c #837572",
"/  c #AD746B",
"(  c #DE6443",
")  c #DE6C4A",
"_  c #DB6352",
"`  c #DC6453",
"'  c #DC6554",
"]  c #DD6755",
"[  c #DE7754",
"{  c #DE7C58",
"}  c #E47261",
"|  c #E07F6E",
" . c #B28636",
".. c #E98200",
"X. c #F5A800",
"o. c #FBB101",
"O. c #FDB000",
"+. c #FDB200",
"@. c #FEB200",
"#. c #FEB500",
"$. c #FDB402",
"%. c #FDBE00",
"&. c #FDBF00",
"*. c #FEBF00",
"=. c #F8B818",
"-. c #F39F2B",
";. c #EFBD37",
":. c #EFBB38",
">. c #F0BC31",
",. c #F1BE30",
"<. c #FEC102",
"1. c #FEC500",
"2. c #FEC700",
"3. c #FEC800",
"4. c #FBC80A",
"5. c #FED100",
"6. c #FED300",
"7. c #FDD401",
"8. c #FED400",
"9. c #FED500",
"0. c #FFD500",
"q. c #FFD501",
"w. c #FFD600",
"e. c #FFD402",
"r. c #FED502",
"t. c #FED503",
"y. c #FFD602",
"u. c #FFD603",
"i. c #FFD505",
"p. c #FBD10B",
"a. c #F9CC14",
"s. c #F6C71C",
"d. c #F6C81F",
"f. c #F8CA18",
"g. c #F8CB18",
"h. c #AB8D59",
"j. c #95877F",
"k. c #96877F",
"l. c #A5836F",
"z. c #BE8867",
"x. c #DE845E",
"c. c #EBB442",
"v. c #ECB541",
"b. c #ECB542",
"n. c #E6AA55",
"m. c #E8AF50",
"M. c #E5AA58",
"N. c #EEBA50",
"B. c #EFBA50",
"V. c #EBBE52",
"C. c #DE8963",
"Z. c #DF9D6F",
"A. c #DE8B70",
"S. c #DB9A71",
"D. c #DB9A72",
"F. c #DB9B73",
"G. c #DC9A72",
"H. c #DC9B72",
"J. c #DC9B73",
"K. c #DD9B73",
"L. c #DE9C71",
"P. c #DE9C72",
"I. c #DE9C73",
"U. c #DE9C74",
"Y. c #DE9D75",
"T. c #E18071",
"R. c #C8A464",
"E. c #F9D258",
"W. c #EACB6A",
"Q. c #F6D173",
"!. c #948680",
"~. c #A58D81",
"^. c #BD9C8A",
"/. c #C39881",
"(. c #DCA484",
"). c #DDA685",
"_. c #DAAB90",
"`. c #DDAD90",
"'. c #DCAC92",
"]. c #DDAE93",
"[. c #DBB19B",
"{. c #DCB29C",
"}. c #DDB39D",
"|. c #E5B59F",
" X c #EBADA3",
".X c #E6B7A0",
"XX c #E6B8A1",
"oX c #DBC3B7",
"OX c #D9C1B9",
"+X c #DBC3BA",
"@X c #DCC3B8",
"#X c #DBC4B8",
"$X c #DCC4BB",
"%X c #F7DCA5",
"&X c #EDC8BF",
"*X c #EDCAC0",
"=X c #EECAC1",
"-X c #EFCCC3",
";X c #EECBC4",
":X c #EECDC4",
">X c #EECDC6",
",X c #EFCEC6",
"<X c #F0CFC7",
"1X c #F5E1DD",
"2X c #F6E3DE",
"3X c #F7E7E2",
"4X c #F7E8E3",
"5X c #F7E9E6",
"6X c #F8E9E5",
"7X c #F8EAE6",
"8X c #F9EAE7",
"9X c #FEFEFC",
"0X c #FEFEFD",
"qX c #FEFEFE",
"wX c white",
/* pixels */
"                                                                                                                                ",
"                                                                                                                                ",
"                                                                                                                                ",
"                                                                                                                                ",
"                                                                                                                                ",
"                                                                                                                                ",
"                                                                                                                                ",
"                                                                                                                                ",
"                                                                                                                                ",
"                                                                                                                                ",
"                                                                                                                                ",
"                                                                                                                                ",
"                                                                                                                                ",
"                                                      $ $ O + O $ $ O O +                                                       ",
"                                                      ; ; O O O # # O O +                                                       ",
"                                                      % O O O O # # # O +                                                       ",
"                                          $ $ $ X X , N N P $.O.e.w.3.#.#.C # # $ X $                                           ",
"                                          : : : X X , N N P $.$.e.w.3.#.#.C # # X $ X                                           ",
"                                          2 9 9 ^ ^ / } } -.<.<.e.e.4.=.=. .5 5 3 3 1                                           ",
"                                      $ $ W F.J.>X>X>X<X<XE.i.i.7.e.g.;.>.M.I.Z.K.K.Q $ -                                       ",
"                                      $ $ Q F.F.>X>X>X<X<XE.i.i.e.7.f.;.:.M.J.J.K.K.Q - $                                       ",
"                                $ $ < E Q /.XXXX5X8X8X8X8X%XQ.Q.7.w.p.f.g.:.m.m.K.J.z.Q Q 2 + .                                 ",
"                                $ $ 6 S.J.XX:X:X9X9X9X9X9X3X<X>Xi.7.w.w.w.d.;.;.Z.I.G.G.G.3 . +                                 ",
"                                $ $ 6 S.Z.|.:X:X9X9X9X9X9X1X>X;X7.i.7.w.w.d.;.>.I.I.J.U.G.3 . +                                 ",
"                                $ $ 9 G.S.|.*X*X9X9X9X9X9X3X;X;Xi.w.w.w.w.w.w.w.;.;.m.J.I.9 $ $                                 ",
"                                - - 9 S.S.|.*X*X9X9X9X9X9X1X;X;Xu.i.w.w.w.w.w.w.;.;.m.J.Z.9 $ $                                 ",
"                                9 9 ~ G.Z.A.| T.3X3X5X7X7X X| | w.e.e.w.w.w.w.w.d.d.v.J.I.! 9 9                                 ",
"                          $ $ $ Z.G.J.J.J.U g g &X*X*X;X;X] k g e.7.e.w.w.w.w.w.w.w.,.Z.Z.Z.G.J.. . +                           ",
"                          $ $ $ Z.S.G.U.J.U g g &X&X<X<X&X` j g 3.e.7.w.w.w.w.w.w.w.,.Z.Z.Z.J.J.. . .                           ",
"                          $ $ $ S.S.G.K.J.U g g _ _ _ ' ` V a j <.%.2.w.7.w.w.w.w.w.a.,.,.n.I.I.. . .                           ",
"                          $ $ $ S.S.S.K.I.U j g a s s s j s s s o.o.%.7.e.w.w.w.w.w.w.w.w.v.Z.I.. . .                           ",
"                          $ $ $ S.S.S.G.I.U g g s s s s a a s s O.O.%.e.7.e.w.w.w.w.w.w.w.v.J.J.. . .                           ",
"                          $ $ $ G.G.G.U.I.{ ( ( s s s s s s s s a g D O.O.1.e.e.w.w.w.w.w.c.J.I.$ . .                           ",
"                          $ $ $ G.G.G.G.J.{ ( ( s s s a s s s s a a D O.O.2.e.e.w.w.w.w.w.c.J.J.O . .                           ",
"                          - : : _._.(.G.I.C.{ { z z l a s s s s g g v F F X.e.e.w.w.w.w.w.V.`.`.$ $ $                           ",
"                          > > > OXOX{.I.I.I.I.I.M M x s s s s s a a a s a ..e.3.w.w.7.7.7.W.#X#X: : :                           ",
"                          > > > OXOX{.K.J.I.I.I.M M x s s s s s s s s s g ..e.3.w.w.7.7.w.W.#X#X: : :                           ",
"                                e e l.G.J.G.J.J.) ) R I I b s s s s s s g L <.<.e.w.s.c.c.h.e e                                 ",
"                                $ $ 9 S.G.U.G.U.I.J.x.( ( B g a s s s s a F o.$.e.e.,.I.G.9 . .                                 ",
"                                $ - 3 S.G.G.U.G.I.G.x.( ( B a a s s s s a F $.$.e.e.,.J.G.3 . +                                 ",
"                                : : i OXOX'.K.K.Y.Y.K.K.K.R M M s s s a a F $.$.$.$.B.oXoXt ; :                                 ",
"                                > : i $XOX'.U.U.Y.Y.Y.K.K.R M M s s s a a F $.O.$.$.B.oXoXt > :                                 ",
"                                > > w !.!.^.].'.].].).K.K.[ R R g a j l l J O.$.B.B.R.k.k.q : :                                 ",
"                                      > : !.OXOX$X$X}.Y.K.Y.Y.Y.g j z n n K o.o.@X@Xk.% :                                       ",
"                                      > > !.$XOX$X$X}.K.K.Y.Y.Y.g g l n n K $.o.@X@Xk.- :                                       ",
"                                          w i i i i ~.{.{.{.}.}.c z S K K A Z Z t t w                                           ",
"                                          > : : - $ r OX$X$X$X$XM M G o.o.Z $ ; : - $                                           ",
"                                          > > > $ X r OXOX$X$X$XM N G o.o.Z ; ; - $ -                                           ",
"                                                      > > - - $ - $ - $ -                                                       ",
"                                                      > > - - - $ - $ - -                                                       ",
"                                                      > > - - - - $ - - -                                                       ",
"                                                                                                                                ",
"                                                                                                                                ",
"                                                                                                                                ",
"                                                                                                                                ",
"                                                                                                                                ",
"                                                                                                                                ",
"                                                                                                                                ",
"                                                                                                                                ",
"                                                                                                                                ",
"                                                                                                                                ",
"                                                                                                                                ",
"                                                                                                                                ",
"                                                                                                                                "
};
