/* XPM */
static char *down1673351177[] = {
/* columns rows colors chars-per-pixel */
"64 64 13 1 ",
"  c None",
". c black",
"X c #101010",
"o c #503818",
"O c #403830",
"+ c #786850",
"@ c #A82050",
"# c #B05850",
"$ c #D89018",
"% c #F8C820",
"& c #D8B040",
"* c #F0D880",
"= c #E8E8F8",
/* pixels */
"                                                                ",
"                                                                ",
"                                                                ",
"                                                                ",
"                                                                ",
"                                                                ",
"                                                                ",
"                                                                ",
"                                                                ",
"                                                                ",
"                                                                ",
"                                                                ",
"                                                                ",
"                                                                ",
"                                                                ",
"                                                                ",
"                  ....    ..        ..    ....                  ",
"                  ....    ..        ..    ....                  ",
"                ..++++....**oo    oo**....++++..                ",
"                ..++++....**oo    oo**....++++..                ",
"                ooOO##++..**......oo**..++##OOoo                ",
"                ooOO##++..**......oo**..++##OOoo                ",
"                ooOO##@@OO&&..%%$$..&&OO@@##OOoo                ",
"                ooOO##@@OO&&..%%$$..&&OO@@##OOoo                ",
"                  ..@@@@**&&..$$$$..&&**@@@@..                  ",
"                  ..@@@@**&&..$$$$..&&**@@@@..                  ",
"                  oo..&&****..%%$$..****&&..oo                  ",
"                  oo..&&****..%%$$..****&&..oo                  ",
"                oo************....************oo                ",
"                oo************....************oo                ",
"                  oo&&oo....********....oo&&oo                  ",
"                  oo&&oo....********....oo&&oo                  ",
"                oo****..==++oo****oo++==..****oo                ",
"                oo****..==++oo****oo++==..****oo                ",
"                  oo&&**==..&&****&&..==**&&oo                  ",
"                  oo&&**==..&&****&&..==**&&oo                  ",
"                    XXXXoo************ooXX..oo                  ",
"                    XXXXoo************ooXX..oo                  ",
"                  oo..**&&XXXXXXXXXXXX&&****..                  ",
"                  oo..**&&XXXXXXXXXXXX&&****..                  ",
"                  ..****..**********&&oo....                    ",
"                  ..****..**********&&oo....                    ",
"                    ....oo&&&&&&&&&&**&&..                      ",
"                    ....oo&&&&&&&&&&**&&..                      ",
"                          oo......oo&&oo                        ",
"                          oo......oo&&oo                        ",
"                                  ....                          ",
"                                  ....                          ",
"                                                                ",
"                                                                ",
"                                                                ",
"                                                                ",
"                                                                ",
"                                                                ",
"                                                                ",
"                                                                ",
"                                                                ",
"                                                                ",
"                                                                ",
"                                                                ",
"                                                                ",
"                                                                ",
"                                                                ",
"                                                                "
};
