/* XPM */
static char *right1673351177[] = {
/* columns rows colors chars-per-pixel */
"64 64 16 1 ",
"  c None",
". c black",
"X c #101010",
"o c #503818",
"O c #403830",
"+ c #504838",
"@ c #786850",
"# c #985018",
"$ c #A82050",
"% c #B05850",
"& c #D89018",
"* c #C88030",
"= c #F8C820",
"- c #D8B040",
"; c #F0D880",
": c #E8E8F8",
/* pixels */
"                                                                ",
"                                                                ",
"                                                                ",
"                                                                ",
"                                                                ",
"                                                                ",
"                                                                ",
"                                                                ",
"                                                                ",
"                                                                ",
"                                                                ",
"                                                                ",
"                                                                ",
"                                                                ",
"                                                                ",
"                                                                ",
"                                 oooo                           ",
"                                 oooo                           ",
"                               OO@@@@oo                         ",
"                               OO@@@@oo                         ",
"                             ....OO@@..oooo                     ",
"                             ....OO@@..oooo                     ",
"                           ..@@@@....;;..==..                   ",
"                           ..@@@@....;;..==..                   ",
"                           ..OO%%@@..;;..&&..                   ",
"                           ..OO%%@@..;;..&&..                   ",
"                           ..OO$$%%OO;;..&&..                   ",
"                           ..OO$$%%OO;;..&&..                   ",
"                             ..$$--;;;;;;ooOO                   ",
"                             ..$$--;;;;;;ooOO                   ",
"                           ..--;;;;;;oo..;;;;oo                 ",
"                           ..--;;;;;;oo..;;;;oo                 ",
"                   ....  ..;;@@;;;;;;::@@oo;;oo                 ",
"                   ....  ..;;@@;;;;;;::@@oo;;oo                 ",
"                 ..****oo@@@@--;;;;;;;;..----oo                 ",
"                 ..****oo@@@@--;;;;;;;;..----oo                 ",
"                 ..**oooo..;;..oo;;;;;;;;oooo                   ",
"                 ..**oooo..;;..oo;;;;;;;;oooo                   ",
"                 ..######....XXXXoooo....XX                     ",
"                 ..######....XXXXoooo....XX                     ",
"                   ....##;;oooo----oo;;oo                       ",
"                   ....##;;oooo----oo;;oo                       ",
"                       ..oo;;++;;XX----oo                       ",
"                       ..oo;;++;;XX----oo                       ",
"                           oo++XXoo**##XX                       ",
"                           oo++XXoo**##XX                       ",
"                                   XXXX                         ",
"                                   XXXX                         ",
"                                                                ",
"                                                                ",
"                                                                ",
"                                                                ",
"                                                                ",
"                                                                ",
"                                                                ",
"                                                                ",
"                                                                ",
"                                                                ",
"                                                                ",
"                                                                ",
"                                                                ",
"                                                                ",
"                                                                ",
"                                                                "
};
