/* XPM */
static char *up1673351178[] = {
/* columns rows colors chars-per-pixel */
"64 64 10 1 ",
"  c None",
". c black",
"X c #101010",
"o c #503818",
"O c #786850",
"+ c #985018",
"@ c #D89018",
"# c #F8C820",
"$ c #D8B040",
"% c #F0D880",
/* pixels */
"                                                                ",
"                                                                ",
"                                                                ",
"                                                                ",
"                                                                ",
"                                                                ",
"                                                                ",
"                                                                ",
"                                                                ",
"                                                                ",
"                                                                ",
"                                                                ",
"                                                                ",
"                                                                ",
"                                                                ",
"                                                                ",
"                          oo        oo                          ",
"                          oo        oo                          ",
"                        oo%%oo    oo%%oo                        ",
"                        oo%%oo    oo%%oo                        ",
"                    ....oo%%oo....oo%%oo....                    ",
"                    ....oo%%oo....oo%%oo....                    ",
"                  ..%%%%..$$..##@@..$$..%%%%..                  ",
"                  ..%%%%..$$..##@@..$$..%%%%..                  ",
"                  oo$$$$%%....oooo....%%$$$$oo                  ",
"                  oo$$$$%%....oooo....%%$$$$oo                  ",
"                  ooOO$$$$oo$$%%%%$$oo$$$$OOoo                  ",
"                  ooOO$$$$oo$$%%%%$$oo$$$$OOoo                  ",
"                oo$$OOoooo%%%%%%%%%%%%ooooOO$$oo                ",
"                oo$$OOoooo%%%%%%%%%%%%ooooOO$$oo                ",
"                  oo..$$%%%%%%%%%%%%%%%%$$..oo                  ",
"                  oo..$$%%%%%%%%%%%%%%%%$$..oo                  ",
"                oo%%$$$$%%%%......%%%%%%$$$$%%oo                ",
"                oo%%$$$$%%%%......%%%%%%$$$$%%oo                ",
"                  oooo..%%..++++++..%%%%..oooo                  ",
"                  oooo..%%..++++++..%%%%..oooo                  ",
"                      XX....++oo++..$$..XX$$$$                  ",
"                      XX....++oo++..$$..XX$$$$                  ",
"                  $$$$%%oo..++oo......$$oo%%XX                  ",
"                  $$$$%%oo..++oo......$$oo%%XX                  ",
"                  XX%%%%$$oo%%oo$$%%$$ooXXXX                    ",
"                  XX%%%%$$oo%%oo$$%%$$ooXXXX                    ",
"                    XXXXoo$$oo%%..$$%%$$                        ",
"                    XXXXoo$$oo%%..$$%%$$                        ",
"                          XXoo%%%%oo$$oo                        ",
"                          XXoo%%%%oo$$oo                        ",
"                              XXXXooXX                          ",
"                              XXXXooXX                          ",
"                                                                ",
"                                                                ",
"                                                                ",
"                                                                ",
"                                                                ",
"                                                                ",
"                                                                ",
"                                                                ",
"                                                                ",
"                                                                ",
"                                                                ",
"                                                                ",
"                                                                ",
"                                                                ",
"                                                                ",
"                                                                "
};
