/* XPM */
static char *_1_left021671529027[] = {
/* columns rows colors chars-per-pixel */
"64 64 10 1 ",
"  c None",
". c black",
"X c #604020",
"o c #284858",
"O c #E02828",
"+ c #F88838",
"@ c #D8A830",
"# c #F8C038",
"$ c #F0D070",
"% c #E8E8F8",
/* pixels */
"                                                                ",
"                                                                ",
"                                                                ",
"                                                                ",
"                                                                ",
"                                                                ",
"                                                                ",
"                                                                ",
"                                                                ",
"                                                                ",
"                                                                ",
"                                                                ",
"                                                                ",
"                                                                ",
"                                                                ",
"                                                                ",
"                      XXXXXXXX                                  ",
"                      XXXXXXXX                                  ",
"                    XX########XX            OO                  ",
"                    XX########XX            OO                  ",
"                  XX############XX          OO                  ",
"                  XX############XX          OO                  ",
"                  ++############XX          OOOO                ",
"                  ++############XX          OOOO                ",
"                XX##++############XX      OOOOOO                ",
"                XX##++############XX      OOOOOO                ",
"                XX##++%%##########XX      OO$$OOOO              ",
"                XX##++%%##########XX      OO$$OOOO              ",
"              XX######oo##########XX      OO$$$$OO              ",
"              XX######oo##########XX      OO$$$$OO              ",
"              ..######oo############XX      OO$$XX              ",
"              ..######oo############XX      OO$$XX              ",
"                ..++######XX++######XX      XX++..              ",
"                ..++######XX++######XX      XX++..              ",
"                  XX....XX++##++######XXXXXX++++..              ",
"                  XX....XX++##++######XXXXXX++++..              ",
"                      XX++####XX##########++++..                ",
"                      XX++####XX##########++++..                ",
"                      ........########++++++++..                ",
"                      ........########++++++++..                ",
"                        XX@@++####++++++++....                  ",
"                        XX@@++####++++++++....                  ",
"                        XX++++++++XXXX....                      ",
"                        XX++++++++XXXX....                      ",
"                          XX++++..XX                            ",
"                          XX++++..XX                            ",
"                          ......                                ",
"                          ......                                ",
"                                                                ",
"                                                                ",
"                                                                ",
"                                                                ",
"                                                                ",
"                                                                ",
"                                                                ",
"                                                                ",
"                                                                ",
"                                                                ",
"                                                                ",
"                                                                ",
"                                                                ",
"                                                                ",
"                                                                ",
"                                                                "
};
