/* XPM */
static char *_1_left041671529027[] = {
/* columns rows colors chars-per-pixel */
"64 64 10 1 ",
"  c None",
". c black",
"X c #604020",
"o c #284858",
"O c #E02828",
"+ c #F88838",
"@ c #D8A830",
"# c #F8C038",
"$ c #F0D070",
"% c #E8E8F8",
/* pixels */
"                                                                ",
"                                                                ",
"                                                                ",
"                                                                ",
"                                                                ",
"                                                                ",
"                                                                ",
"                                                                ",
"                                                                ",
"                                                                ",
"                                                                ",
"                                                                ",
"                                                                ",
"                                                                ",
"                                                                ",
"                                                                ",
"                     XXXXXXXX                                   ",
"                     XXXXXXXX                                   ",
"                   XX########XX                OO               ",
"                   XX########XX                OO               ",
"                 XX############XX            OOOO               ",
"                 XX############XX            OOOO               ",
"                 ++############XX            OO$$               ",
"                 ++############XX            OO$$               ",
"               XX##++############XX        OOOOOOOO             ",
"               XX##++############XX        OOOOOOOO             ",
"               XX##++%%##########XX        OO$$$$OO             ",
"               XX##++%%##########XX        OO$$$$OO             ",
"             XX######oo##########XX        OO$$OO               ",
"             XX######oo##########XX        OO$$OO               ",
"             ..######oo############XX        OOOO               ",
"             ..######oo############XX        OOOO               ",
"               ..++######XX++######XX      XX++..               ",
"               ..++######XX++######XX      XX++..               ",
"                 XX....XX++##++######XXXXXX++++..               ",
"                 XX....XX++##++######XXXXXX++++..               ",
"                     XX++####XX++########++++..                 ",
"                     XX++####XX++########++++..                 ",
"                     ........++######++++++++..                 ",
"                     ........++######++++++++..                 ",
"                       XX@@++++####++++++....                   ",
"                       XX@@++++####++++++....                   ",
"                         XX++++++++XX....                       ",
"                         XX++++++++XX....                       ",
"                           XXXX++++..                           ",
"                           XXXX++++..                           ",
"                             ......                             ",
"                             ......                             ",
"                                                                ",
"                                                                ",
"                                                                ",
"                                                                ",
"                                                                ",
"                                                                ",
"                                                                ",
"                                                                ",
"                                                                ",
"                                                                ",
"                                                                ",
"                                                                ",
"                                                                ",
"                                                                ",
"                                                                ",
"                                                                "
};
