/* XPM */
static char *_1_up021671529028[] = {
/* columns rows colors chars-per-pixel */
"64 64 7 1 ",
"  c None",
". c black",
"X c #604020",
"o c #E02828",
"O c #F88838",
"+ c #F8C038",
"@ c #F0D070",
/* pixels */
"                                                                ",
"                                                                ",
"                                                                ",
"                                                                ",
"                                                                ",
"                                                                ",
"                                                                ",
"                                                                ",
"                                                                ",
"                                                                ",
"                                                                ",
"                                                                ",
"                                                                ",
"                                                                ",
"                                                                ",
"                           XXXXXXXXXX                           ",
"                           XXXXXXXXXX                           ",
"                         XX++++++++++XX                         ",
"                         XX++++++++++XX                         ",
"                       XXOO++++++++++OOXX                       ",
"                       XXOO++++++++++OOXX                       ",
"                       XX++++++++++++++XX                       ",
"                       XX++++++++++++++XX                       ",
"                       XX++++++oo++++++XX                       ",
"                       XX++++++oo++++++XX                       ",
"                     XXOO++++++oo++++++OOXX                     ",
"                     XXOO++++++oo++++++OOXX                     ",
"                     ..OO++++++oooo++++OO..                     ",
"                     ..OO++++++oooo++++OO..                     ",
"                     ..OOOO++oooooo++OOOO..                     ",
"                     ..OOOO++oooooo++OOOO..                     ",
"                       ..OO++oo@@oo++OO..                       ",
"                       ..OO++oo@@oo++OO..                       ",
"                         ..++oo@@@@++..                         ",
"                         ..++oo@@@@++..                         ",
"                       ..++++oooo@@XX++..                       ",
"                       ..++++oooo@@XX++..                       ",
"                       ..++++++XX++XX++..                       ",
"                       ..++++++XX++XX++..                       ",
"                     XXOO++++++XX++XX++OOXX                     ",
"                     XXOO++++++XX++XX++OOXX                     ",
"                     XXOOOO++XX++++..++OOXX                     ",
"                     XXOOOO++XX++++..++OOXX                     ",
"                       ..OOOOXXOOOO..OOOOXX                     ",
"                       ..OOOOXXOOOO..OOOOXX                     ",
"                         ....XX....OOOO..                       ",
"                         ....XX....OOOO..                       ",
"                                   ....                         ",
"                                   ....                         ",
"                                                                ",
"                                                                ",
"                                                                ",
"                                                                ",
"                                                                ",
"                                                                ",
"                                                                ",
"                                                                ",
"                                                                ",
"                                                                ",
"                                                                ",
"                                                                ",
"                                                                ",
"                                                                ",
"                                                                "
};
