/* XPM */
static char *left1673351253[] = {
/* columns rows colors chars-per-pixel */
"64 64 254 2 ",
"   c None",
".  c black",
"X  c #040404",
"o  c #050506",
"O  c #09060D",
"+  c #09080B",
"@  c #0B090C",
"#  c #0C0C0E",
"$  c #1D0C02",
"%  c #0F0F12",
"&  c #100B19",
"*  c #110C1A",
"=  c #111016",
"-  c #141319",
";  c #171619",
":  c #18181C",
">  c #19181C",
",  c #1A191C",
"<  c #1A181E",
"1  c #221C19",
"2  c #3C2418",
"3  c #1C1B20",
"4  c #1F152E",
"5  c #291C3D",
"6  c #212126",
"7  c #242327",
"8  c #24222E",
"9  c #27262C",
"0  c #292930",
"q  c #2A2930",
"w  c #2E213F",
"e  c #2E2B3B",
"r  c #303038",
"t  c #323038",
"y  c #35333E",
"u  c #453024",
"i  c #4F423B",
"p  c #5D4638",
"a  c #604536",
"s  c #66433A",
"d  c #784830",
"f  c #302440",
"g  c #373045",
"h  c #3D3B42",
"j  c #382653",
"k  c #403C4E",
"l  c #483A4C",
"z  c #523B4B",
"x  c #403850",
"c  c #413952",
"v  c #483C5D",
"b  c #493C5F",
"n  c #493D5F",
"m  c #402C60",
"M  c #4B3F60",
"N  c #4C3F60",
"B  c #4C3E65",
"V  c #4E3D6C",
"C  c #304C61",
"Z  c #385870",
"A  c #42404A",
"S  c #464259",
"D  c #48445C",
"F  c #4C485F",
"G  c #5D445B",
"H  c #594D5E",
"J  c #56525F",
"K  c #784040",
"L  c #795245",
"P  c #785B4B",
"I  c #7C685C",
"U  c #4C4060",
"Y  c #56456F",
"T  c #5D496E",
"R  c #585664",
"E  c #5C5C65",
"W  c #5E5A6C",
"Q  c #534272",
"!  c #544274",
"~  c #5C4A76",
"^  c #5A457D",
"/  c #605C68",
"(  c #605D6C",
")  c #615D6C",
"_  c #636070",
"`  c #686474",
"'  c #6B6B75",
"]  c #7B6871",
"[  c #72727B",
"{  c #74747C",
"}  c #BB4C0E",
"|  c #D85810",
" . c #975C4F",
".. c #895450",
"X. c #A46C5E",
"o. c #A86C58",
"O. c #A1735B",
"+. c #B37A65",
"@. c #A38979",
"#. c #B88C74",
"$. c #C18A72",
"%. c #D09571",
"&. c #D89870",
"*. c #DCA07A",
"=. c #573C83",
"-. c #5D408B",
";. c #614C80",
":. c #634E81",
">. c #644F81",
",. c #604888",
"<. c #684C88",
"1. c #6A518E",
"2. c #6C548C",
"3. c #735B8B",
"4. c #604290",
"5. c #644596",
"6. c #6C4E9C",
"7. c #6F509A",
"8. c #6E519B",
"9. c #716988",
"0. c #736D88",
"q. c #777386",
"w. c #7F7989",
"e. c #786896",
"r. c #7D6099",
"t. c #7C6C9C",
"y. c #6C4AA1",
"u. c #6F4CA6",
"i. c #714EA9",
"p. c #734FAD",
"a. c #7759A0",
"s. c #7C5EA2",
"d. c #7450AE",
"f. c #7754B1",
"g. c #7A56B2",
"h. c #7C56B8",
"j. c #7E6CA2",
"k. c #806F99",
"l. c #8C68B8",
"z. c #8F6ABC",
"x. c #9068BF",
"c. c #927FB8",
"v. c #A67EBD",
"b. c #8058C0",
"n. c #8159C0",
"m. c #825AC1",
"M. c #835BC1",
"N. c #845CC1",
"B. c #8860C3",
"V. c #8A62C3",
"C. c #8C64C4",
"Z. c #8D65C4",
"A. c #8E66C5",
"S. c #976FC1",
"D. c #9068C5",
"F. c #916BC4",
"G. c #926AC6",
"H. c #936BC6",
"J. c #946CC7",
"K. c #956DC7",
"L. c #966EC7",
"P. c #976FC8",
"I. c #9774CF",
"U. c #9870C8",
"Y. c #9B74CB",
"T. c #9C77CC",
"R. c #9C7CD4",
"E. c #A57DC6",
"W. c #A07CD0",
"Q. c #9C8484",
"!. c #948E8C",
"~. c #898499",
"^. c #8E889E",
"/. c #989494",
"(. c #A68996",
"). c #B99C95",
"_. c #BDA097",
"`. c #9C96AE",
"'. c #9E9EA9",
"]. c #9088B8",
"[. c #9D98B0",
"{. c #9A92B8",
"}. c #9B93BA",
"|. c #9991BF",
" X c #A19BB4",
".X c #BC94BC",
"XX c #96A8B0",
"oX c #95AAB1",
"OX c #BBAEAE",
"+X c #AEABBD",
"@X c #ADACBC",
"#X c #CCA28A",
"$X c #C5A69B",
"%X c #E0A084",
"&X c #C4A8A1",
"*X c #CFA7BF",
"=X c #DAB2BA",
"-X c #E8C0B9",
";X c #EAC2B9",
":X c #F0D0BB",
">X c #F1D0BC",
",X c #F8D0B8",
"<X c #9B94C0",
"1X c #9C95C1",
"2X c #9F97C0",
"3X c #A699C8",
"4X c #A380D3",
"5X c #A686D7",
"6X c #A786D7",
"7X c #A385D8",
"8X c #A689DB",
"9X c #A888D8",
"0X c #A892D3",
"qX c #AE91DE",
"wX c #B097DE",
"eX c #A8A0C4",
"rX c #A8A0C8",
"tX c #B1A9C8",
"yX c #B4ADC8",
"uX c #B6AECB",
"iX c #B6B0D2",
"pX c #BAB3D0",
"aX c #BCB4D9",
"sX c #BCB8D8",
"dX c #B094E0",
"fX c #B39BE1",
"gX c #B499E4",
"hX c #B49AE4",
"jX c #B59BE5",
"kX c #B79FE7",
"lX c #B8A0E8",
"zX c #C8A0C0",
"xX c #C0B8D0",
"cX c #C2BAD8",
"vX c #C7BFDE",
"bX c #C8C8D6",
"nX c #C6C3D8",
"mX c #C7C0DC",
"MX c #C0D0D0",
"NX c #C5D3D5",
"BX c #F6D3C1",
"VX c #CCC9E4",
"CX c #D0C8E8",
"ZX c #D3CCEA",
"AX c #D5D2E7",
"SX c #D7D6E6",
"DX c #D8D2ED",
"FX c #D9D4EE",
"GX c #DEDEED",
"HX c #E0DEF3",
"JX c #EDE0E4",
"KX c #E5E4F6",
"LX c #E7E7F7",
"PX c #E8E8F8",
/* pixels */
"                                                                                                                                ",
"                                                                                                                                ",
"                                                                                                                                ",
"                                                                                                                                ",
"                                          h x x x x h c c c j x x x x x x x                                                     ",
"                                          M M N U U M M M B v M b n n n n n                                                     ",
"                                        c -.h.G.U.U.U.b.b.b.b.b.b.b.b.b.b.b.x x                                                 ",
"                                      B ^ 8.V.J.U.U.U.b.b.b.b.b.b.b.b.b.b.b.! Q                                                 ",
"                                    x ! b.C.U.U.U.U.P.b.b.b.b.b.b.b.b.b.b.b.b.f.x x                                             ",
"                                x v ,.7.C.G.U.U.U.Z.Z.b.b.b.b.b.b.b.b.b.b.b.b.h.,.^ x                                           ",
"                                x B M.N.U.U.U.U.U.M.b.b.b.b.n.b.b.b.b.b.b.b.b.b.b.6.x                                           ",
"                                x N D.H.U.U.U.C.N.n.b.n.n.D.D.D.D.D.D.D.D.G.8X7XG.a.x                                           ",
"                                x N P.P.U.U.U.N.M.b.b.b.M.P.U.U.P.U.U.U.U.U.lXgXJ.s.x                                           ",
"                                x b M.M.N.N.N.n.n.J.J.L.L.U.U.U.U.U.U.U.dXgXlXkXgXwX0Xe.x                                       ",
"                                x B b.b.n.b.b.b.b.L.P.P.P.U.U.U.U.U.U.U.gXlXlXlXlXlXlXt.x                                       ",
"                                x x x x x ,.n.D.P.U.U.U.W.lXlXkX9XU.U.U.U.U.lXlXlXqXU.U.U.~ x x                                 ",
"                                x x v v v ,.f.D.T.T.T.T.W.lXkXkX7XP.U.U.U.U.gXfXlXqXU.U.U.Y g g                                 ",
"                                h M b.b.b.,.x c.lXlXlXlXlXlXkXkXR.h.G.U.U.U.U.T.lXqXU.U.U.f . .                                 ",
"                                z T v.v.E.k.V k.c.fXlXkXlXlXjXqXI.b.G.J.U.U.U.Y.qX6XU.J.G.w . .                                 ",
"                                K ..,X,XBX.XN.V x 0XlXkXlXlXwXP.C.b.G.U.U.U.U.U.U.U.U.C.b.5 . .                                 ",
"                                o.+.,X,X,X=X.Xv.Q.t.t.9X9X9X4XU.J.C.C.C.L.U.U.U.U.U.U.C.b.5 . .                                 ",
"                                &.&.,X,X,X,X,X,X,XH x S.U.U.U.U.P.U.B.b.J.U.U.U.U.U.U.C.b.5 . .                                 ",
"                                u a ,X,X,X,X,X,X,X$X$X~ >.U.U.U.U.U.1.! x.U.U.U.U.H.V.b.b.5 . .                                 ",
"                                X 1 ,X,X,X,X,X,X,X,X,Xx U U.U.U.U.U.~ x l.U.U.U.U.G.b.b.b.5 . .                                 ",
"                                X 1 ,X,X,X*XE.x.x.;X,Xx N U.U.U.U.U.~ x g.b.M.M.N.b.b.b.b.V g g                                 ",
"                                . 1 ,X,X,X*XU.V.N.;X,Xx N U.U.U.U.U.~ x g.b.b.b.b.b.b.b.b.! x x                                 ",
"                                K ..,X,X,X/.Z XXMX>X,Xx N U.P.P.C.b.5 . u.b.b.b.b.b.b.b.b.! x x                                 ",
"                                K ..,X,X,X!.C XXNX>X,Xx N K.K.K.C.b.5 . u.b.b.b.b.b.b.b.b.V g g                                 ",
"                                K ..,X,X,XI X '.PX,X,Xx b b.b.b.b.b.5 . u.b.b.b.b.b.b.b.b.5 . .                                 ",
"                                 .o.,X,X,X@.A OXJX&X_.~ ;.b.b.b.y.=.j 5 d.b.b.b.b.b.b.b.b.5 . .                                 ",
"                                &.&.,X,X,X,X,X,X,XR x P.K.b.b.b.m . =.b.b.b.b.b.b.b.b.b.b.5 . .                                 ",
"                                  %.#.#X,X,X,X).Q.3.2.P.K.b.b.b.m . =.b.b.b.b.b.b.b.b.4.m 4                                     ",
"                                    d O.,X,X,X] x l.U.U.J.b.b.b.m . =.b.b.b.b.b.b.b.b.j .                                       ",
"                                      a i P O.L s ~ ~ ^ >.G.8.5 m =.p.b.b.b.b.b.m.5.5 5                                         ",
"                                        . 2 d d d l h c U U.<.. m b.b.b.b.b.b.b.h.=..                                           ",
"                                                  @ + }.}.3X9.. O * -.b.b.b.b.i.* *                                             ",
"                                                  . . rX3XrX0.. . . =.b.b.b.b.u.. .                                             ",
"                                                  . . PXKXCXFXPX{ . . . . . . .                                                 ",
"                                                  $ $ PXKXZXFXLX[ . . . . . . .                                                 ",
"                                          CXCXA . } | PXPXLXHXCX` .                                                             ",
"                                          q.[.t . } | PXGX'.@XCX~.A 9                                                           ",
"                                        . , t % . } | PXbX. A CXCXCXA .                                                         ",
"                                        . : t % . $.%XPXAX` ` ` `.CX~.` , .                                                     ",
"                                        . : e % . bXPXPXLXCX^.. ` CXCXCX3 .                                                     ",
"                                          # % o . E ' PXLXHXnX^.` A R _ q 6 . .                                                 ",
"                                          . . . . q r PXLXLXHXCX` . 6 r r r . .                                                 ",
"                                              . .  XpX1X1X1X1X<XU . 6 r r r . .                                                 ",
"                                              . . yXCX].].].].].F . 6 r r r . .                                                 ",
"                                              CXCXCXCXCXCXCXCXCXCXCXA . . .                                                     ",
"                                              mXZXZXZXZXZXCXmXyXcXCXR 3 o .                                                     ",
"                                          . . '.PXLXPXPXLXCX^.. ` CXCXCX3 .                                                     ",
"                                          S e @XPXLXLXKXAX^.) . W aXaXaX, .                                                     ",
"                                    X e ].].].VXPXPXPXCXyX. . . S ].].].- .                                                     ",
"                                    X y eXeXeXiXsXsXsX` (   . . 8 D D D =                                                       ",
"                                    X h pXxXxX3X].].].X .     . . . . .                                                         ",
"                                      7 h k.xXuXtXh f                                                                           ",
"                                        . / xXxXxX, .                                                                           ",
"                                          - , , ,                                                                               ",
"                                          . . . .                                                                               ",
"                                          . . . .                                                                               ",
"                                                                                                                                ",
"                                                                                                                                ",
"                                                                                                                                ",
"                                                                                                                                "
};
