/* XPM */
static char *up1673351254[] = {
/* columns rows colors chars-per-pixel */
"64 64 165 2 ",
"   c None",
".  c black",
"X  c gray1",
"o  c #020204",
"O  c #040404",
"+  c #070707",
"@  c #090909",
"#  c gray4",
"$  c #0C0C0D",
"%  c #0C0C0E",
"&  c #0D0D0E",
"*  c #110C1A",
"=  c #101010",
"-  c #131313",
";  c #151515",
":  c #151516",
">  c #141319",
",  c #161618",
"<  c #17171B",
"1  c #1B1B1B",
"2  c #18181C",
"3  c #1E1E1F",
"4  c gray12",
"5  c #1C1B20",
"6  c #181824",
"7  c #291C3D",
"8  c #202022",
"9  c #202023",
"0  c #212125",
"q  c #212126",
"w  c #222228",
"e  c #252528",
"r  c #24242A",
"t  c #29292B",
"y  c #2B2B2D",
"u  c #202030",
"i  c #2C2637",
"p  c #2D2B35",
"a  c #29293E",
"s  c #302F37",
"d  c #303031",
"f  c #313134",
"g  c #303038",
"h  c #363639",
"j  c #36363D",
"k  c #37373F",
"l  c #35244F",
"z  c #372D49",
"x  c #303046",
"c  c #313147",
"v  c #3A3942",
"b  c #3D3D43",
"n  c #3C3B44",
"m  c #303048",
"M  c #3B334A",
"N  c #403850",
"B  c #473C5B",
"V  c #493C5F",
"C  c #4B3F5F",
"Z  c #402C60",
"A  c #442F67",
"S  c #4C3F60",
"D  c #49326D",
"F  c #404045",
"G  c #414147",
"H  c #46464B",
"J  c #4A4A4F",
"K  c #494952",
"L  c #4E4E52",
"P  c #424158",
"I  c #46455E",
"U  c #4A405D",
"Y  c #515159",
"T  c #55555B",
"R  c #4C4060",
"E  c #514368",
"W  c #545467",
"Q  c #5D5D61",
"!  c #584871",
"~  c #5C4A76",
"^  c #5D4B78",
"/  c #605078",
"(  c #606068",
")  c #65656F",
"_  c #656576",
"`  c #6B6B75",
"'  c #74747A",
"]  c #684C88",
"[  c #6C548C",
"{  c #797987",
"}  c #6F4CA6",
"|  c #7A5DA0",
" . c #7C5EA2",
".. c #7450AE",
"X. c #7C60A0",
"o. c #7F61A6",
"O. c #8666AF",
"+. c #8A67B5",
"@. c #8C68B8",
"#. c #8F6BBB",
"$. c #906BBD",
"%. c #8058C0",
"&. c #875FC2",
"*. c #8860C3",
"=. c #8C64C4",
"-. c #9068C5",
";. c #956DC7",
":. c #966EC7",
">. c #9870C8",
",. c #9A73CA",
"<. c #9C77CC",
"1. c #9D78CD",
"2. c #A07CD0",
"3. c #A27FD2",
"4. c #87878F",
"5. c #8C8C98",
"6. c #8E889E",
"7. c #90909B",
"8. c #928EA0",
"9. c #9590A7",
"0. c #9B9BA4",
"q. c #9993AB",
"w. c #9E9EA9",
"e. c #9088B8",
"r. c #9991BF",
"t. c #A2A1AD",
"y. c #A6A6B2",
"u. c #ADADBB",
"i. c #A888D8",
"p. c #AD90DD",
"a. c #AE91DE",
"s. c #AF93DF",
"d. c #B2AEC1",
"f. c #B5B1C6",
"g. c #B8B8C5",
"h. c #BDBDCA",
"j. c #BAB3D2",
"k. c #BDB6D5",
"l. c #BFBAD2",
"z. c #B094E0",
"x. c #B8A0E8",
"c. c #C0BBD4",
"v. c #C4BFD7",
"b. c #C1C1CE",
"n. c #C3C2D2",
"m. c #C8C8D6",
"M. c #C9C2DF",
"N. c #CECEDF",
"B. c #CEC6E5",
"V. c #CFCFE0",
"C. c #D0C8E8",
"Z. c #D2CBE9",
"A. c #D3CCEA",
"S. c #D4CDEB",
"D. c #D2D2E1",
"F. c #D7D1EC",
"G. c #D8D2ED",
"H. c #DDDDED",
"J. c #DCD8F0",
"K. c #E0DEF3",
"L. c #E3E3F2",
"P. c #E3E1F5",
"I. c #E5E4F6",
"U. c #E6E5F7",
"Y. c #E8E8F8",
/* pixels */
"                                                                                                                                ",
"                                                                                                                                ",
"                                                  N N N N N N       N N N N N N                                                 ",
"                                                  N N N N N N       N N N N N N                                                 ",
"                                                  S R R R R R       U U R R R R                                                 ",
"                                              N N @.>.>.>.>.X.M N N  .:.>.>.>.@.N N                                             ",
"                                              ! ~ $.>.>.>.>.O.U U U O.:.>.>.>.$.~ !                                             ",
"                                          N N  .>.>.>.>.>.>.O.~ / / O.>.>.>.>.>.>. .N                                           ",
"                                        N ^ [ +.>.>.>.>.>.>.$.X.X.X.$.>.>.>.>.>.>.+.[ ~ N                                       ",
"                                        N [ >.>.>.>.>.>.>.>.>.>.>.>.>.>.>.>.>.>.>.>.>.[ N                                       ",
"                                    N !  .+.>.>.>.>.>.>.>.>.>.>.>.>.>.>.>.>.>.>.>.>.>.+. .! N                                   ",
"                                    N ~ >.>.>.>.>.>.>.>.>.>.>.>.>.>.>.>.>.>.>.>.>.>.>.>.>.~ N                                   ",
"                                    N ~ >.>.>.>.>.>.>.>.>.>.>.>.>.>.>.>.>.>.>.>.>.>.>.>.>.~ N                                   ",
"                                    N ~ >.>.>.>.>.>.>.>.>.>.>.>.>.>.>.>.>.>.>.>.>.>.>.>.>.~ N                                   ",
"                                    N ~ >.>.<.p.z.<.>.>.>.>.>.>.>.>.>.>.>.>.>.<.x.p.>.>.>.~ N                                   ",
"                                    N ~ :.<.1.z.x.3.<.<.<.<.<.1.<.<.<.<.<.<.<.2.x.s.1.<.>.~ N                                   ",
"                                    N ~ >.i.x.x.x.x.x.x.x.x.x.x.x.x.x.x.x.x.x.x.x.x.x.i.>.~ N                                   ",
"                                    i E 3.p.x.x.x.s.p.p.p.s.p.s.z.p.p.z.p.p.p.z.x.x.x.p.3.E i                                   ",
"                                    . M x.x.x.x.x.1.>.>.>.>.>.>.>.>.>.>.>.>.>.1.x.x.x.x.x.M .                                   ",
"                                    . M x.z.i.i.i.>.>.>.>.>.>.>.>.>.>.>.>.>.>.>.i.i.i.z.x.M .                                   ",
"                                    . M x.i.>.>.>.>.>.>.>.>.>.>.>.>.>.>.>.>.>.>.>.>.>.i.x.M .                                   ",
"                              N N B ] | 3.1.>.>.>.>.>.>.>.>.>.>.>.>.>.>.>.>.>.>.>.>.>.1.3.| ] B N                               ",
"                              N N R >.>.>.>.>.>.>.>.>.>.>.>.>.>.>.>.>.>.>.>.>.>.>.>.>.>.>.>.>.R N                               ",
"                              N N R >.>.>.>.>.>.>.>.>.>.>.>.>.>.>.>.>.>.>.>.>.>.>.>.>.>.>.>.>.R N                               ",
"                              N N R >.>.>.>.>.>.>.>.>.>.>.>.>.>.>.>.>.>.>.>.>.>.>.>.>.>.>.>.>.S N                               ",
"                              N N V %.*.>.>.>.>.>.>.>.>.>.>.>.>.>.>.>.>.>.>.>.>.>.>.>.>.>.*.%.V N                               ",
"                              N N V %.&.:.:.>.>.>.>.>.>.>.>.>.>.>.>.>.>.>.>.>.>.>.>.>.:.:.&.%.V N                               ",
"                              N N V %.%.%.=.>.>.>.>.>.>.>.>.>.>.>.>.>.>.>.>.>.>.>.>.>.=.%.%.%.V N                               ",
"                              i i z %.%.%.*.-.:.>.>.>.>.>.>.>.>.>.>.>.>.>.>.>.>.>.:.-.*.%.%.%.z i                               ",
"                              . . * %.%.%.%.%.-.>.>.>.>.>.>.>.>.>.>.>.>.>.>.>.>.>.-.%.%.%.%.%.* .                               ",
"                              . . * %.%.%.%.%.*.=.=.=.=.=.=.=.=.=.=.=.=.=.=.=.=.=.*.%.%.%.%.%.* .                               ",
"                              . . * %.%.%.%.%.%.%.%.%.%.%.%.%.%.%.%.%.%.%.%.%.%.%.%.%.%.%.%.%.* .                               ",
"                              . . * %.%.%.%.%.A 7 ..%.%.%.%.%.%.%.%.%.%.%.%.%...7 A %.%.%.%.%.* .                               ",
"                              . . * %.%.%.%.%.7 . } %.%.%.%.%.%.%.%.%.%.%.%.%.} . 7 %.%.%.%.%.* .                               ",
"                              . . o * l %.D *     * * %.%.%.%.%.%.%.%.%.%.%.* *     * D %.l * o .                               ",
"                              . . . . 7 %.Z .     . . %.%.%.%.%.%.%.%.%.%.%.. .     . Z %.7 . . .                               ",
"                                    . . .     m m j.Z.. . . . . . . . . . . Y.V.m m   . . . .                                   ",
"                                    . . .     P R k.C.5 5 5 5 5 5 5 5 5 5 5 Y.V.a a     . . .                                   ",
"                                          . . 5.C.C.C.C.C.C.C.C.C.C.C.C.C.C.Y.m.. .                                             ",
"                                          r f 9.l.B.C.C.C.C.C.C.C.C.C.C.F.G.Y.D.J F                                             ",
"                                        . L 0.0.0.B.B.C.C.C.C.C.C.C.C.C.U.Y.Y.Y.Y.w..                                           ",
"                                    . + - h T 4.0.d.f.C.C.C.S.J.J.J.S.C.n.b.Y.L.b.5.6 u m                                       ",
"                                    . # 4 4 9 ' 0.0.0.C.C.A.G.Y.Y.Y.G.C.t.0.Y.H.0.{ m m m                                       ",
"                                    . # 4 4 4 y f f f C.C.J.P.Y.Y.Y.P.K.n.c.K T 0.7.{ W m                                       ",
"                                    . # 4 4 4 # . . . C.S.Y.Y.Y.Y.Y.Y.Y.A.C.. , 0.0.0._ m                                       ",
"                                        O O +     . . v n K K K K K K K n v . . : 3 d t 0 $ .                                   ",
"                                        . . .     . . w r g p g g g g g r w . . . # 4 4 4 # .                                   ",
"                                                  m m . , e.e.e.e.e.e.e.> .     . # 4 4 4 # .                                   ",
"                                                  c x 8 f r.r.r.r.r.r.r.p 5     . # 1 1 1 # .                                   ",
"                                              ( ( v g Y.U.C.C.C.C.C.C.C.C.C.. .     . . .                                       ",
"                                              F F ) ` Y.U.G.c.6.6.6.9.q.q.q.. .     . . .                                       ",
"                                              . . m.Y.Y.Y.Y.w.. . . 2 w w w . .                                                 ",
"                                              . . m.Y.Y.Y.Y.y.2 $ . , 9 9 9 . .                                                 ",
"                                              . . m.Y.Y.Y.Y.u.g 2 . : 3 4 3 . .                                                 ",
"                                                  H K Y.Y.Y.g.Y b   # # # #                                                     ",
"                                                  . . Y.Y.Y.h.(     . . . .                                                     ",
"                                                  . . K K K j $                                                                 ",
"                                                  . . g g g 0 .                                                                 ",
"                                                  . . 4 9 3 : .                                                                 ",
"                                                  . . 1 1 1 - .                                                                 ",
"                                                      . . . .                                                                   ",
"                                                      . . . .                                                                   ",
"                                                                                                                                ",
"                                                                                                                                "
};
