/* XPM */
static char *_1frame1673800128[] = {
/* columns rows colors chars-per-pixel */
"64 64 16 1 ",
"  c None",
". c #101010",
"X c #AD293A",
"o c #9C4200",
"O c #945A00",
"+ c #D65A3A",
"@ c #FF7352",
"# c #D6526B",
"$ c #CEA500",
"% c #DE9C3A",
"& c #FFD600",
"* c #F77B8C",
"= c #FFCE84",
"- c #FFEFB5",
"; c #E6E6E6",
": c white",
/* pixels */
"                    o                                           ",
"                   o=o         o                                ",
"                   o=o        o=o                               ",
"                   o=o        o=o                               ",
"              ...  o=o       o=o   ....                         ",
"             ......o=o $$$   o=o .......                        ",
"             ......o=o$&&:$  o=o........                        ",
"             ..+@..o=$&&:::$o=o....++...                        ",
"             ..+@@.o=$$$&&$$o=o...+@@...                        ",
"              ..@@@o=$&:::&$o=o..+@@@...                        ",
"              ..+@o==$$&&$$O%=o.++@@+...                        ",
"              ...o=-=$:::&&O==%%%%%@....                        ",
"         oo    ..o=--$$&$$$O-===%%%%...                         ",
"        .==ooo .o=---$&&&&O=--====%%%..                         ",
"         ..===ooo==o--$OOO----====%%%%.  oooo                   ",
"           ...=o==o;o--------ooo===%%%ooo====.                  ",
"              ..=%:o:o------o;::o==ooo===....                   ",
"         ooo   o=%:.:o-----o:o::;o====...                       ",
"        .===oooo=%:.;o=====o:.::;o==...                         ",
"         ...===o=%;.;o=====o:.:;;o==%%.  oooo                   ",
"            ....o=%%========%.;;ooooooooo====.                  ",
"                o%==o=========%%o===oo===....                   ",
"                 o%=%oo....oo==o==o===o..                       ",
"                 .%%%%:++@@:.==.=.==o==o                        ",
"                  ..%%o+@@@@o%%%..==o=%.                        ",
"               ooo  ..%o@@@o%%%%%=.....=.                       ",
"             oo===o   .%ooo%%%.====%.==.                        ",
"            o===o==o oo.%%%...=%%%%%.=%%                        ",
"           o==o==.=.o=o=...%%%%%%%%%%%..                        ",
"           .%=o==..==o======%%%%.o....                          ",
"            .....%%%=o=======%%%..                              ",
"              o%%%%%%o=======%%%.                               ",
"               oo%%%o========%%%.                               ",
"                 o..o=======%%%%o.                              ",
"                    o=======%%%%%.                              ",
"                    .%====%%%%%%%.              X XXX           ",
"                    .o%%%%%%%%%%%.            XX*****XX         ",
"                     .%%%%%%%%%%o.             #******X         ",
"                     .%%%%%%%%%o.%o           X#####***X        ",
"                     .%%o....o%%.%ooo         .##X#X#**         ",
"                    .o%%.    .%%o.%%o         ###X#X#**X        ",
"                    .%%.      .%%.%%%=o       .#######X         ",
"                 ooo==%.      .%%%..===o=o. . ...#.X#X          ",
"             XXXX##===%.       .%%%...====#######.##XX          ",
"            .##X#X#*==%%.     .%%===##...=*########.X           ",
"            .#X#X###*.=%.     .%===*#X#X#.#######..             ",
"             ..#.##.. ..       ...*###X#X#..... .               ",
"              .....               ..##.#.#.                     ",
"                                    ......                      ",
"                                                                ",
"                                                                ",
"                                                                ",
"                                                                ",
"                                                                ",
"                                                                ",
"                                                                ",
"                                                                ",
"                                                                ",
"                                                                ",
"                                                                ",
"                                                                ",
"                                                                ",
"                                                                ",
"                                                                "
};
