/* XPM */
static char *_frame1673800129[] = {
/* columns rows colors chars-per-pixel */
"64 64 16 1 ",
"  c None",
". c #101010",
"X c #AD293A",
"o c #9C4200",
"O c #945A00",
"+ c #D65A3A",
"@ c #FF7352",
"# c #D6526B",
"$ c #CEA500",
"% c #DE9C3A",
"& c #FFD600",
"* c #F77B8C",
"= c #FFCE84",
"- c #FFEFB5",
"; c #E6E6E6",
": c white",
/* pixels */
"                                                                ",
"                                                                ",
"                                                                ",
"                                                                ",
"                                                                ",
"                                                                ",
"                                                                ",
"                     o                                          ",
"                    o=o         o                               ",
"                    o=o        o=o                              ",
"                    o=o        o=o                              ",
"               ...  o=o       o=o   ....                        ",
"              ......o=o $$$   o=o .......                       ",
"              ......o=o$&&:$  o=o........                       ",
"              ..+@..o=$&&:::$o=o....++...                       ",
"              ..+@@.o=$$$&&$$o=o...+@@...                       ",
"               ..@@@o=$&:::&$o=o..+@@@...                       ",
"               ..+@o==$$&&$$O%=o.++@@+...                       ",
"               ...o=-=$:::&&O==%%%%%@....                       ",
"                ..o=--$$&$$$O-===%%%%...                        ",
"                .o=---$&&&&O=--====%%%..                        ",
"         ooo oo  o==o--$OOO----====%%%%.                        ",
"         .==o==oo==o;o--------ooo===%%%o                        ",
"         ...=..=.=%:o:o------o;::o==%%%.o   o                   ",
"            .. .o=%:.:o-----o:o::;o==ooo=oo==oo                 ",
"                o=%:.;o=====o:.::;o=====.==.===.                ",
"           oooooo=%;.;o=====o:.:;;o===..... ...                 ",
"          .======o=%%========%.;;o==%%%.                        ",
"           ......o%==o=========%%ooooooo  oo                    ",
"                  o%=%oo....oo===ooooo==oo==oo                  ",
"                 o.%%%%:++@@:.==o===ooo.==..==.                 ",
"               oo==..%%o+@@@@o%o==o====o.   ..   XXXX           ",
"             oo===o=o..%o@@@o%%o==oo=o==o      XX****X          ",
"             .==o==.=o .%ooo%%%.==.==o==.     X*******X         ",
"              %=o==.=.oo.%%%...%%..==o=%.    XX**###**          ",
"              .....%.==o=...%%%%%..=....=o   X###XXX##X         ",
"               o%%%%%=o======%%%%%%.....=.    X##X####          ",
"                oo%%%%o=======%%.o%%%o====.   .##X##X#X         ",
"                  o.%.o=======%%.o%%%%%%%.    .####.#.X         ",
"                   ..o========%%%...%%%%%     ...#..#.          ",
"                     o=======%%%%o. .....       .####.          ",
"                     o=======%%%%%.            ..###.           ",
"                     .%====%%%%%%%.          ..#####.           ",
"                     .o%%%%%%%%%%%.o    o ooo.####.             ",
"                      .%%%%%%%%%%o.%o%oooo===*##...             ",
"                      .%%%%%%%%%o..%%%%%======*#.               ",
"                      .%%o....oo%%....%.=%=%.. .                ",
"                     .o%%.     .%%o. .  .....                   ",
"                     .%%.       .%%.                            ",
"                 oooo==%.       .%%%.                           ",
"              XXX###===%%.       .%%%....                       ",
"             X#X#XX#*===%.      .%%===###...                    ",
"            .#X#X####*...       .%===*##X#X#.                   ",
"            .#.#.###..           ...*####X#X#.                  ",
"             .......                ..###.#.#.                  ",
"                                      .......                   ",
"                                                                ",
"                                                                ",
"                                                                ",
"                                                                ",
"                                                                ",
"                                                                ",
"                                                                ",
"                                                                "
};
