/* XPM */
static char *_frame1673800129[] = {
/* columns rows colors chars-per-pixel */
"64 64 16 1 ",
"  c None",
". c #101010",
"X c #AD293A",
"o c #9C4200",
"O c #945A00",
"+ c #D65A3A",
"@ c #FF7352",
"# c #D6526B",
"$ c #CEA500",
"% c #DE9C3A",
"& c #FFD600",
"* c #F77B8C",
"= c #FFCE84",
"- c #FFEFB5",
"; c #E6E6E6",
": c white",
/* pixels */
"                                                                ",
"                                                                ",
"                                                                ",
"                                                                ",
"                                                                ",
"                                                                ",
"                                                                ",
"                                                                ",
"                    o                                           ",
"                   o=o         o                                ",
"                   o=o        o=o                               ",
"                   o=o        o=o                               ",
"              ...  o=o       o=o   ....                         ",
"             ......o=o $$$   o=o .......                        ",
"             ......o=o$&&:$  o=o........                        ",
"             ..+@..o=$&&:::$o=o....++...                        ",
"             ..+@@.o=$$$&&$$o=o...+@@...                        ",
"              ..@@@o=$&:::&$o=o..+@@@...                        ",
"              ..+@o==$$&&$$O%=o.++@@+...                        ",
"              ...o=-=$:::&&O==%%%%%@....                        ",
"               ..o=--$$&$$$O-===%%%%...                         ",
"               .o=---$&&&&O=--====%%%..                         ",
"                o==o--$OOO----====%%%%.                         ",
"        oo oo=oo==o;o--------ooo===%%%o                         ",
"        =======.=%:o:o------o;::o==%%%.                         ",
"        .......o=%:.:o-----o:o::;o==ooo o  o                    ",
"               o=%:.;o=====o:.::;o====o==o==oo                  ",
"            o oo=%;.;o=====o:.:;;o===.=..=.===                  ",
"          oo=o==o=%%========%.;;o==%%%.  . ....                 ",
"         ..=..=.o%==o=========%%oooooo                          ",
"           .  .ooo%=o===========oo=oo=oo oo                     ",
"            o====.%%%o.=====oo=o===ooo=====oo                   ",
"            .==o=o..%%:.....:%%==o===o....==.                   ",
"             %=o==.=..%%%%%%%%o==o=o===o  ..                    ",
"             ....=..=o..%%%%%%.=.===o=%.                        ",
"              o%%.%%%=o%......%%..==o=%=o                       ",
"               oo%%%%=o=%%%%%%%%.%.....=o        XX*X           ",
"                 %%%%o======%%%%%%..o===.      XX****XX         ",
"                 o...o=======%%.o%%%o=%.      X*******X         ",
"                     o=======%%.o..%%%%%.     #*####**X         ",
"                    o========%%%... ....      X##X#X##X         ",
"                    o=======%%%%o.  ..        .##X####X         ",
"                    o=======%%%%%.            .#####X#X         ",
"                    .%====%%%%%%%.            ..###.#XX         ",
"                    .o%%%%%%%%%%%.             ...###.          ",
"                     .%%%%%%%%%%o.o           ..####.           ",
"                     .%%%%%%%%%o.%%o%o o oo ..#####.            ",
"                     .%%o....oo%%..%%%===o==*####...            ",
"                   ..o%%.     .%%o..%.======*##...              ",
"                   ..%%.       .%%.. ..%.%==*...                ",
"             XXX##====%%.       .%%%%......  .                  ",
"           XX#X#X#*====%.      .%%====##....                    ",
"          .##X#X###**...       .%====*#X#X##.                   ",
"          .##.#.##...           ....*###X#XX#.                  ",
"           .......                  ..##.#..#.                  ",
"                                      .......                   ",
"                                                                ",
"                                                                ",
"                                                                ",
"                                                                ",
"                                                                ",
"                                                                ",
"                                                                ",
"                                                                "
};
