/* XPM */
static char *_frame1673800129[] = {
/* columns rows colors chars-per-pixel */
"64 64 16 1 ",
"  c None",
". c #101010",
"X c #AD293A",
"o c #9C4200",
"O c #945A00",
"+ c #D65A3A",
"@ c #FF7352",
"# c #D6526B",
"$ c #CEA500",
"% c #DE9C3A",
"& c #FFD600",
"* c #F77B8C",
"= c #FFCE84",
"- c #FFEFB5",
"; c #E6E6E6",
": c white",
/* pixels */
"                                                                ",
"                                                                ",
"                                                                ",
"                                                                ",
"                                                                ",
"                                                                ",
"                                                                ",
"                                                                ",
"                    o                                           ",
"                   o=o         o                                ",
"                   o=o        o=o                               ",
"                   o=o        o=o                               ",
"              ...  o=o       o=o   ....                         ",
"             ......o=o $$$   o=o .......                        ",
"             ......o=o$&&:$  o=o........                        ",
"             ..+@..o=$&&:::$o=o....++...                        ",
"             ..+@@.o=$$$&&$$o=o...+@@...                        ",
"              ..@@@o=$&:::&$o=o..+@@@...                        ",
"              ..+@o==$$&&$$O%=o.++@@+...                        ",
"              ...o=-=$:::&&O==%%%%%@....                        ",
"               ..o=--$$&$$$O-===%%%%...                         ",
"               .o=---$&&&&O=--====%%%..                         ",
"                o==o--$OOO----====%%%%.                         ",
"            o oo==o;o--------ooo===%%%o                         ",
"        oooo===.=%:o:o------o;::o==%%%.                         ",
"        ==.=...o=%:.:o-----o:o::;o==%o.                         ",
"        .....  o=%:.;o=====o:.::;o====oooo o                    ",
"               o=%;.;o=====o:.:;;o===.=.====oo                  ",
"           oo=o=o=%%========%.;;o==%%....=.==oo                 ",
"           o====o%==ooo=======%%===oo.     ..=.                 ",
"          .=..=.oooooo%ooo=======%%==oo                         ",
"             %=o=.====%o=%oooo==%%..==oooo                      ",
"             ...=.=========%%o%%%%%%..====oo                    ",
"               o..%==o======%%o%%%..  . ..==                    ",
"               o%.%%.o======%%%o..        .                     ",
"                o.%.%======%%%%%o                               ",
"                 .%.%==o===%o.%%                                ",
"                  ..%%.====%%%.o                                ",
"                   ..%.===%.=%%%.                               ",
"                     .%%=..==%%%.                               ",
"                    o.%%%%.==%%%.               X XXXX          ",
"                    o=....==%%%%o.             XX*****X         ",
"                    o==..===%%%%%.             #******XX        ",
"                    .%====%%%%%%%.            X######**X        ",
"                    .o%%%%%%%%%%%.             ###XX#**X        ",
"                     .%%%%%%%%%%o.o           .##X##X#*X        ",
"                    .%%%o%%%%%o%%%. o         .#######X         ",
"                   .o%%%.....o.%%%o.ooo        .###.##X         ",
"                   .%%%.       .%%%.%=ooo  . ...#..##X          ",
"               oooo==%%.       .%%%%.======.#######..           ",
"            XXX###===%%%.       ..%%%....==*######..            ",
"           X#X#XX#*====%.      .%%%===###...####...             ",
"         ..#.#.###..            ....*####X#X##..                ",
"           .......                  ..###.#.##.                 ",
"                                      ........                  ",
"                                                                ",
"                                                                ",
"                                                                ",
"                                                                ",
"                                                                ",
"                                                                ",
"                                                                ",
"                                                                ",
"                                                                "
};
