/* XPM */
static char *_frame1673800128[] = {
/* columns rows colors chars-per-pixel */
"64 64 16 1 ",
"  c None",
". c #101010",
"X c #AD293A",
"o c #9C4200",
"O c #945A00",
"+ c #D65A3A",
"@ c #FF7352",
"# c #D6526B",
"$ c #CEA500",
"% c #DE9C3A",
"& c #FFD600",
"* c #F77B8C",
"= c #FFCE84",
"- c #FFEFB5",
"; c #E6E6E6",
": c white",
/* pixels */
"                                                                ",
"                                                                ",
"                                                                ",
"                                                                ",
"                                                                ",
"                                                                ",
"                                                                ",
"                      o                                         ",
"                     o=o         o                              ",
"                     o=o        o=o                             ",
"                     o=o        o=o                             ",
"                ...  o=o       o=o   ....                       ",
"               ......o=o $$$   o=o .......                      ",
"               ......o=o$&&:$  o=o........                      ",
"               ..+@..o=$&&:::$o=o....++...                      ",
"               ..+@@.o=$$$&&$$o=o...+@@...                      ",
"                ..@@@o=$&:::&$o=o..+@@@...                      ",
"                ..+@o==$$&&$$O%=o.++@@+...                      ",
"                ...o=-=$:::&&O==%%%%%@....                      ",
"                 ..o=--$$&$$$O-===%%%%...                       ",
"           oo    .o=---$&&&&O=--====%%%..                       ",
"          .==ooo  o==o--$OOO----====%%%%.                       ",
"          ...===oo==o;o--------ooo===%%%o   oo                  ",
"             ...=.=%:o:o------o;::o==%%%.ooo==oo                ",
"                .o=%:.:o-----o:o::;o==ooo===.===.               ",
"            ooo  o=%:.;o=====o:.::;o=====... ...                ",
"           .===ooo=%;.;o=====o:.:;;o===..                       ",
"            ...===o=%%========%.;;o==%%%.  oo   XXX             ",
"               ...o%==o=========%%===oooooo==ooX**XX            ",
"                   o%=%oo....oo=====%======..==.****X           ",
"                   .%%%%:++@@:.===%%%%.....  ..**#***X          ",
"                    ..%%o+@@@@o%%%%%%%.     X**##X###X          ",
"                  ooo ..%o@@@o%%%%%%..      X*##X#X##X          ",
"                oo===o  .%ooo%%%....         ###X##X#X          ",
"              oo===o==o o.%%%...%.           X#####.#.          ",
"              .==o==.=.oo=...%%...            .####.#.          ",
"               %=o==..=o======o==..           ....##..          ",
"               ....%%%=o====oo====.             .###.           ",
"                o%%%%%%o====o===...            .####.           ",
"                 oo%%%o=====o==%=%.            .###.            ",
"                   o..o========%..o.         .#####.            ",
"                      o====o===%%%%.       oo=*##.              ",
"                      .%==oo===%.%%.     oo====*..              ",
"                      .o%%o====%o%%.ooooo======..               ",
"                       .%oo=====.%o.%%%%%==%=%.                 ",
"                       .%o======%o.....%... .                   ",
"                        %o==%===%.     .                        ",
"                       .%.%o%oo%o%%.                            ",
"                      .o%.%%%.%%%%%o.                           ",
"                      .%%. ..%.%..%%.                           ",
"                   ooo==%.  ...  .%%%.                          ",
"                XXX##===%%.       .%%%...                       ",
"               X#X#X#*===%.      .%%===##...                    ",
"              .#X#X###*...       .%===*#X#X#.                   ",
"              .#.#.##..           ...*###X#X#.                  ",
"               ......                ..##.#.#.                  ",
"                                       ......                   ",
"                                                                ",
"                                                                ",
"                                                                ",
"                                                                ",
"                                                                ",
"                                                                ",
"                                                                "
};
