/* XPM */
static char *down1673351230[] = {
/* columns rows colors chars-per-pixel */
"64 64 29 1 ",
"  c None",
". c black",
"X c #191919",
"o c gray14",
"O c #282828",
"+ c #323232",
"@ c #561B34",
"# c gray25",
"$ c #444444",
"% c gray31",
"& c #784040",
"* c #405870",
"= c gray49",
"- c #983D0C",
"; c #A86038",
": c #D85810",
"> c #EF6C25",
", c #821E4E",
"< c #A6246F",
"1 c #D08858",
"2 c #D89870",
"3 c #E070D8",
"4 c #F0B888",
"5 c #F8D0B8",
"6 c #B8B8D8",
"7 c gray80",
"8 c #D8D0E8",
"9 c #E8E8F8",
"0 c gray95",
/* pixels */
"                                                                ",
"                                                                ",
"                                                                ",
"                          ............                          ",
"                          ............                          ",
"                      ....<<<<<<<<<<<<....                      ",
"                      ....<<<<<<<<<<<<....                      ",
"                  ....<<<<<<<<<<<<<<<<<<<<....                  ",
"                  ....<<<<<<<<<<<<<<<<<<<<....                  ",
"                ..33<<<<<<<<<<<<<<<<<<<<<<33<<..                ",
"                ..33<<<<<<<<<<<<<<<<<<<<<<33<<..                ",
"                ..<<3333<<<<<<<<<<<<<<<<333333..                ",
"                ..<<3333<<<<<<<<<<<<<<<<333333..                ",
"              ..<<<<<<<<333333<<<<<<333333<<<<<<..              ",
"              ..<<<<<<<<333333<<<<<<333333<<<<<<..              ",
"              ..<<<<<<<<<<333333333333<<<<<<<<,,..              ",
"              ..<<<<<<<<<<333333333333<<<<<<<<,,..              ",
"              ..<<<<<<<<<<<<<<<<<<<<<<<<<<<<,,,,,,..            ",
"              ..<<<<<<<<<<<<<<<<<<<<<<<<<<<<,,,,,,..            ",
"              ..<<<<@@<<<<<<<<<<<<<<<<@@<<,,,,,,,,..            ",
"              ..<<<<@@<<<<<<<<<<<<<<<<@@<<,,,,,,,,..            ",
"              ..<<@@,,@@<<<<<<<<<<<<@@,,@@,,,,,,@@..            ",
"              ..<<@@,,@@<<<<<<<<<<<<@@,,@@,,,,,,@@..            ",
"                ..@@22,,@@<<<<<<<<@@,,22@@,,,,@@@@..            ",
"                ..@@22,,@@<<<<<<<<@@,,22@@,,,,@@@@..            ",
"                  @@2288..22@@@@22..8822@@,,@@@@@@..            ",
"                  @@2288..22@@@@22..8822@@,,@@@@@@..            ",
"                  ..@@99**55555555**99..,,@@@@@@@@..            ",
"                  ..@@99**55555555**99..,,@@@@@@@@..            ",
"                    ..2255555555555522..,,@@@@@@@@..            ",
"                    ..2255555555555522..,,@@@@@@@@..            ",
"                      ..225522225522..@@@@@@@@@@..              ",
"                      ..225522225522..@@@@@@@@@@..              ",
"                    XX==....&&&&....==XX@@@@@@@@..              ",
"                    XX==....&&&&....==XX@@@@@@@@..              ",
"                  XX%%oo7777---->>7766++oo@@@@@@..              ",
"                  XX%%oo7777---->>7766++oo@@@@@@..              ",
"              oooo%%oo..7799::99::77==%%oo@@@@..                ",
"              oooo%%oo..7799::99::77==%%oo@@@@..                ",
"            XX++%%oo..  ==99::::99==@@ooXX@@..                  ",
"            XX++%%oo..  ==99::::99==@@ooXX@@..                  ",
"            XX++ooXX    ==::%%%%::==XXoo%%oo                    ",
"            XX++ooXX    ==::%%%%::==XXoo%%oo                    ",
"              XXXX    ..;;44111144;;XX++++oo                    ",
"              XXXX    ..;;44111144;;XX++++oo                    ",
"                    ..==776666666677==XXXX                      ",
"                    ..==776666666677==XXXX                      ",
"                    $$7766000000006677$$                        ",
"                    $$7766000000006677$$                        ",
"                    $$======$$$$======$$                        ",
"                    $$======$$$$======$$                        ",
"                      ..4444........$$                          ",
"                      ..4444........$$                          ",
"                      ..1111..                                  ",
"                      ..1111..                                  ",
"                        ..####..                                ",
"                        ..####..                                ",
"                        ..OOOO..                                ",
"                        ..OOOO..                                ",
"                          ....                                  ",
"                          ....                                  ",
"                                                                ",
"                                                                ",
"                                                                "
};
