/* XPM */
static char *left1673351230[] = {
/* columns rows colors chars-per-pixel */
"64 64 28 1 ",
"  c None",
". c black",
"X c #191919",
"o c gray14",
"O c #282828",
"+ c #323232",
"@ c #561B34",
"# c gray25",
"$ c #444444",
"% c gray31",
"& c #784040",
"* c #405870",
"= c gray49",
"- c #A86038",
"; c #821E4E",
": c #A6246F",
"> c #68F800",
", c #D08858",
"< c #CF966F",
"1 c #D89870",
"2 c #E070D8",
"3 c #F0B888",
"4 c #F8D0B8",
"5 c #B8B8D8",
"6 c gray80",
"7 c #D8D0E8",
"8 c #E8E8F8",
"9 c gray95",
/* pixels */
"                                                                ",
"                                                                ",
"                                                                ",
"                                                                ",
"                        ............                            ",
"                        ............                            ",
"                    ....::::::::::::....                        ",
"                    ....::::::::::::....                        ",
"                ....::::::::::::::::::::....                    ",
"                ....::::::::::::::::::::....                    ",
"              ..22::::::::::::::::::::::22::..                  ",
"              ..22::::::::::::::::::::::22::..                  ",
"              ..::2222::::::::::::::::222222..                  ",
"              ..::2222::::::::::::::::222222..                  ",
"            ..::::::::222222::::::222222::::::..                ",
"            ..::::::::222222::::::222222::::::..                ",
"            ..::::::::::222222222222::::::::;;..                ",
"            ..::::::::::222222222222::::::::;;..                ",
"            ..;;;;;;;;;;22222222::::::::::;;;;;;..              ",
"            ..;;;;;;;;;;22222222::::::::::;;;;;;..              ",
"            ..;;;;1111;;;;::::::::::::::;;;;;;;;..              ",
"            ..;;;;1111;;;;::::::::::::::;;;;;;;;..              ",
"            ..@@444444<<;;;;::::::::::;;;;;;;;@@@@..            ",
"            ..@@444444<<;;;;::::::::::;;;;;;;;@@@@..            ",
"              ;;444444;;<<;;;;::::::;;;;;;;;@@@@@@..            ",
"              ;;444444;;<<;;;;::::::;;;;;;;;@@@@@@..            ",
"              &&4444..7744,,;;@@@@;;;;;;;;@@@@@@@@..            ",
"              &&4444..7744,,;;@@@@;;;;;;;;@@@@@@@@..            ",
"              114444**8844,,;;@@33@@;;;;@@@@@@@@@@..            ",
"              114444**8844,,;;@@33@@;;;;@@@@@@@@@@..            ",
"              114444444444,,;;11>>@@;;@@@@@@@@@@@@..            ",
"              114444444444,,;;11>>@@;;@@@@@@@@@@@@..            ",
"                &&114444444411@@@@  ....@@@@@@@@@@..            ",
"                &&114444444411@@@@  ....@@@@@@@@@@..            ",
"                  ....======..          ..@@@@@@@@..            ",
"                  ....======..          ..@@@@@@@@..            ",
"                      ==666666..        ..@@@@@@@@..            ",
"                      ==666666..        ..@@@@@@@@..            ",
"                    ==669988++..          ..@@@@@@..            ",
"                    ==669988++..          ..@@@@@@..            ",
"                  ==669988XXoo%%oo        ..@@@@@@..            ",
"                  ==669988XXoo%%oo        ..@@@@@@..            ",
"                ..==66998888XXoo%%oo        ..@@@@..            ",
"                ..==66998888XXoo%%oo        ..@@@@..            ",
"              XXoo%%oo,,3333--XXoo%%oo      ..@@@@..            ",
"              XXoo%%oo,,3333--XXoo%%oo      ..@@@@..            ",
"              XX++++oo55555555XX++++oo        ....              ",
"              XX++++oo55555555XX++++oo        ....              ",
"                XXXX..999999====XXXX        ....                ",
"                XXXX..999999====XXXX        ....                ",
"                  ....==$$$$....OO..                            ",
"                  ....==$$$$....OO..                            ",
"                ..OO##,,,,..OOOO..                              ",
"                ..OO##,,,,..OOOO..                              ",
"              ..####OOOO........                                ",
"              ..####OOOO........                                ",
"                ..OOOO..                                        ",
"                ..OOOO..                                        ",
"                  ....                                          ",
"                  ....                                          ",
"                                                                ",
"                                                                ",
"                                                                ",
"                                                                "
};
