/* XPM */
static char *up1673351230[] = {
/* columns rows colors chars-per-pixel */
"64 64 20 1 ",
"  c None",
". c black",
"X c #191919",
"o c gray14",
"O c #282828",
"+ c #323232",
"@ c #561B34",
"# c gray25",
"$ c #444444",
"% c gray31",
"& c gray49",
"* c #A86038",
"= c #821E4E",
"- c #A6246F",
"; c #D08858",
": c #E070D8",
"> c #F0B888",
", c #B8B8D8",
"< c gray80",
"1 c gray95",
/* pixels */
"                                                                ",
"                                                                ",
"                                                                ",
"                           ............                         ",
"                           ............                         ",
"                       ....------------....                     ",
"                       ....------------....                     ",
"                   ....--------------------....                 ",
"                   ....--------------------....                 ",
"                 ..--::----------------------::..               ",
"                 ..--::----------------------::..               ",
"                 ..::::::----------------::::--..               ",
"                 ..::::::----------------::::--..               ",
"               ..------::::::------::::::--------..             ",
"               ..------::::::------::::::--------..             ",
"               ..==----..--::::::::::::----------..             ",
"               ..==----..--::::::::::::----------..             ",
"             ..======--..----..------------------..             ",
"             ..======--..----..------------------..             ",
"             ..======..------..------------------..             ",
"             ..======..------..------------------..             ",
"             ..@@====..==----..------------------..             ",
"             ..@@====..==----..------------------..             ",
"             ..@@@@==..====--..--------------@@..               ",
"             ..@@@@==..====--..--------------@@..               ",
"             ..@@@@..======..--------------@@..                 ",
"             ..@@@@..======..--------------@@..                 ",
"             ..@@@@..@@====..==----------@@....                 ",
"             ..@@@@..@@====..==----------@@....                 ",
"             ..@@@@..@@@@==..====------@@....                   ",
"             ..@@@@..@@@@==..====------@@....                   ",
"               ..@@..@@@@..========--......                     ",
"               ..@@..@@@@..========--......                     ",
"               ..@@..@@@@..@@======......ooXX                   ",
"               ..@@..@@@@..@@======......ooXX                   ",
"               ..@@..@@@@..@@@@==..<<<<<<,,++oo                 ",
"               ..@@..@@@@..@@@@==..<<<<<<,,++oo                 ",
"                 ....@@@@..@@@@..111111<<&&%%oo                 ",
"                 ....@@@@..@@@@..111111<<&&%%oo                 ",
"                 XX..@@@@..@@..11111111&&  ooXX                 ",
"                 XX..@@@@..@@..11111111&&  ooXX                 ",
"                 XX++....@@..&&,,<<<<,,&&XXoo%%oo               ",
"                 XX++....@@..&&,,<<<<,,&&XXoo%%oo               ",
"                   XXXX......**>>;;;;>>**XX++++oo               ",
"                   XXXX......**>>;;;;>>**XX++++oo               ",
"                         ..&&<<,,,,,,,,<<&&XXXX                 ",
"                         ..&&<<,,,,,,,,<<&&XXXX                 ",
"                         $$<<,,11111111,,<<$$                   ",
"                         $$<<,,11111111,,<<$$                   ",
"                         $$&&&&&&$$$$&&&&&&$$                   ",
"                         $$&&&&&&$$$$&&&&&&$$                   ",
"                           ..>>>>........$$                     ",
"                           ..>>>>........$$                     ",
"                           ..;;;;..                             ",
"                           ..;;;;..                             ",
"                             ..####..                           ",
"                             ..####..                           ",
"                             ..OOOO..                           ",
"                             ..OOOO..                           ",
"                               ....                             ",
"                               ....                             ",
"                                                                ",
"                                                                ",
"                                                                "
};
