/* XPM */
static char *_3_down011671529271[] = {
/* columns rows colors chars-per-pixel */
"64 64 12 1 ",
"  c None",
". c black",
"X c #603000",
"o c #284858",
"O c #904020",
"+ c #C85828",
"@ c #F87838",
"# c #D8A830",
"$ c #F0D070",
"% c #408080",
"& c #A0A0A0",
"* c #D8D8F8",
/* pixels */
"                                                                ",
"                                                                ",
"                                                                ",
"                                                                ",
"                                                                ",
"                                                                ",
"                                                                ",
"                                                                ",
"                        XX            XX                        ",
"                        XX            XX                        ",
"                      XX@@XX        XX@@XX                      ",
"                      XX@@XX        XX@@XX                      ",
"                      ..@@XX        XX@@..                      ",
"                      ..@@XX        XX@@..                      ",
"                      ..@@XXOOOOOOOOXX@@..                      ",
"                      ..@@XXOOOOOOOOXX@@..                      ",
"                      ..@@@@XX@@@@XX@@@@..                      ",
"                      ..@@@@XX@@@@XX@@@@..                      ",
"                      ..++@@OO@@@@OO@@++..                      ",
"                      ..++@@OO@@@@OO@@++..                      ",
"                XXXX  XX++@@++@@@@++@@++XX  XXXX                ",
"                XXXX  XX++@@++@@@@++@@++XX  XXXX                ",
"            XXXX++XX  XXOO@@@@@@@@@@@@OOXX  XX++XXXX            ",
"            XXXX++XX  XXOO@@@@@@@@@@@@OOXX  XX++XXXX            ",
"          XX++OO++XX..OO@@@@@@@@@@@@@@@@OO..XX++OO++XX          ",
"          XX++OO++XX..OO@@@@@@@@@@@@@@@@OO..XX++OO++XX          ",
"        XX++%%%%OOXX..++**@@@@@@@@@@@@**++..XXOO%%%%++XX        ",
"        XX++%%%%OOXX..++**@@@@@@@@@@@@**++..XXOO%%%%++XX        ",
"      XX++%%%%%%ooOO..@@**%%@@@@@@@@%%**@@..OOoo%%%%%%++XX      ",
"      XX++%%%%%%ooOO..@@**%%@@@@@@@@%%**@@..OOoo%%%%%%++XX      ",
"      XX++%%%%ooooOO..@@@@oo++@@@@++oo@@@@..OOoooo%%%%++XX      ",
"      XX++%%%%ooooOO..@@@@oo++@@@@++oo@@@@..OOoooo%%%%++XX      ",
"    XX++OO%%ooooooooOOXX@@@@@@@@@@@@@@@@XXOOoooooooo%%OO++XX    ",
"    XX++OO%%ooooooooOOXX@@@@@@@@@@@@@@@@XXOOoooooooo%%OO++XX    ",
"    XX++oooooooooooooo..++@@@@@@@@@@@@++..oooooooooooooo++XX    ",
"    XX++oooooooooooooo..++@@@@@@@@@@@@++..oooooooooooooo++XX    ",
"    XXXX      oooooo..++..@@++@@@@++@@..++..oooooo      XXXX    ",
"    XXXX      oooooo..++..@@++@@@@++@@..++..oooooo      XXXX    ",
"                    XX@@++XX&&++++&&XX++@@XX                    ",
"                    XX@@++XX&&++++&&XX++@@XX                    ",
"                  ..@@++XX##XX....XX##XX++@@..                  ",
"                  ..@@++XX##XX....XX##XX++@@..                  ",
"                ....++XX##$$########$$##XX++..                  ",
"                ....++XX##$$########$$##XX++..                  ",
"                ..++XXOO##$$$$$$$$$$$$##OOXX++..                ",
"                ..++XXOO##$$$$$$$$$$$$##OOXX++..                ",
"                ..OO++++####$$$$$$$$####++++++..                ",
"                ..OO++++####$$$$$$$$####++++++..                ",
"                  ..++++..############..++++OO..                ",
"                  ..++++..############..++++OO..                ",
"                  ..OOOOOO..########..OOOOOO..                  ",
"                  ..OOOOOO..########..OOOOOO..                  ",
"                    ......XXXXXXXXXX..&&OO&&..                  ",
"                    ......XXXXXXXXXX..&&OO&&..                  ",
"                                      ......                    ",
"                                      ......                    ",
"                                                                ",
"                                                                ",
"                                                                ",
"                                                                ",
"                                                                ",
"                                                                ",
"                                                                ",
"                                                                "
};
