/* XPM */
static char *_3_left041671529272[] = {
/* columns rows colors chars-per-pixel */
"64 64 15 1 ",
"  c None",
". c black",
"X c #603000",
"o c #604000",
"O c #284858",
"+ c #C01020",
"@ c #904020",
"# c #C85828",
"$ c #F87838",
"% c #F8B810",
"& c #D8A830",
"* c #F0D070",
"= c #408080",
"- c #A0A0A0",
"; c #D8D8F8",
/* pixels */
"                                                                ",
"                                                                ",
"                                                                ",
"                                                                ",
"                                                                ",
"                                                                ",
"                                                                ",
"                                                                ",
"                                                                ",
"                               XXXXXX                           ",
"                               XXXXXX                           ",
"                           XXXX####XX                           ",
"                           XXXX####XX                           ",
"                     XXXXXX####XXXX                             ",
"                     XXXXXX####XXXX                             ",
"                 XXXX$$$$####XXXXXX....XX                       ",
"                 XXXX$$$$####XXXXXX....XX                       ",
"               XX$$$$$$$$XXXX##$$$$$$..@@XXXX        ++         ",
"               XX$$$$$$$$XXXX##$$$$$$..@@XXXX        ++         ",
"       XXXXXXXX$$$$$$$$$$$$$$$$##XXXX@@@@@@@@XX    ++           ",
"       XXXXXXXX$$$$$$$$$$$$$$$$##XXXX@@@@@@@@XX    ++           ",
"     XX$$$$$$##$$$$$$$$$$##@@XXXX  XX....@@@@@@XX  ++++         ",
"     XX$$$$$$##$$$$$$$$$$##@@XXXX  XX....@@@@@@XX  ++++         ",
"     XX$$$$$$$$$$$$##--######@@XX  ..$$$$......@@XX++++++       ",
"     XX$$$$$$$$$$$$##--######@@XX  ..$$$$......@@XX++++++       ",
"     ..$$##$$$$@@OO;;;;##$$####..  XXXX##$$$$$$....++%%++       ",
"     ..$$##$$$$@@OO;;;;##$$####..  XXXX##$$$$$$....++%%++       ",
"     ..##$$$$$$$$==;;##$$$$####..XX@@..##OO==##$$$$..%%%%++     ",
"     ..##$$$$$$$$==;;##$$$$####..XX@@..##OO==##$$$$..%%%%++     ",
"       ..--##$$$$$$$$$$$$######@@..@@..##OO======##$$..%%++     ",
"       ..--##$$$$$$$$$$$$######@@..@@..##OO======##$$..%%++     ",
"         ....XX##$$$$$$@@######XXXX..##OOOOOO======$$..++++     ",
"         ....XX##$$$$$$@@######XXXX..##OOOOOO======$$..++++     ",
"               ....XX@@##############OOOOOOOO======##$$..       ",
"               ....XX@@##############OOOOOOOO======##$$..       ",
"                     oo&&########OOOOOOOOOOOO==OOOO==$$..       ",
"                     oo&&########OOOOOOOOOOOO==OOOO==$$..       ",
"                     oo&&@@$$@@####OO    OOOOOO    ..$$..       ",
"                     oo&&@@$$@@####OO    OOOOOO    ..$$..       ",
"                   oo**XX$$##XX$$####XX    OO      @@....       ",
"                   oo**XX$$##XX$$####XX    OO      @@....       ",
"                   oo**XX$$XX$$$$$$##@@XX      XXXX##XX         ",
"                   oo**XX$$XX$$$$$$##@@XX      XXXX##XX         ",
"                   oo**@@XX$$$$$$$$######XXXXXX######XX         ",
"                   oo**@@XX$$$$$$$$######XXXXXX######XX         ",
"                   oo&&**##$$$$$$####@@############XX           ",
"                   oo&&**##$$$$$$####@@############XX           ",
"                     oo&&@@$$$$####XX@@########@@XX             ",
"                     oo&&@@$$$$####XX@@########@@XX             ",
"                       ooXX@@####@@..####@@XXXXXX               ",
"                       ooXX@@####@@..####@@XXXXXX               ",
"                         ..--####..XXXXXXXX                     ",
"                         ..--####..XXXXXXXX                     ",
"                           ......                               ",
"                           ......                               ",
"                                                                ",
"                                                                ",
"                                                                ",
"                                                                ",
"                                                                ",
"                                                                ",
"                                                                ",
"                                                                ",
"                                                                "
};
