/* XPM */
static char *_2_right021671529176[] = {
/* columns rows colors chars-per-pixel */
"64 64 12 1 ",
"  c None",
". c black",
"X c #604020",
"o c #E02828",
"O c #E07838",
"+ c #D8A830",
"@ c #F8C038",
"# c #F0D070",
"$ c #286880",
"% c #909090",
"& c #B0B8F8",
"* c #E8E8F8",
/* pixels */
"                                                                ",
"                                                                ",
"                                                                ",
"                                                                ",
"                                                                ",
"                                                                ",
"                                                                ",
"                                                                ",
"                                                                ",
"                                                                ",
"                                                                ",
"                                                                ",
"                            XXXXXX                              ",
"                            XXXXXX                              ",
"                            XX@@@@XXXX                          ",
"                            XX@@@@XXXX                          ",
"                              ..OO@@@@XXXXXX                    ",
"                              ..OO@@@@XXXXXX                    ",
"            oo                  ..OO@@@@@@@@XX                  ",
"            oo                  ..OO@@@@@@@@XX                  ",
"              oo              XXOOXX@@@@@@@@@@XX                ",
"              oo              XXOOXX@@@@@@@@@@XX                ",
"              oooo            XX@@@@@@@@@@@@@@XX                ",
"              oooo            XX@@@@@@@@@@@@@@XX                ",
"            oooooo          XXOO@@@@@@@@@@@@@@OOXX              ",
"            oooooo          XXOO@@@@@@@@@@@@@@OOXX              ",
"            oooo@@oo        ..OO@@@@@@@@@@@@OO@@OOXX            ",
"            oooo@@oo        ..OO@@@@@@@@@@@@OO@@OOXX            ",
"            oo##@@oo        ..OOOO@@@@@@&&@@OO@@@@XX            ",
"            oo##@@oo        ..OOOO@@@@@@&&@@OO@@@@XX            ",
"            oo##oo            ..OOOOOOOO**$$@@@@@@..            ",
"            oo##oo            ..OOOOOOOO**$$@@@@@@..            ",
"            XX++oo            ....OOOOOOOO..OO@@OO..            ",
"            XX++oo            ....OOOOOOOO..OO@@OO..            ",
"            ..OO..          ..OOOOOOXXOOOOOOOOXX..              ",
"            ..OO..          ..OOOOOOXXOOOOOOOOXX..              ",
"              ..OO..      ..OOOOOOOO++XX......                  ",
"              ..OO..      ..OOOOOOOO++XX......                  ",
"              ..OOOO......OOOOOOOOXX++##XX                      ",
"              ..OOOO......OOOOOOOOXX++##XX                      ",
"                ..OOOOOOOOOO@@XX@@@@XX####XX                    ",
"                ..OOOOOOOOOO@@XX@@@@XX####XX                    ",
"                  ..OOOOXXOO@@..@@@@&&XX++XX                    ",
"                  ..OOOOXXOO@@..@@@@&&XX++XX                    ",
"                    ......XXOO@@..&&..++..                      ",
"                    ......XXOO@@..&&..++..                      ",
"                            ..OOOOXXXXXX                        ",
"                            ..OOOOXXXXXX                        ",
"                              ..OOOO%%..                        ",
"                              ..OOOO%%..                        ",
"                                ........                        ",
"                                ........                        ",
"                                                                ",
"                                                                ",
"                                                                ",
"                                                                ",
"                                                                ",
"                                                                ",
"                                                                ",
"                                                                ",
"                                                                ",
"                                                                ",
"                                                                ",
"                                                                "
};
