/* XPM */
static char *result[] = {
/* columns rows colors chars-per-pixel */
"64 64 21 1 ",
"  c #C1C1C1",
". c #7A7980",
"X c #8D824B",
"o c #8E824A",
"O c #BEBEC1",
"+ c #BDBDC0",
"@ c #BCBBC0",
"# c #BAB9C0",
"$ c #BCBCC0",
"% c #ACA06A",
"& c #ADA169",
"* c #8F834B",
"= c #ADA16B",
"- c #AEA26A",
"; c #BDBCC0",
": c #BBBAC0",
"> c #C0C0C1",
", c #BEBDC1",
"< c #BFBEC1",
"1 c #BFBFC1",
"2 c #C1C0C1",
/* pixels */
"                                                 ....Xoooooooooo",
"                                    O++++O       ....Xoooooooooo",
"                                    @####$       ....Xoooooooooo",
"                                    @####$       ....Xoooooooooo",
"                                    @####$       ....%&&&&&&&*oo",
"                                    @####$       ....=-------*oo",
"                                    ;::::;     >>....=-------*oo",
"                                    >>>>>>     ;:....=-------*oo",
"                                               $#....=-------*oo",
"                                               $#....=-------*oo",
"                                               $#....=-------*oo",
"                                               $#...............",
",,<                      O,,,,,,,,,,>          $#...............",
"##@                     >:##########1          $#...............",
"##@                     >:##########1          $#...............",
"##@                     >:##########1          $##########,     ",
"##@                     >:##########1          $##########,     ",
"##$                     >:##########1          ;##########O     ",
"11>                     >:##########1          >1111111111>     ",
"                        >:##########1                           ",
"                        >:##########1                           ",
"                        >:##########1                           ",
"                        >:##########1                           ",
"                        2+;;;;;;;;;;>    >OOOOO>                ",
"                                         <#####<                ",
"                                         <#####<                ",
"                                         <#####<                ",
"                                         <#####<                ",
"                                         <#####<                ",
"                                         >11111>                ",
"                                                                ",
"                                                                ",
"                                                                ",
"                                                                ",
"                                                                ",
"                                                                ",
"                                                                ",
"                                                                ",
"                                                                ",
"                                                                ",
"                                                                ",
"                                                                ",
"                                                                ",
"                                                                ",
"                                                                ",
"                                                                ",
"                                                                ",
"                                                                ",
"                                                                ",
"                                                                ",
"                                                                ",
"++O                                                             ",
"##@                                                             ",
"##@                                                             ",
"##@                                                             ",
"##@                                                             ",
"::;                 >>>>>                                       ",
">>>                O::::@>                                     >",
"                   +####:>                                     >",
"                   +####:>                                     >",
"                   +####:>                                     >",
"                   +####:>                                     >",
"                   1;;;;+>    >OOOOO>                          >",
"                              O#####1                           "
};
