/* XPM */
static char *lamp21671709641[] = {
/* columns rows colors chars-per-pixel */
"64 64 215 2 ",
"   c None",
".  c #3A3530",
"X  c #3F3A35",
"o  c #413C37",
"O  c #433E39",
"+  c #443E39",
"@  c #453F3A",
"#  c #46403B",
"$  c #47413C",
"%  c #46403D",
"&  c #49433E",
"*  c #4A443F",
"=  c #4B4541",
"-  c #4C4641",
";  c #4D4742",
":  c #4E4843",
">  c #4F4944",
",  c #504A45",
"<  c #504A46",
"1  c #514B46",
"2  c #514B47",
"3  c #524C47",
"4  c #534C48",
"5  c #544E49",
"6  c #544E4A",
"7  c #554E4A",
"8  c #554F4B",
"9  c #56504B",
"0  c #57514C",
"q  c #57514D",
"w  c #58514D",
"e  c #58524D",
"r  c #58524E",
"t  c #59524E",
"y  c #59534E",
"u  c #5A534F",
"i  c #5A544F",
"p  c #5A5450",
"a  c #5B5450",
"s  c #5B5551",
"d  c #5C5651",
"f  c #5D5652",
"g  c #5D5753",
"h  c #5F5854",
"j  c #605A56",
"k  c #615B57",
"l  c #625B57",
"z  c #625C58",
"x  c #635C58",
"c  c #625E5A",
"v  c #645D59",
"b  c #645E59",
"n  c #655E5A",
"m  c #655F5B",
"M  c #66605C",
"N  c #67605C",
"B  c #67605D",
"V  c #68615D",
"C  c #68615E",
"Z  c #69625E",
"A  c #69635F",
"S  c #6A635F",
"D  c #6A6360",
"F  c #6C6561",
"G  c #6C6562",
"H  c #6C6662",
"J  c #6D6662",
"K  c #6D6763",
"L  c #6E6763",
"P  c #6D6764",
"I  c #6E6764",
"U  c #6A6A65",
"Y  c #6E6864",
"T  c #6F6865",
"R  c #706965",
"E  c #706966",
"W  c #726C68",
"Q  c #736C69",
"!  c #736D69",
"~  c #756E6B",
"^  c #766F6C",
"/  c #77706C",
"(  c #77706D",
")  c #77716D",
"_  c #77726F",
"`  c #78716D",
"'  c #78716E",
"]  c #79726E",
"[  c #79726F",
"{  c #767370",
"}  c #7A7370",
"|  c #7B7471",
" . c #7C7571",
".. c #7C7673",
"X. c #7D7673",
"o. c #7E7773",
"O. c #7E7774",
"+. c #7E7875",
"@. c #7F7875",
"#. c #7D7976",
"$. c #807975",
"%. c #807976",
"&. c #817A77",
"*. c #827B78",
"=. c #837C78",
"-. c #827C79",
";. c #837C79",
":. c #847D7A",
">. c #857E7A",
",. c #857E7B",
"<. c #867F7B",
"1. c #877F7C",
"2. c #7C837D",
"3. c #84807D",
"4. c #87807C",
"5. c #87807D",
"6. c #84817E",
"7. c #85827E",
"8. c #88817E",
"9. c #89817E",
"0. c #89827E",
"q. c #89827F",
"w. c #8A827F",
"e. c #8A837F",
"r. c #878581",
"t. c #8A8380",
"y. c #8B8481",
"u. c #8D8683",
"i. c #8E8683",
"p. c #8E8783",
"a. c #898784",
"s. c #8E8784",
"d. c #8F8784",
"f. c #848883",
"g. c #878A86",
"h. c #888884",
"j. c #8F8884",
"k. c #8C8A86",
"l. c #8F8D89",
"z. c #908885",
"x. c #918986",
"c. c #928A87",
"v. c #928B87",
"b. c #928B88",
"n. c #938B88",
"m. c #948D8A",
"M. c #958E8B",
"N. c #968E8B",
"B. c #968F8C",
"V. c #978F8C",
"C. c #97908D",
"Z. c #98908D",
"A. c #99918E",
"S. c #99928E",
"D. c #99928F",
"F. c #9A928F",
"G. c #8F9590",
"H. c #8F9691",
"J. c #969491",
"K. c #9A9390",
"L. c #9B9390",
"P. c #9B9491",
"I. c #9C9491",
"U. c #9E9693",
"Y. c #979894",
"T. c #9F9895",
"R. c #999B98",
"E. c #A09995",
"W. c #A19996",
"Q. c #A29A97",
"!. c #A39B98",
"~. c #A49C99",
"^. c #A59D9A",
"/. c #A69E9B",
"(. c #A69F9C",
"). c #A79F9C",
"_. c #96A29C",
"`. c #A8A09D",
"'. c #A9A19E",
"]. c #AAA29F",
"[. c #97A6A0",
"{. c #A1AAA5",
"}. c #A1ACA7",
"|. c #A3B3AD",
" X c #A9B0AC",
".X c #ACB6B1",
"XX c #A1B9B1",
"oX c #AEBBB7",
"OX c #A5BFB8",
"+X c #B0B6B3",
"@X c #B1B7B4",
"#X c #B6BFBB",
"$X c #AFC5BE",
"%X c #AFC7C0",
"&X c #AFC9C1",
"*X c #BCC4C1",
"=X c #BED2CD",
"-X c #C2CAC7",
";X c #C1CDC9",
":X c #C1CECA",
">X c #C3D9D3",
",X c #C3D9D4",
"<X c #CEDAD7",
"1X c #CEE1DC",
"2X c #CEE5DE",
"3X c #D1E2DE",
"4X c #D4E0DD",
"5X c #D7E6E2",
"6X c #D7EAE5",
"7X c #D7EAE6",
"8X c #E2F1EE",
"9X c #E3F2EF",
"0X c #E4F3F0",
"qX c #E4F5F1",
"wX c #E9F9F6",
/* pixels */
"                                                                                                                                ",
"                                    @ @ @ @ @                                     @ @ @ @ @                                     ",
"                              @ r S D J J J D c -                             ; k D D G P G n a @                               ",
"                            ; f S $.c.b.:.9.9.T k 8                         8 k T 9.b.i.*.s.&.D f ;                             ",
"                          ; r :.t.B.'.!.t.b.L.9.4.S ;                     > S 4.9.W.).L.*.I.m.9.:.r ;                           ",
"                        @ f :.~.).).!.:.*.*.s.).).s.H @                 @ J s.).).'.B.-.&.-.C.).~.:.f @                         ",
"                      @ / n.T.'.B.s.t.&.&.&.:.s.~.!.s.J >             7 1.V.!.~.s.i.5.&.&.&.9.B.'.T.&.c @ @                     ",
"                      @ 4.'.).A.4.&.*.&.&.&.&.*.n.A.B.s.,             7 !.{.!.b.*.&.&.&.&.&.&.9.C.C.M./ @ @                     ",
"                      @ :.`.I.;.&.&.&.&.&.&.&.&.&.&.a.P.8             w !.!.n.&.&.&.&.&.&.&.&.&.&.&.M.&.@ @                     ",
"                      @ 4.A.;.&.&.&.&.&.&.&.&.&.&.&.&.X.:             7 !.d.*.&.&.&.&.&.&.&.&.&.&.&.&.J @ @                     ",
"                        f J &.&.&.&.&.&.&.&.&.&.&.&.Q 8                 j ^ &.&.&.&.&.&.&.&.&.&.&.&.S ,                         ",
"                        # r ' @.&.&.&.&.&.&.&.&.&.[ B @                 @ n  .$.&.&.&.&.&.&.&.&.&.' r @                         ",
"                        @ c a...} O.*.&.&.&.@.}  .4.{ @                 $ ' 1.$. .$.&.&.&.&.O.| ..a.c @                         ",
"                        @ g.4X/ J ~ &.@.&.@...H J @X#X@                 @ $X@XR G  .&.&.&.@.~ G / 4Xg.@                         ",
"                        @ 2.2X<XJ.^ E E T E Q @.*X<X|.@                 @  X1X$X$.Q E E E E ( J.<X2X2.@                         ",
"                        @ U .XqXoX{.+X+X+X+X X_.5X=Xg.@                 @ a.;X5XR. X.X@X.X@X{.oX0X.XU @                         ",
"                          r @.-X$X,XwXwXwXwX6XOX=XJ.v @                 # v Y.:X$X6XwXwXwXwX>X$X-X@.a                           ",
"                            , X.[.=X8XqXqX0X1XXXk.h #                     # h g.XX4X8XqXqX8X=X[.X.>                             ",
"                            , X.4.k.R.%X&X[.l.r.;.k @                     @ h ;.3.g.{.&X%XR.j.r.X.>                             ",
"                            ; f g U ,.H.Y.k.' g f 8         @ @ @ @         0 f h / g.H.H.3.J f f ;                             ",
"                              @ @ p H J H H k @ @         x S H S S k         @ # h U H H H r @ @                               ",
"                                    # ; - - - -         , &.Q.I.I.~.:.,         - - - - - &                                     ",
"                                    , ' } } } } 3 @ @ ; c.c.Q , , ~ c.c.- @ @ 3 ' } } } ' ,                                     ",
"                                      p p P *.@.:.4.X.J 9.T 0     9 Y 9.T @.:.:.*.*.J p p                                       ",
"                                      @ @ p S S j.A.b.@.J r         r J $.n.A.c.S S p @ @                                       ",
"                                            @ # J ' } X.r ;         ; r X.' ^ J # @                                             ",
"                                                & & p &.X.f @     @ f O.&.f & &                                                 ",
"                                                    , f } ~ v @ @ c ~ ' r ,                                                     ",
"                                                      & c ~ ^ k k ^ ~ v &                                                       ",
"                                                        @ v ' &.&.' v @                                                         ",
"                                                          # f &.&.f #                                                           ",
"                                                          @ r &.&.r @                                                           ",
"                                                          @ p &.&.p @                                                           ",
"                                                          @ p &.&.p @                                                           ",
"                                                          @ p &.&.p @                                                           ",
"                                                          @ p &.&.p @                                                           ",
"                                                          @ p &.&.p @                                                           ",
"                                                          @ p &.&.p @                                                           ",
"                                                          @ i &.&.p @                                                           ",
"                                                          # i &.&.p @                                                           ",
"                                                          3 M &.&.B 3                                                           ",
"                                                        S v Y &.&.P v S                                                         ",
"                                                      - A.:.Q &.&.~ :.A.-                                                       ",
"                                                      ; A.~.C.&.&.M.~.A.;                                                       ",
"                                                      * ;.T.~.P.P.~.I.:.*                                                       ",
"                                                      & / c.S.A.A.A.c.~ *                                                       ",
"                                                      r [ &.&.&.*.&.&...r                                                       ",
"                                                  # v Q.4.&.&.&.&.&.&.4.Q.x #                                                   ",
"                                                  @ v ~.` ' &.&.&.*.' ` ~.v @                                                   ",
"                                                  @ v '.e.[ ~ ! ! ~ [ e.'.v @                                                   ",
"                                                  # x Q.'.9.~ E ! ! 9.'.Q.x @                                                   ",
"                                                  # r :.Q.'.'.'.`.`.'.!.:.r @                                                   ",
"                                                  @ 7 *.y.I.].].'.'.I.e.&.r @                                                   ",
"                                                  @ r &.&.s.M.M.M.M.p.*.&.r @                                                   ",
"                                                  @ r &.&.&.&.&.&.&.&.&.&.r @                                                   ",
"                                                  @ r &.&.&.&.&.&.&.&.&.&.r @                                                   ",
"                                                  @ 0 &.&.&.&.&.&.&.&.&.&.0 .                                                   ",
"                                                    4 x ..&.&.&.&.&.&.X.x #                                                     ",
"                                                      * Z Y T Y Y Y Y B o                                                       ",
"                                                        # O O O O O O X                                                         ",
"                                                                                                                                ",
"                                                                                                                                ",
"                                                                                                                                ",
"                                                                                                                                "
};
