/* XPM */
static char *_2_down021671529175[] = {
/* columns rows colors chars-per-pixel */
"64 64 11 1 ",
"  c None",
". c black",
"X c #604020",
"o c #E07838",
"O c #D8A830",
"+ c #F8C038",
"@ c #F0D070",
"# c #286880",
"$ c #909090",
"% c #B0B8F8",
"& c #E8E8F8",
/* pixels */
"                                                                ",
"                                                                ",
"                                                                ",
"                                                                ",
"                                                                ",
"                                                                ",
"                                                                ",
"                                                                ",
"                                                                ",
"                                                                ",
"                                                                ",
"                               XX                               ",
"                               XX                               ",
"                             XXooXX                             ",
"                             XXooXX                             ",
"                             XX++XX                             ",
"                             XX++XX                             ",
"                           XXoo++ooXX                           ",
"                           XXoo++ooXX                           ",
"                         XXXXoo++ooXXXX                         ",
"                         XXXXoo++ooXXXX                         ",
"                       XX++++oo++oo++++XX                       ",
"                       XX++++oo++oo++++XX                       ",
"                       XX++++++++++++++XX                       ",
"                       XX++++++++++++++XX                       ",
"                     XXoo++++++++++++++ooXX                     ",
"                     XXoo++++++++++++++ooXX                     ",
"                     XX++++++++++++++++++XX                     ",
"                     XX++++++++++++++++++XX                     ",
"                     XX%%++oo++++++oo++%%XX                     ",
"                     XX%%++oo++++++oo++%%XX                     ",
"                     ..&&##oo++++++oo##&&..                     ",
"                     ..&&##oo++++++oo##&&..                     ",
"                     ..++..++++++++++..++..                     ",
"                     ..++..++++++++++..++..                     ",
"                       ..oo++++++++++oo..                       ",
"                       ..oo++++++++++oo..                       ",
"                     XXoo..++oo++oo++..ooXX                     ",
"                     XXoo..++oo++oo++..ooXX                     ",
"                   XX++++oo..oooooo..oo++++XX                   ",
"                   XX++++oo..oooooo..oo++++XX                   ",
"                   ..++%%..oo......oo..%%++..                   ",
"                   ..++%%..oo......oo..%%++..                   ",
"                     ....++OO@@@@@@OOoo....                     ",
"                     ....++OO@@@@@@OOoo....                     ",
"                     ..++++OO@@@@@@OO++++..                     ",
"                     ..++++OO@@@@@@OO++++..                     ",
"                     XXoo$$XXOOOOOOoo++++XX                     ",
"                     XXoo$$XXOOOOOOoo++++XX                     ",
"                       ......XXXXXX..$$ooXX                     ",
"                       ......XXXXXX..$$ooXX                     ",
"                                   ......                       ",
"                                   ......                       ",
"                                                                ",
"                                                                ",
"                                                                ",
"                                                                ",
"                                                                ",
"                                                                ",
"                                                                ",
"                                                                ",
"                                                                ",
"                                                                ",
"                                                                "
};
