/* XPM */
static char *_2_left021671529175[] = {
/* columns rows colors chars-per-pixel */
"64 64 12 1 ",
"  c None",
". c black",
"X c #604020",
"o c #E02828",
"O c #E07838",
"+ c #D8A830",
"@ c #F8C038",
"# c #F0D070",
"$ c #286880",
"% c #909090",
"& c #B0B8F8",
"* c #E8E8F8",
/* pixels */
"                                                                ",
"                                                                ",
"                                                                ",
"                                                                ",
"                                                                ",
"                                                                ",
"                                                                ",
"                                                                ",
"                                                                ",
"                                                                ",
"                                                                ",
"                                                                ",
"                              XXXXXX                            ",
"                              XXXXXX                            ",
"                          XXXX@@@@XX                            ",
"                          XXXX@@@@XX                            ",
"                    XXXXXX@@@@OO..                              ",
"                    XXXXXX@@@@OO..                              ",
"                  XX@@@@@@@@OO..                  oo            ",
"                  XX@@@@@@@@OO..                  oo            ",
"                XX@@@@@@@@@@XXOOXX              oo              ",
"                XX@@@@@@@@@@XXOOXX              oo              ",
"                XX@@@@@@@@@@@@@@XX            oooo              ",
"                XX@@@@@@@@@@@@@@XX            oooo              ",
"              XXOO@@@@@@@@@@@@@@OOXX          oooooo            ",
"              XXOO@@@@@@@@@@@@@@OOXX          oooooo            ",
"            XXOO@@OO@@@@@@@@@@@@OO..        oo@@oooo            ",
"            XXOO@@OO@@@@@@@@@@@@OO..        oo@@oooo            ",
"            XX@@@@OO@@&&@@@@@@OOOO..        oo@@##oo            ",
"            XX@@@@OO@@&&@@@@@@OOOO..        oo@@##oo            ",
"            ..@@@@@@$$**OOOOOOOO..            oo##oo            ",
"            ..@@@@@@$$**OOOOOOOO..            oo##oo            ",
"            ..OO@@OO..OOOOOOOO....            oo++XX            ",
"            ..OO@@OO..OOOOOOOO....            oo++XX            ",
"              ..XXOOOOOOOOXXOOOOOO..          ..OO..            ",
"              ..XXOOOOOOOOXXOOOOOO..          ..OO..            ",
"                  ......XX++OOOOOOOO..      ..OO..              ",
"                  ......XX++OOOOOOOO..      ..OO..              ",
"                      XX##++XXOOOOOOOO......OOOO..              ",
"                      XX##++XXOOOOOOOO......OOOO..              ",
"                    XX####XX@@@@XX@@OOOOOOOOOO..                ",
"                    XX####XX@@@@XX@@OOOOOOOOOO..                ",
"                    XX++XX&&@@@@..@@OOXXOOOO..                  ",
"                    XX++XX&&@@@@..@@OOXXOOOO..                  ",
"                      ..++..&&..@@OOXX......                    ",
"                      ..++..&&..@@OOXX......                    ",
"                        XXXXXXOOOO..                            ",
"                        XXXXXXOOOO..                            ",
"                        ..%%OOOO..                              ",
"                        ..%%OOOO..                              ",
"                        ........                                ",
"                        ........                                ",
"                                                                ",
"                                                                ",
"                                                                ",
"                                                                ",
"                                                                ",
"                                                                ",
"                                                                ",
"                                                                ",
"                                                                ",
"                                                                ",
"                                                                ",
"                                                                "
};
