/* XPM */
static char *_2_right031671529176[] = {
/* columns rows colors chars-per-pixel */
"64 64 12 1 ",
"  c None",
". c black",
"X c #604020",
"o c #E02828",
"O c #E07838",
"+ c #D8A830",
"@ c #F8C038",
"# c #F0D070",
"$ c #286880",
"% c #909090",
"& c #B0B8F8",
"* c #E8E8F8",
/* pixels */
"                                                                ",
"                                                                ",
"                                                                ",
"                                                                ",
"                                                                ",
"                                                                ",
"                                                                ",
"                                                                ",
"                                                                ",
"                                                                ",
"                                                                ",
"                                                                ",
"                             XXXXXX                             ",
"                             XXXXXX                             ",
"                             XX@@@@XXXX                         ",
"                             XX@@@@XXXX                         ",
"                               ..OO@@@@XXXXXX                   ",
"                               ..OO@@@@XXXXXX                   ",
"                                 ..OO@@@@@@@@XX                 ",
"                                 ..OO@@@@@@@@XX                 ",
"           oo                  XXOOXX@@@@@@@@@@XX               ",
"           oo                  XXOOXX@@@@@@@@@@XX               ",
"           oooooo              XX@@@@@@@@@@@@@@XX               ",
"           oooooo              XX@@@@@@@@@@@@@@XX               ",
"             oo##oo          XXOO@@@@@@@@@@@@@@OOXX             ",
"             oo##oo          XXOO@@@@@@@@@@@@@@OOXX             ",
"             ++##@@oo        ..OO@@@@@@@@@@@@OO@@OOXX           ",
"             ++##@@oo        ..OO@@@@@@@@@@@@OO@@OOXX           ",
"           oooooo@@oo        ..OOOO@@@@@@&&@@OO@@@@XX           ",
"           oooooo@@oo        ..OOOO@@@@@@&&@@OO@@@@XX           ",
"           oooo++oo            ..OOOOOOOO**$$@@@@@@..           ",
"           oooo++oo            ..OOOOOOOO**$$@@@@@@..           ",
"             XXoooo            ....OOOOOOOO..OO@@OO..           ",
"             XXoooo            ....OOOOOOOO..OO@@OO..           ",
"             ..OO..          ..OOOOOOXXOOOOOOOOXX..             ",
"             ..OO..          ..OOOOOOXXOOOOOOOOXX..             ",
"               ..OO..      ..OOOOOOOO++XX......                 ",
"               ..OO..      ..OOOOOOOO++XX......                 ",
"               ..OOOO......OOOOOOOOXX++##XX                     ",
"               ..OOOO......OOOOOOOOXX++##XX                     ",
"                 ..OOOOOOOOOO@@XX@@@@XX####XX                   ",
"                 ..OOOOOOOOOO@@XX@@@@XX####XX                   ",
"                   ..OOOOXX@@@@..@@@@&&XX++XX                   ",
"                   ..OOOOXX@@@@..@@@@&&XX++XX                   ",
"                     ....XXOO@@@@..&&..++..                     ",
"                     ....XXOO@@@@..&&..++..                     ",
"                         ..OOOOOO..XXXX..                       ",
"                         ..OOOOOO..XXXX..                       ",
"                           ..OOOO%%..XX                         ",
"                           ..OOOO%%..XX                         ",
"                             ........                           ",
"                             ........                           ",
"                                                                ",
"                                                                ",
"                                                                ",
"                                                                ",
"                                                                ",
"                                                                ",
"                                                                ",
"                                                                ",
"                                                                ",
"                                                                ",
"                                                                ",
"                                                                "
};
