/* XPM */
static char *_2_up021671529176[] = {
/* columns rows colors chars-per-pixel */
"64 64 8 1 ",
"  c None",
". c black",
"X c #604020",
"o c #E02828",
"O c #E07838",
"+ c #D8A830",
"@ c #F8C038",
"# c #F0D070",
/* pixels */
"                                                                ",
"                                                                ",
"                                                                ",
"                                                                ",
"                                                                ",
"                                                                ",
"                                                                ",
"                                                                ",
"                                                                ",
"                                                                ",
"                                                                ",
"                                                                ",
"                                                                ",
"                                                                ",
"                             XXXXXX                             ",
"                             XXXXXX                             ",
"                         XXXXOO@@OOXXXX                         ",
"                         XXXXOO@@OOXXXX                         ",
"                       XX@@OO@@@@@@OO@@XX                       ",
"                       XX@@OO@@@@@@OO@@XX                       ",
"                       XX@@OO@@@@@@OO@@XX                       ",
"                       XX@@OO@@@@@@OO@@XX                       ",
"                     XX@@@@@@XX@@XX@@@@@@XX                     ",
"                     XX@@@@@@XX@@XX@@@@@@XX                     ",
"                     XX@@@@@@XX@@XX@@@@@@XX                     ",
"                     XX@@@@@@XX@@XX@@@@@@XX                     ",
"                     ..@@@@@@OOXXOO@@@@@@..                     ",
"                     ..@@@@@@OOXXOO@@@@@@..                     ",
"                     ..OO@@@@@@@@@@@@@@OO..                     ",
"                     ..OO@@@@@@@@@@@@@@OO..                     ",
"                     ..OO@@@@oo@@@@@@@@OO..                     ",
"                     ..OO@@@@oo@@@@@@@@OO..                     ",
"                       ..OO@@@@oooo@@OO..                       ",
"                       ..OO@@@@oooo@@OO..                       ",
"                         ..XX@@ooooXX..                         ",
"                         ..XX@@ooooXX..                         ",
"                       ..OO@@oooooo@@OO..                       ",
"                       ..OO@@oooooo@@OO..                       ",
"                       ..@@@@oo++oo@@@@..                       ",
"                       ..@@@@oo++oo@@@@..                       ",
"                     ..@@@@oo++##@@@@@@@@..                     ",
"                     ..@@@@oo++##@@@@@@@@..                     ",
"                     ..OO@@oo++OOXX@@@@@@..                     ",
"                     ..OO@@oo++OOXX@@@@@@..                     ",
"                     ..OOOOXXOOOOOO..@@OO..                     ",
"                     ..OOOOXXOOOOOO..@@OO..                     ",
"                       ......OOOOOO..OOOO..                     ",
"                       ......OOOOOO..OOOO..                     ",
"                             ......  ....                       ",
"                             ......  ....                       ",
"                                                                ",
"                                                                ",
"                                                                ",
"                                                                ",
"                                                                ",
"                                                                ",
"                                                                ",
"                                                                ",
"                                                                ",
"                                                                ",
"                                                                ",
"                                                                ",
"                                                                ",
"                                                                "
};
