/* XPM */
static char *_2_up031671529176[] = {
/* columns rows colors chars-per-pixel */
"64 64 8 1 ",
"  c None",
". c black",
"X c #604020",
"o c #E02828",
"O c #E07838",
"+ c #D8A830",
"@ c #F8C038",
"# c #F0D070",
/* pixels */
"                                                                ",
"                                                                ",
"                                                                ",
"                                                                ",
"                                                                ",
"                                                                ",
"                                                                ",
"                                                                ",
"                                                                ",
"                                                                ",
"                                                                ",
"                                                                ",
"                                                                ",
"                                                                ",
"                             XXXXXX                             ",
"                             XXXXXX                             ",
"                         XXXXOO@@OOXXXX                         ",
"                         XXXXOO@@OOXXXX                         ",
"                       XX@@OO@@@@@@OO@@XX                       ",
"                       XX@@OO@@@@@@OO@@XX                       ",
"                       XX@@OO@@@@@@OO@@XX                       ",
"                       XX@@OO@@@@@@OO@@XX                       ",
"                     XX@@@@@@XX@@XX@@@@@@XX                     ",
"                     XX@@@@@@XX@@XX@@@@@@XX                     ",
"                     XX@@@@@@XX@@XX@@@@@@XX                     ",
"                     XX@@@@@@XX@@XX@@@@@@XX                     ",
"                     ..@@@@@@OOXXOO@@@@@@..                     ",
"                     ..@@@@@@OOXXOO@@@@@@..                     ",
"                     ..OO@@@@oo@@@@@@@@OO..                     ",
"                     ..OO@@@@oo@@@@@@@@OO..                     ",
"                     ..OO@@@@@@oo@@@@@@OO..                     ",
"                     ..OO@@@@@@oo@@@@@@OO..                     ",
"                       ..OO@@@@##oo@@OO..                       ",
"                       ..OO@@@@##oo@@OO..                       ",
"                         ..XXooooooXX..                         ",
"                         ..XXooooooXX..                         ",
"                       ..OO@@oo##oo@@OO..                       ",
"                       ..OO@@oo##oo@@OO..                       ",
"                       ..@@oooo++oo@@@@..                       ",
"                       ..@@oooo++oo@@@@..                       ",
"                     ..@@@@oo++oo@@@@@@@@..                     ",
"                     ..@@@@oo++oo@@@@@@@@..                     ",
"                     ..@@@@XXooOOXX@@@@OO..                     ",
"                     ..@@@@XXooOOXX@@@@OO..                     ",
"                     ..OO@@XXOOOOOO..OOOO..                     ",
"                     ..OO@@XXOOOOOO..OOOO..                     ",
"                     ..OOOO..OOOOOO......                       ",
"                     ..OOOO..OOOOOO......                       ",
"                       ....  ......                             ",
"                       ....  ......                             ",
"                                                                ",
"                                                                ",
"                                                                ",
"                                                                ",
"                                                                ",
"                                                                ",
"                                                                ",
"                                                                ",
"                                                                ",
"                                                                ",
"                                                                ",
"                                                                ",
"                                                                ",
"                                                                "
};
