/* XPM */
static char *down1673351207[] = {
/* columns rows colors chars-per-pixel */
"64 64 20 1 ",
"  c None",
". c black",
"X c gray19",
"o c #373737",
"O c #773F3F",
"+ c gray25",
"@ c #505050",
"# c gray34",
"$ c #704040",
"% c #717171",
"& c #982010",
"* c #C83848",
"= c #BD7B62",
"- c #C87850",
"; c #D8976F",
": c #D89870",
"> c #909090",
", c #F8D0B8",
"< c #A79FC8",
"1 c #E8E8F8",
/* pixels */
"                                                                ",
"                                                                ",
"                                                                ",
"                                                                ",
"                                                                ",
"                           oooooooooo                           ",
"                           oooooooooo                           ",
"                       oooo##%%%%%%##oooo                       ",
"                       oooo##%%%%%%##oooo                       ",
"                     oo##%%%%%%%%%%%%%%##oo                     ",
"                     oo##%%%%%%%%%%%%%%##oo                     ",
"                   oo##%%%%%%%%%%%%%%%%%%##oo                   ",
"                   oo##%%%%%%%%%%%%%%%%%%##oo                   ",
"                   oo##%%%%%%%%%%%%%%%%%%##oo                   ",
"                   oo##%%%%%%%%%%%%%%%%%%##oo                   ",
"                 oo######%%%%%%%%%%%%%%######oo                 ",
"                 oo######%%%%%%%%%%%%%%######oo                 ",
"                 oo####oooo%%%%%%%%%%oooo####oo                 ",
"                 oo####oooo%%%%%%%%%%oooo####oo                 ",
"                 oo##oo::::oo######oo;;;;oo##oo                 ",
"                 oo##oo::::oo######oo;;;;oo##oo                 ",
"                 ..oo==::,,;;oooooo;;,,;;==oo..                 ",
"                 ..oo==::,,;;oooooo;;,,;;==oo..                 ",
"               ..;;OO::,,,,,,,,,,,,,,,,,,::OO;;..               ",
"               ..;;OO::,,,,,,,,,,,,,,,,,,::OO;;..               ",
"               ..;;OO::::,,,,,,,,,,,,,,::;;OO;;..               ",
"               ..;;OO::::,,,,,,,,,,,,,,::;;OO;;..               ",
"                 ..--::--++,,,,,,,,,,++--;;--..                 ",
"                 ..--::--++,,,,,,,,,,++--;;--..                 ",
"                   ..::::<<++--,,--++<<;;;;..                   ",
"                   ..::::<<++--,,--++<<;;;;..                   ",
"                   ..--::11..;;,,;;..11;;--..                   ",
"                   ..--::11..;;,,;;..11;;--..                   ",
"                     ..::;;,,,,,,,,,,;;;;..                     ",
"                     ..::;;,,,,,,,,,,;;;;..                     ",
"                     XX..;;,,,,::,,,,;;..XX..                   ",
"                     XX..;;,,,,::,,,,;;..XX..                   ",
"                     ..XXXXXX::::::XXXXXX@@@@..                 ",
"                     ..XXXXXX::::::XXXXXX@@@@..                 ",
"                   ..XX@@@@@@XXXXXX@@XXXXXXXX::$$               ",
"                   ..XX@@@@@@XXXXXX@@XXXXXXXX::$$               ",
"                   ..@@@@..@@>>>>>>**&&..XX::::$$               ",
"                   ..@@@@..@@>>>>>>**&&..XX::::$$               ",
"                 $$,,,,..XX@@@@>>@@@@@@..  $$$$                 ",
"                 $$,,,,..XX@@@@>>@@@@@@..  $$$$                 ",
"                 $$::::..@@@@@@XX@@@@@@XX..                     ",
"                 $$::::..@@@@@@XX@@@@@@XX..                     ",
"                   $$$$XXXX@@@@XX@@@@XXXX..                     ",
"                   $$$$XXXX@@@@XX@@@@XXXX..                     ",
"                       ....XXXXXXXXXX@@XX..                     ",
"                       ....XXXXXXXXXX@@XX..                     ",
"                           ......XX@@@@XX..                     ",
"                           ......XX@@@@XX..                     ",
"                                 ..XXXX..                       ",
"                                 ..XXXX..                       ",
"                                 ..@@@@..                       ",
"                                 ..@@@@..                       ",
"                                   ....                         ",
"                                   ....                         ",
"                                                                ",
"                                                                ",
"                                                                ",
"                                                                ",
"                                                                "
};
