/* XPM */
static char *left1673351207[] = {
/* columns rows colors chars-per-pixel */
"64 64 18 1 ",
"  c None",
". c black",
"X c gray19",
"o c #373737",
"O c gray25",
"+ c #505050",
"@ c gray34",
"# c #704040",
"$ c #717171",
"% c #982010",
"& c #C83848",
"* c #C87850",
"= c #D8976F",
"- c #909090",
"; c #E8B080",
": c #F8D0B8",
"> c #A79FC8",
", c #E8E8F8",
/* pixels */
"                                                                ",
"                                                                ",
"                                                                ",
"                                                                ",
"                                                                ",
"                                                                ",
"                            oooooooo                            ",
"                            oooooooo                            ",
"                        oooo@@$$$$@@oooo                        ",
"                        oooo@@$$$$@@oooo                        ",
"                      oo@@$$$$$$$$$$$$@@oo                      ",
"                      oo@@$$$$$$$$$$$$@@oo                      ",
"                    oo@@$$$$$$$$$$$$$$$$@@oo                    ",
"                    oo@@$$$$$$$$$$$$$$$$@@oo                    ",
"                    oo$$$$$$$$$$$$$$$$$$$$oo                    ",
"                    oo$$$$$$$$$$$$$$$$$$$$oo                    ",
"                  oo@@$$$$$$$$$$$$$$$$$$$$@@oo                  ",
"                  oo@@$$$$$$$$$$$$$$$$$$$$@@oo                  ",
"                  oo$$$$$$oooooo$$$$$$$$$$@@oo                  ",
"                  oo$$$$$$oooooo$$$$$$$$$$@@oo                  ",
"                  ##oooooo======oo$$$$$$@@@@oo                  ",
"                  ##oooooo======oo$$$$$$@@@@oo                  ",
"                  ##======::::==oo$$@@@@@@@@..                  ",
"                  ##======::::==oo$$@@@@@@@@..                  ",
"                  ##::::::::====oo@@@@@@@@@@..                  ",
"                  ##::::::::====oo@@@@@@@@@@..                  ",
"                  ##::::::====**oo@@@@@@@@@@..                  ",
"                  ##::::::====**oo@@@@@@@@@@..                  ",
"                  ##::::OO**==oo@@@@@@@@@@@@..                  ",
"                  ##::::OO**==oo@@@@@@@@@@@@..                  ",
"                  ##**OO>>====oooooo@@@@@@..                    ",
"                  ##**OO>>====oooooo@@@@@@..                    ",
"                  ##==..,,====oo==::oo@@@@..                    ",
"                  ##==..,,====oo==::oo@@@@..                    ",
"                  ##::::::========::oo@@..                      ",
"                  ##::::::========::oo@@..                      ",
"                    ##::::========oooo..                        ",
"                    ##::::========oooo..                        ",
"                      ######====oooo..                          ",
"                      ######====oooo..                          ",
"                        ..----oooo..                            ",
"                        ..----oooo..                            ",
"                      XX&&%%XXXX++..                            ",
"                      XX&&%%XXXX++..                            ",
"                      XX++XX..++++++..                          ",
"                      XX++XX..++++++..                          ",
"                      XXXXXXXX..::::..                          ",
"                      XXXXXXXX..::::..                          ",
"                      ..++++XX..;;;;....                        ",
"                      ..++++XX..;;;;....                        ",
"                      ..++++++++....XXXX..                      ",
"                      ..++++++++....XXXX..                      ",
"                    XX++..XX++XXXXXX..XX..                      ",
"                    XX++..XX++XXXXXX..XX..                      ",
"                    ..++++++....  ..XXXX..                      ",
"                    ..++++++....  ..XXXX..                      ",
"                      ......        ....                        ",
"                      ......        ....                        ",
"                                                                ",
"                                                                ",
"                                                                ",
"                                                                ",
"                                                                ",
"                                                                "
};
