/* XPM */
static char *right1673351231[] = {
/* columns rows colors chars-per-pixel */
"64 64 27 1 ",
"  c None",
". c black",
"X c #191919",
"o c gray14",
"O c #282828",
"+ c #323232",
"@ c #561B34",
"# c gray25",
"$ c #444444",
"% c gray31",
"& c #784040",
"* c #405870",
"= c gray49",
"- c #821E4E",
"; c #A6246F",
": c #68F800",
"> c #D08858",
", c #CF966F",
"< c #D89870",
"1 c #E070D8",
"2 c #F0B888",
"3 c #F8D0B8",
"4 c #B8B8D8",
"5 c gray80",
"6 c #D8D0E8",
"7 c #E8E8F8",
"8 c gray95",
/* pixels */
"                                                                ",
"                                                                ",
"                                                                ",
"                                                                ",
"                            ............                        ",
"                            ............                        ",
"                        ....;;;;;;;;;;;;....                    ",
"                        ....;;;;;;;;;;;;....                    ",
"                    ....;;;;;;;;;;;;;;;;;;;;....                ",
"                    ....;;;;;;;;;;;;;;;;;;;;....                ",
"                  ..;;11;;;;;;;;;;;;;;;;;;;;;;11..              ",
"                  ..;;11;;;;;;;;;;;;;;;;;;;;;;11..              ",
"                  ..111111;;;;;;;;;;;;;;;;1111;;..              ",
"                  ..111111;;;;;;;;;;;;;;;;1111;;..              ",
"                ..;;;;;;111111;;;;;;111111;;;;;;;;..            ",
"                ..;;;;;;111111;;;;;;111111;;;;;;;;..            ",
"                ..--;;;;;;;;111111111111;;;;;;;;;;..            ",
"                ..--;;;;;;;;111111111111;;;;;;;;;;..            ",
"              ..------;;;;;;;;;;11111111----------..            ",
"              ..------;;;;;;;;;;11111111----------..            ",
"              ..--------;;;;;;;;;;;;;;----<<<<----..            ",
"              ..--------;;;;;;;;;;;;;;----<<<<----..            ",
"            ..@@@@--------;;;;;;;;;;----,,333333@@..            ",
"            ..@@@@--------;;;;;;;;;;----,,333333@@..            ",
"            ..@@@@@@--------;;;;;;----,,--333333--              ",
"            ..@@@@@@--------;;;;;;----,,--333333--              ",
"            ..@@@@@@@@--------@@@@-->>3366..3333&&              ",
"            ..@@@@@@@@--------@@@@-->>3366..3333&&              ",
"            ..@@@@@@@@@@----@@22@@-->>3377**3333<<              ",
"            ..@@@@@@@@@@----@@22@@-->>3377**3333<<              ",
"            ..@@@@@@@@@@@@--@@::<<-->>3333333333<<              ",
"            ..@@@@@@@@@@@@--@@::<<-->>3333333333<<              ",
"            ..@@@@@@@@@@....  @@@@<<33333333<<&&                ",
"            ..@@@@@@@@@@....  @@@@<<33333333<<&&                ",
"            ..@@@@@@@@..      ..44..======....                  ",
"            ..@@@@@@@@..      ..44..======....                  ",
"            ..@@@@@@@@..      ..445555oo..                      ",
"            ..@@@@@@@@..      ..445555oo..                      ",
"            ..@@@@@@..      XX++4455oo%%%%XX                    ",
"            ..@@@@@@..      XX++4455oo%%%%XX                    ",
"            ..@@@@@@..      XX++++oo55..%%%%XXXX                ",
"            ..@@@@@@..      XX++++oo55..%%%%XXXX                ",
"            ..@@@@..          XXXXXX>>>>oo%%%%ooXX              ",
"            ..@@@@..          XXXXXX>>>>oo%%%%ooXX              ",
"            ..@@@@..              $$554444oo++++XX              ",
"            ..@@@@..              $$554444oo++++XX              ",
"              ....              $$5544888844XXXX                ",
"              ....              $$5544888844XXXX                ",
"                ....          $$====$$$$====$$                  ",
"                ....          $$====$$$$====$$                  ",
"                              ..22>>....OOOOOO..                ",
"                              ..22>>....OOOOOO..                ",
"                            ..OO22>>..  ........                ",
"                            ..OO22>>..  ........                ",
"                            ..OOOO..                            ",
"                            ..OOOO..                            ",
"                            ..OO##..                            ",
"                            ..OO##..                            ",
"                              ....                              ",
"                              ....                              ",
"                                                                ",
"                                                                ",
"                                                                ",
"                                                                "
};
