/* XPM */
static char *up1673351207[] = {
/* columns rows colors chars-per-pixel */
"64 64 12 1 ",
"  c None",
". c black",
"X c gray19",
"o c #373737",
"O c #773F3F",
"+ c gray26",
"@ c #505050",
"# c gray34",
"$ c #704040",
"% c #717171",
"& c #D89870",
"* c #F8D0B8",
/* pixels */
"                                                                ",
"                                                                ",
"                                                                ",
"                                                                ",
"                                                                ",
"                           oooooooooo                           ",
"                           oooooooooo                           ",
"                       oooo##%%%%%%##oooo                       ",
"                       oooo##%%%%%%##oooo                       ",
"                     oo##%%%%%%%%%%%%%%##oo                     ",
"                     oo##%%%%%%%%%%%%%%##oo                     ",
"                   oo##%%%%%%%%%%%%%%%%%%##oo                   ",
"                   oo##%%%%%%%%%%%%%%%%%%##oo                   ",
"                   oo##%%%%%%%%%%%%%%%%%%##oo                   ",
"                   oo##%%%%%%%%%%%%%%%%%%##oo                   ",
"                 oo####%%%%%%%%%%%%%%%%%%####oo                 ",
"                 oo####%%%%%%%%%%%%%%%%%%####oo                 ",
"                 oo####%%%%%%%%%%%%%%%%%%####oo                 ",
"                 oo####%%%%%%%%%%%%%%%%%%####oo                 ",
"                 oo######%%%%%%%%%%%%%%######oo                 ",
"                 oo######%%%%%%%%%%%%%%######oo                 ",
"                 ..########%%%%%%%%%%########..                 ",
"                 ..########%%%%%%%%%%########..                 ",
"               ..&&++######################++&&..               ",
"               ..&&++######################++&&..               ",
"               ..&&++######################++&&..               ",
"               ..&&++######################++&&..               ",
"                 ..OO######################OO..                 ",
"                 ..OO######################OO..                 ",
"                   ..######################..                   ",
"                   ..######################..                   ",
"                   ..&&##################&&..                   ",
"                   ..&&##################&&..                   ",
"                     ..&&&&##########&&&&..                     ",
"                     ..&&&&##########&&&&..                     ",
"                     XX....&&&&&&&&&&....XXXX                   ",
"                     XX....&&&&&&&&&&....XXXX                   ",
"                     XX@@XX..........XX@@@@@@XX                 ",
"                     XX@@XX..........XX@@@@@@XX                 ",
"                   XX@@@@@@XXXXXXXXXX@@XX@@XX&&$$               ",
"                   XX@@@@@@XXXXXXXXXX@@XX@@XX&&$$               ",
"                   XX@@@@XX@@@@@@@@@@@@..XX&&&&$$               ",
"                   XX@@@@XX@@@@@@@@@@@@..XX&&&&$$               ",
"                 $$**XX@@XX@@@@@@@@@@@@..  $$$$                 ",
"                 $$**XX@@XX@@@@@@@@@@@@..  $$$$                 ",
"                 $$&&&&....@@@@@@@@@@XXXX..                     ",
"                 $$&&&&....@@@@@@@@@@XXXX..                     ",
"                   $$$$..XXXXXXXXXXXX@@XX..                     ",
"                   $$$$..XXXXXXXXXXXX@@XX..                     ",
"                       ....XXXXXX@@@@@@@@..                     ",
"                       ....XXXXXX@@@@@@@@..                     ",
"                           ......XX@@@@XX..                     ",
"                           ......XX@@@@XX..                     ",
"                                 ..XXXX..                       ",
"                                 ..XXXX..                       ",
"                                 ..@@@@..                       ",
"                                 ..@@@@..                       ",
"                                   ....                         ",
"                                   ....                         ",
"                                                                ",
"                                                                ",
"                                                                ",
"                                                                ",
"                                                                "
};
