/* XPM */
static char *_1_exit1671618770[] = {
/* columns rows colors chars-per-pixel */
"64 64 111 2 ",
"   c None",
".  c #48301E",
"X  c #473322",
"o  c #43372A",
"O  c #413A2E",
"+  c #443E33",
"@  c #653E2B",
"#  c #4A453A",
"$  c #524234",
"%  c #5F4537",
"&  c #52473C",
"*  c #54493D",
"=  c #604637",
"-  c #6A4533",
";  c #734531",
":  c #734937",
">  c #7A4934",
",  c #744B39",
"<  c #574D41",
"1  c #4F524B",
"2  c #55554F",
"3  c #505C5B",
"4  c #675144",
"5  c #6C5143",
"6  c #6B574A",
"7  c #725244",
"8  c #725648",
"9  c #7C5749",
"0  c #765B4D",
"q  c #7E594A",
"w  c #775D50",
"e  c #785E51",
"r  c #53605F",
"t  c #5B615A",
"y  c #71645B",
"u  c #586767",
"i  c #5B6B6B",
"p  c #576D72",
"a  c #586E73",
"s  c #5B7176",
"d  c #5E767B",
"f  c #5F787E",
"g  c #646664",
"h  c #636867",
"j  c #6C6964",
"k  c #686B69",
"l  c #766961",
"z  c #637476",
"x  c #6D7676",
"c  c #637779",
"v  c #61797F",
"b  c #6D7A7B",
"n  c #707675",
"m  c #727977",
"M  c #7B7975",
"N  c #757C7B",
"B  c #787F7E",
"V  c #824D39",
"C  c #82513C",
"Z  c #8D533E",
"A  c #8E5741",
"S  c #815A4C",
"D  c #905740",
"F  c #935B43",
"G  c #835E50",
"H  c #956145",
"J  c #99634A",
"K  c #9C684C",
"L  c #866153",
"P  c #886454",
"I  c #8B6957",
"U  c #8D6D5A",
"Y  c #9F6A51",
"T  c #90705D",
"R  c #A16A50",
"E  c #A77156",
"W  c #AD765B",
"Q  c #816C63",
"!  c #997764",
"~  c #937D6F",
"^  c #9D7A68",
"/  c #917E72",
"(  c #78807E",
")  c #637C82",
"_  c #727F80",
"`  c #668187",
"'  c #678288",
"]  c #6A858B",
"[  c #6C888E",
"{  c #758384",
"}  c #7B8482",
"|  c #74878A",
" . c #7B8788",
".. c #738A8D",
"X. c #7D8B8C",
"o. c #6E8A91",
"O. c #728E95",
"+. c #739096",
"@. c #7E9193",
"#. c #76949B",
"$. c #78979E",
"%. c #79989F",
"&. c #7C9CA3",
"*. c #7FA0A7",
"=. c #7FA0A8",
"-. c #808F8F",
";. c #818F90",
":. c #809CA2",
">. c #80A0A6",
",. c #82A4AB",
"<. c #85A8AF",
/* pixels */
"                                                                                                                                ",
"                                                                                                                                ",
"                                                                                                                                ",
"                                                                                                                                ",
"                                                              +.+.O.O.O.O.O.O.+.+.O.+.                                          ",
"                                                              +.O.O.O.O.O.+.O.O.O.+.O.                                          ",
"                                                              o.O.$.$.#.$.#.&.#.#.+.O.                                          ",
"                          +.O.O.O.+.O.o.[ [ [         O.O.o.[ o.O.&.=.,.=.=.,.=.&.+.[ [ [ [ [                                   ",
"                          $.#.$.#.O... .} } }         +.O.O.+.+.$.=.<.<.<.<.<.<.&.O.[ } } -.(                                   ",
"                  O.$.&.,.=.*.,.&.+. ./ ^ ^ ~ } O.O.+.O.+.&.&.&.&.=.,.,.<.<.<.<.,.O. ./ ^ ^ ^ ( o.O.O.O.O.                      ",
"                  $.&.=.,.<.<.<.>.+.} ^ W W ^ ( o.O.O.O.&.&.:.,.,.,.,.<.<.<.<.<.>.O.( ^ W W ^ } o.#.$.$.$.                      ",
"              O.$.&.=.,.<.<.<.<.>.+.( ^ W W ^ } [ O.O.O.+.&.,.,.=.,.,.<.<.<.<.<.*.+.} ^ W W ^ } O.&.=.,.&.O.o.O.O.              ",
"              O.#.*.<.<.<.<.<.<.>.+.} ! E E ^ } o.o.O.O.#.&.,.,.,.,.,.,.<.<.<.<.*.+.( ! E E ! ( O.*.<.<.,.#.O.$.#.              ",
"              +.$.,.<.<.<.<.<.<.>.O.B T K K T B o.O.+.+.#.&.,.:.,.&.,.,.,.,.<.<.*.+.( T K K T ( O.*.<.<.,.,.&.:.&.$.O.          ",
"              O.#.&.,.,.<.<.<.<.,.O.M U F F U _ ] _ _ _ _  .X...X.X.X.X.X.;.;.;.X.O.N U H H I N +.*.<.<.<.<.<.,.&.#.O.          ",
"              +.+.#.%.,.<.<.<.<.>.+.B U J F G _ ) e 8 8 8 w w 0 w w 0 w e e w w l b ( U H F P N +.*.<.<.<.<.,.,.&.#.+.          ",
"              #.&.#.&.&.&.&.=.,.=.+.B I F A G N m 9 > V A , V A , A , A A A V V 9 n _ I F D G N +.*.<.,.,.=.=.&.&.+.O.          ",
"          O.#.&.&.&.&.O.O.#.$.=.=.+.N P A A L N N G D J R R Y Y R Y Y Y J R J D G _ M P D D G _ +.*.<.,.&.$.+.$.$.              ",
"          &.&.&.,.&.&.#.o.o.O.&.&.O.N L D Z L N N G F R E E E E E E R E E E R F G _ M G D D G M o.&.*.&.&.O.o.o.O.              ",
"      +.$.&.&.,.,.,.:.&.&.o.o.#.+.o.N L Z D G N N G F J Y K K K K K Y Y J J J D G M _ G D D G _ o.+.+.#.+.+.+.O.O.              ",
"      O.#.,.,.,.,.,.,.,.&.o.o.O.O..._ G D D G M _ Q G I U U T U U T U U T T I G Q _ _ G D Z G M [ [ [ o.+.+.+.#.#.              ",
"      O.#.=.<.<.,.<.<.,.&.O.o.O.O...B G D Z G N ] _ N B B } { { { _ B B _ _ _ _ _ _ _ G Z D G N [ [ [ [ o.O.#.&.&.#.O.          ",
"      O.$.=.<.<.<.<.<.,.&.+.o.O.O.[ M G D D G _ ] o...[ O.o.O.O.O.[ ..[ o.) o.O.o.o._ L D A G N [ [ [ [ o.+.&.=.&.&.$.          ",
"      O.$.,.<.<.<.<.<.<.&.$.O.O.O.[ _ G D D G M o.o.O.O.O.] [ o.O.O.O.O.o.o.o.) o.) / L D D P N [ [ [ [ O.&.=.,.,.&.&.,.,.      ",
"      +.$.,.<.<.<.<.<.<.=.$.O.+.O.[ _ G A V G N [ O.O.O.o.] ] O.O.O.O.O.O.O.[ [ [ [ m G D Z G n [ [ o.o.+.=.<.<.<.,.,.&.&.      ",
"          <.<.<.<.<.<.<.=.$.O.O.O.[ _ G A > 9 x o.O.O.O.O.) ] o.O.O.O.O.O.O.O.O.O.[ N G Z V 0 n [ [ o.o.$.=.<.<.<.<.=.$.$.      ",
"          *.,.,.<.<.,.,.&.#.O.+.O.o.M G V > 8 x o.O.O.O.o.] ] o.O.O.O.O.O.O.O.O.O.[ N G V > 7 x [ [ o.O.$.=.<.<.<.<.,.$.O.      ",
"          +.#.=.<.<.=.#.+.+.O.+.O..._ G A > 8 x o.O.O._ ] ] ) ] [ O.O.O.O.O.O.O.O.O.N G Z > 8 x o.o.O.O.$.=.<.<.<.<.=.$.O.      ",
"          o.+.&.,.*.%.+.[ O.+.o.o.o.N G V > 8 x ) | _ N m m m m N ( } } } } } _ { | N G V > 8 x o.O.O.O.$.:.<.<.<.<.=.$.+.      ",
"          O.O.#.#.+.O.[ [ O.o.[ [ _ N q V @ 8 m _ Q P P I I I I U T T T T T U I l B n 0 > ; 8 x o.o.O.O.$.&.,.<.<.,.,.#.O.      ",
"          O.O.#.#.+.+.+.+.O.[ ] ) d g 7 @ @ 7 g k 9 A A F F F F F H F F F F F Z S j g 5 ; ; 7 g c [ o.O.+.&.,.<.<.<.,.&.$.      ",
"      O.O.o.O.&.*.&.&.&.#.o.' ' s 1 + @ > > @ % @ 5 > A F F F F F D D F F D Z V ; $ + - ; ; ; + 1 s ] ] o.&.,.<.<.<.<.&.&.      ",
"      O.o.o.+.*.<.,.,.=.&.o.` ` k + . @ V @ @ . . @ V V D D Z A Z Z Z D Z D Z V @ . . @ @ > @ . + h ) ] o.&.&.,.<.,.&.&.&.      ",
"      O.+.[ +.*.<.<.<.<.&.o.` ` h + . @ @ V @ . . @ > V Z Z D A Z D D Z D Z Z @ @ . . @ ; ; @ . + p ] ) ] &.,.,.&.&.+.&.&.      ",
"      +.+.O.$.=.<.<.<.<.&.[ ) ) i + . @ V @ @ . . = 7 9 S S S S S G G G G G S 9 = X . @ ; ; @ . + i ) ) ) &.&.&.&.#.O.+.+.      ",
"          &.*.,.<.<.<.<.%.` s s r + . @ @ V @ . o 2 g g g g g g k n n n M m k g 2 o . @ ; ; @ . + i ) ) ) o.#.&.+.+.O.          ",
"          ,.,.<.<.<.<.<.&.v p p 3 O . @ V @ @ . O 3 a a p p p p a ) ) ) ) ) ) a 3 O . @ ; ; @ . + u ) a ) ] #.+.+.+.+.          ",
"          ,.,.,.<.<.<.<.%.v p p 3 O . @ @ > @ . O 3 p p p p p p p s s s s s s a 3 O . @ ; ; @ . + r s a ) O.&.                  ",
"          &.*.,.<.<.<.<.$.) p p 3 O . @ : @ @ . O 3 p p p p p p p p p p p p p p 3 O . @ ; ; @ . O 3 p p ) O.&.                  ",
"          #.&.=.<.<.<.,.$.) p p 3 O . @ > @ @ . O 3 p p p p p p p p p p p p p p 3 O . @ ; ; @ . O 3 p p d o.#.                  ",
"          O.#.&.,.,.,.,.$.) s a 3 O . @ @ ; @ . O 3 p p p p p p p p p p p p p p 3 O . @ ; ; @ . O 3 a f ) o.O.                  ",
"          +.O.+.#.&.,.,.&.o.) s 3 O . @ > ; @ . O 3 p p p p p p p p p p p p p p 3 o . @ ; ; @ . O 3 v o.&.+.O.O.+.              ",
"          O.O.o.O.$.&.&.$.O.` d 3 O . @ ; ; @ . O 3 p p p p p p p p p p p p p p 3 O . @ ; ; @ . O 3 f #.&.&.$.#.&.              ",
"              O.O.O.O.O.O.O.] s 3 O . @ ; ; @ . + 3 p i p p p p p p p p p p p p 3 O . @ ; ; @ . O 3 ) &.,.,.,.&.&.O.O.          ",
"              O.O.o.[ [ O.#.O.] u + . @ ; ; @ . o 2 u g g g g g g g g g g g g g 2 o . @ @ : @ . + u [ &.<.<.<.,.&.#.O.          ",
"                  O.O.O.+.&.>.&.b # . @ ; ; @ . . - 7 9 S S S S S S S S S S 9 7 @ X . @ ; ; @ . # ) &.,.<.<.<.<.&.+.o.          ",
"                  O.O.#.&.,.<.<.O.3 < 4 7 : @ . . @ > V C Z C Z V Z V Z Z V V > @ X . @ , 8 6 < t @.<.<.<.<.<.<.=.+.[           ",
"                  O.#.&.&.,.<.<.>.;.] N l 7 @ . . @ ; > > > > > > > > > > > > > @ X . @ 9 M X.| +.:.<.<.<.<.<.<.=.+.o.          ",
"                  O.#.&.<.<.<.<.<.<.,.$.{ l 6 * * 4 8 0 0 0 y 9 e e e e e e e w 6 * & 4 l @.,.,.<.<.<.<.<.<.,.=.&.+.[           ",
"              +.+.O.#.,.<.<.<.<.<.<.,.,.&.@.| b z x N  .X.X.-.-.;.;.;.;.;.;.;.-. .c z b  .:.<.<.<.<.<.<.<.<.,.#.+.              ",
"              O.O.O.$.,.<.<.<.<.<.<.<.<.,.*.%.+.+.o.#.*.,.,.,.,.<.<.<.<.<.<.<.<.,.$.+.+.$.&.,.,.<.<.<.<.,.,.&.+.[               ",
"              +.O.o.+.&.<.<.<.<.<.<.<.<.*.#.+.O.+.&.=.=.<.<.<.<.<.<.<.<.<.<.<.<.,.=.&.+.+.$.&.&.,.<.<.<.,.&.#.                  ",
"              O.O.o.#.&.,.<.<.<.<.<.<.,.&.+.o.O.#.&.&.,.<.<.<.<.<.<.<.<.<.<.<.<.<.<.=.$.O.O.$.&.&.:.=.,.&.$.O.                  ",
"                  O.#.&.,.,.,.,.<.<.,.<.&.$.O.O.+.#.&.,.<.<.<.<.<.<.<.<.<.<.<.<.<.,.&.#.+.O.O.#.$.#.+.#.$.                      ",
"                  O.$.&.,.,.:.,.&.,.,.&.&.$.+.O.O.+.$.&.,.,.<.<.<.<.<.<.<.<.,.=.&.&.&.#.+.O.O.O.o.o.o.O.O.                      ",
"                      ,.&.,.&.#.O.#.$.#.#.            O.#.*.,.<.<.<.<.<.<.<.,.$.#.#.#.                                          ",
"                      ,.,.,.&.O.o.O.O.O.O.            [ O.&.,.<.<.<.,.<.<.<.&.#.o.O.O.                                          ",
"                                                                  ,.,.,.,.:.,.                                                  ",
"                                                                  ,.,.,.,.,.,.                                                  ",
"                                                                                                                                ",
"                                                                                                                                ",
"                                                                                                                                ",
"                                                                                                                                ",
"                                                                                                                                "
};
