/* XPM */
static char *_1_ground1671618771[] = {
/* columns rows colors chars-per-pixel */
"64 64 46 1 ",
"  c #A5B9BD",
". c #A9BDC1",
"X c #B7CBD0",
"o c #BACED3",
"O c #BBD0D5",
"+ c #BCD0D5",
"@ c #C3D7DB",
"# c #C3D7DC",
"$ c #C4D8DD",
"% c #C4D9DE",
"& c #C6DADF",
"* c #C6DBE0",
"= c #C7DBE0",
"- c #C7DCE1",
"; c #C8DDE2",
": c #CADFE4",
"> c #CBDFE4",
", c #CBDFE5",
"< c #CBE0E5",
"1 c #CCE1E6",
"2 c #CDE2E7",
"3 c #CFE3E7",
"4 c #CFE3E9",
"5 c #CFE4E9",
"6 c #D0E4E9",
"7 c #D0E4EA",
"8 c #D1E5EB",
"9 c #D2E7EB",
"0 c #D3E7EC",
"q c #D3E7ED",
"w c #D3E8EC",
"e c #D4E8EE",
"r c #D5E9EF",
"t c #D6EBEF",
"y c #D7EBEF",
"u c #D6EAF0",
"i c #D7EBF0",
"p c #D7EBF1",
"a c #D7ECF1",
"s c #D8ECF0",
"d c #D9EDF1",
"f c #D8ECF2",
"g c #DBEFF4",
"h c #DCF0F4",
"j c #DCF0F5",
"k c #DDF1F5",
/* pixels */
" o842<2qruq4<<<<8hhjjkkkkkkkjkyruw4:45wur82;222djjjkkkkkkkhhy8w5",
"o=rq42<48rrq85428ahjkkkkkkkkjhrauw54:4wwrr88822rdjkkkkkkkkkkdyu8",
"8ruur8<<2wuuuuq25rdjkkkkkkkkjjauuuuq4<:5uuuur8:8rkkkkkkkkkkkauuw",
"quuur8<<28uuurq225rhkkkkkkkkjjduuuuq:<<5uuuur222wkkkkkkkkkkkdurq",
"8uuuu8<<<8uuuuq2<<8kjjjjkkkkkhduuuuq4<<5uuuur82;3dkkkkkkjjjjduuq",
"ruuuu4<<2quuuuq2<<39y9djkkkhdduuuuuq:<<5uuuur222<8r8rhkhjjjdduuq",
"ruuur8:<<wuuuuq2<<<<<<qjkkhhduuuuuwq4<<quurrr22;<<<<3dhhkjguuuuu",
"uuuq52<<<wuuuuq2<<<<<<4w99rdyyuuuqq4:::4irrrr8,2<<<<3899rdauuuuu",
"rru5:22:<wruurw24:::2::<<<quuruuu5<<<<-5uuuur6,;<<<<<2228wurrrrq",
"4442::::2warr54:::2:2:4qwq54444544<<4-55uuwq22,2<<<<288ww5444444",
":22:2::2<rrr5<:::44422quuu4<::4;<<<<:<:5uuu2;,;222225rru8<<<<<<<",
"::::2::228r8<==%-5qqqqquuu4:2:::<<<<4-45u4q-=%=2qqqqqrrrq<<<<<<<",
"--:;<:::<884<%##:quuuuuuww4:<<::::-::444e4-;%@%8ruuururr822;::;:",
"%%%%%-2:<22<:%##:quuuuuuq<<<<:=%%*%=;:-<222=##%8uuuudrr424;4-%%%",
"$%%$#-<<<<:2-===:ruuuuwq5<<<<:=-%##=4::4:4:-%-=4uuuur882-2;,;%%@",
"%%$@#-<<<<:2<:<-4wuuuuq4<<<<:::-%##%-42-2-2-:-:ruuuur22;2;2:2;%%",
";;%%&;2;<<<<<<<<2qqw54<;--<<<<<<;%%;;<<<-24-5-45wq884;;;;22:::;=",
",,,;2,>2<<<<<<<<<:<2:==%#%-<<<<<;;<;2<<<5-2222-22<2%$$$$=;::2:::",
"42>22883455442:<<<<==###-=-<<<<<222855855422-2-2:;%%$@@&;:22:;:2",
",,>8rrrrwuuuq2:<<<-*####-<<<<<<<22rrrrurwuu55-5-,%$%@$&;2:::44::",
";48udddddauuq2<<<<=#####-<<<<<<26rddkddruuu52-42;%@$@@&2<<<<;:48",
"26rdkkkkjuuuq5<<<<-*####-<<<<<<<qrdkkkjkuawq2--2,%%@$@;;<<<<<28r",
"4qyuggkkjduuw4<<<<-;--==:<<<<<4quudjjkjguuu5-44->;;;&&;;<<<<48rr",
"qrryrgkkguuuu2<<<<<<<<::<<<<<2wuuurdjjjuuueq22-22;2;,2,2<<<:8uuu",
"qrruudgaduuuw4:<<<<<<<<<<<<<<<wuuuuudjaruuu4:44:<<2;<<<<<<2:8rru",
"rruuuuuuuuuuq2<<<<<<22<2<<<<<5wauuuuuuuuuuuq2=-2<2<22<2<<<::8ruu",
"5quuuurduuuuw4<<<:5udrw93<<<<<55rdruuuuuuueq:4:-28rrr84<<:2225rr",
"<5ruuuuruuuuq4<<<5wjkkdy822<<<<58ruuuuuuuuu52-228dkkkdr522<:<<8r",
"<44qrrrruuuuq4<<5udjjkkkdyr82<<<55uruuuuwuu4-32wdhkkkkdrr882<222",
"4<<qrrrruuuuq<<<qgjjkkkkkkdr83<544r9uuuuuuu45-2ykkkkkkkkkd922222",
"qww5828wuuwq2:::5jjjkkkkkkkhdy99q55444ruuw22<-2ykkkkkkkkkdddrrr8",
"rrrr2<;8uuw5444:qujhkkkkkkkkjhhrr952<4rruw22252rhkkkkkkkkkjjdurr",
"uuuur5<289rr8r825yhkkkjjkkkkjjduuur8<<55urrww8<9kdjjkkkkkkkkdyry",
"uuuur5<<;rrurr8238yhkkkjkkkkjjuuuu9q2<<5uurrr2828kjjkkkkkkkkdruu",
"duuur8<<8quudrr2<59kkkhhkkkkkjduuuuq2<<5uuuui8<23dkkkkkkkkkkjuuu",
"uuurr5<<<8uuur82<<8rdyhjkkkkkkuuuuur<<:wuuuur2<<5rrdhkkkkkhdauuu",
"uuuur8<<<wruuur2<<<<22rhkkkkdauuuuuq2<<5uuuuy3<<<2229djjjjduruuu",
"uuuu53<<<9uuur88<<<<<<8yrrddduuuuuq4<<25uuuur3<<<<<<89rragauuuuu",
"uuuw<<<<29uurrq2<<<<<<<2<2rrrurduq4:;2;ruuirr6<<<<<<<2<2qrruuuuu",
"q554<<<<2ruurq62<<<<<<2388888888544:2<;4uuu082<<<<<<<58558q4qw5w",
":<<<<<<<28rrw8;2<<22-45urr82::2;<<<<22-5urr82<<<2,:26ruuw<<<<<<<",
"<<<<<<<<28r03;;%<588q5rrdr6::2;2<<<<-445rr42&&;288888ruiq4<<<<<<",
"<<<<<:<<28r2;%@%-uuruurrrr82:2:2<<<<2-;6r8<%@@%8rruururr5<<<<2<<",
"=====:<<2222<%@@<wuruuyr832;2-;%-----242824%$%&3uruuuuq64<<<-%--",
"#####-<<2;22,%%%-uuuuuuw8;222;%%##@%:4;2<<<%%%%8uuuurrr2<;;2-%@%",
"-=###-<<2;;2>;=%4wuwuuwq222;22;%%#%%;:22<<<-;%;8uuuur822222<;;%@",
"<;%#%-<<;22;2;-42quuuu4-2;2;;2<;%%%=2:4;<<<<4228rurr8,;2;22;:<%%",
"<<-:-:<<22;2,22:245<4---%%;22;<<;;;;;2-2<<<<2;>2663;;;%%;;2;24;;",
"<<<44<4<4<222::2<<<2%%@$$%;2<<<<<<244<45254<<<<<:;;%@@$$=,22;;22",
"<<:4wrqqwwqu82::<<%&$%$@%;;><<<<<28wqqqwq9q4<<<<;;=%$@%;;,;<2<;2",
"<<4qdrdyuuuuq22:<<%%@@@$;;2><<<228rauadrruq5<<<<:%@#@%%;2,24<222",
"<4quhhjjjauuq42:<3;%@@$@;>2,<<<28rgjdjhduuuq<<<<,%$#@%&,2;,;;;8r",
"5qudgjjkjauuq4;<<<-%&%%%;2;22228rddjjjjkuuu5<<<<;=%%%;;;;22;22rr",
"qrraadjjjauuq4<<<<<;<-<<;>2;;28rrradjjjduuu8<<<<,,>;>;;2<<<<8rrr",
"ruuuudjjdduuq4<<<<<<<<<<2;2222riuuudgggduuu4<<<<22;222;22<;48urr",
"rruuuuuuuuurq5<<<<<<<<<<,2;2;28ruuuuuduuuuu8<<<<,,2;>>2;2;<28uui",
"5uuuuuuuuuuuw4:<<<3899856,22<289uuuuuuuuuuuq::<<28988822<<<<28rr",
"25uuuuuuuuuuw5<<<<8hhhyr42;;<<<2wuuuuuuuuuu5<<<:2rkkdr8;;2<<2<8r",
"O%5uuuuuuuuuq4<<39yhhkhdrqr22<<25quuuuuuuuu5<<45rdkkkkdr888<<<88",
".o<5uuuuuuuuq4<<8hkkhkkkgkdw2<<2<4quuuuuuuu5<<2ukhkkkkkkdu8<<<<2",
".X4455qruurq5<<<8khkkkkkjjkdur88q5555wuuuu42<<3ykkkkkkkkjdrr8888",
" or5<<24uuw2<<<<8khkkkkkjjjjjjdruw4<<5uuu5<<<<<ykkkkkkkkjdkddrr9",
".oru54<45uuqq5528rkkkkkkkkjkjjuuuuq4<44quu9q832rhhkkkkkkjk5@-rrr",
" o5wu5<<<quuurq43wdjkkkkkkkkjjauuuuq<::quawuw333thkkkkkkkk% +w83"
};
