/* XPM */
static char *_1_obstacle011671618771[] = {
/* columns rows colors chars-per-pixel */
"64 64 68 1 ",
"  c None",
". c #29333C",
"X c #2F3B46",
"o c #303C47",
"O c #323E4A",
"+ c #34414D",
"@ c #374552",
"# c #384654",
"$ c #3A4957",
"% c #3E4D5A",
"& c #42515D",
"* c #475762",
"= c #4B5B66",
"- c #4C5D68",
"; c #53646E",
": c #566771",
"> c #576872",
", c #5B6C76",
"< c #5D6F78",
"1 c #5E7079",
"2 c #62747D",
"3 c #667981",
"4 c #697C83",
"5 c #6C8087",
"6 c #6F8289",
"7 c #73878D",
"8 c #75898F",
"9 c #768790",
"0 c #778B91",
"q c #7B8E94",
"w c #7D9196",
"e c #7F9298",
"r c #82959B",
"t c #86999E",
"y c #889A9F",
"u c #879AA0",
"i c #8C9EA3",
"p c #8EA0A5",
"a c #8FA3A8",
"s c #90A2A7",
"d c #92A5AA",
"f c #96A9AE",
"g c #98ABAF",
"h c #9AADB2",
"j c #9EB1B6",
"k c #A0B3B7",
"l c #A2B6BA",
"z c #A5B9BD",
"x c #A9BDC1",
"c c #ADC1C4",
"v c #B0C4C7",
"b c #B2C6CA",
"n c #B5C9CD",
"m c #B8CCCF",
"M c #BACED1",
"N c #BDD1D4",
"B c #C0D4D7",
"V c #C2D6DB",
"C c #C5D9DE",
"Z c #C7DCE0",
"A c #C9DEE2",
"S c #CBE0E5",
"D c #CFE3E9",
"F c #D1E6EB",
"G c #D5E9EE",
"H c #D6EAF0",
"J c #DAEEF2",
"K c #DDF1F5",
/* pixels */
"                                                                ",
"                                                                ",
"                                                                ",
"            ipiipdzzzzzzzzzzzzzzzzzzzzzzjxxiiipiipi             ",
"            ipiipdzzzzzzzzzzzzzzzzzzzzzzxlliiippipi             ",
"          isbbnbbNSSCCCNNNNZVCVZASSDSDZCVZNmnnbncljip           ",
"         hvcMNbnCGHHSSSCVVZSSSSDGJJJHHDASAVVVZNNMbzjjd          ",
"        0cNNNbxbAKHHSSSSZAZAASDHJJKKJHDSSAZZZAZCVMbbxj7         ",
"       ,ubbzbvxbZJHHSSSSSSASSSFHHHJJHHDSASSSSSSSANNNxxr<        ",
"      >rzzhpzbxbZHHHSSSDDDDSASDHHHHHHHDDSSGDDSSSANNcllxe;       ",
"     $rklhipzzznCHHHSSDGKKHDDSSDHHHHHHDSSDKKJDDSAAmdjjlh7#      ",
"     &7iir0izzbBZHHHSSGKKKKKHDSADHHHHHDAFKKKKKJDSAMxdphh7$      ",
"    $0ipr80plzbNZHGSSSHKKKKKKJJHGADHHDADFKKKKKKKJDNxdippr3$$    ",
"    $qpr070pzbMNNZSHHSHJKKKKKKJHGGSDAGFDDJKKKKKKGNmxjtq004$$    ",
"    $7w070ykbMNNNCHHHSSHKKKKKKHHHGASGHHGSGKKKKKKGmxxbjr84=$$    ",
"    $222qtdzNbmNNAHHHSSDHHKKKJHHHGAAFHHDSDGDKKKHBcxcMnjr4;$$    ",
"    O:;3eshzbxnNCSHHHSSSSDHHJHHHFGSSGHGGSSSSGGGCnxzbnmnjq:OO    ",
"     @20rdzzzznNCDHGGSSSASDDGGGGDSASGHGFSSSSDSCNnljjzbmcr@      ",
"     @2rislzzxmCSDHGSASDDDHHSSSSSSSSGGDASSSDGHCNnliijjlzu*      ",
"     @7prqszznCSSDGSCVDHHHHHSASSASAAGDZBAGHHHHZNnjpiiphzjq$$    ",
"     @208qiszmBASSSSCVDHHHFSSSZVZZAASSCCAHHHHDCNnzlpierasw$$    ",
"    @<68wyipzxmCASSSAAGHHHDSSSAZVZDASASADHHHDSBNnzlpiq0riq$$    ",
"    $47wyiiwkznCSSASSSSDAAZZASSAAAASSSSSSFFDSSABMvzhpq90w7$$    ",
"    $4qtpiy8kvBSGFDGSSAAZVVAASSSDFFFFFSSSSSCZZSCNmzzhi074-$$    ",
"    $4ripur8lnFJHHHHDSSZVVCAASSSFJHJHHDSSACVCCZZBmzzzdr72#OO    ",
"    $3tuyr8qlbAJKKHHSSSZCCZSSSSGHKKKHHDSSAVCBASSCnkzzgr92@      ",
"    $2eq670dlznSJJHHSSSSSSASSSDHHHKKHHDSAACVCASSCnpzzzgr<+      ",
"    $$2;;8qzzznNZHHHSSASSSSSSAGHHHHHHHDSSSSSSSSSCbszzzz9+       ",
"     @%,70szMMNNZHHHAASGJJGSSSSGHHHHHHDSSSSSSSSCmziskzhi4+      ",
"     @#,qplmNNNNZHHHDSGJKKJJHSASFHHHHHDSSSJJGSSCnkiqpdpp8@      ",
"     @$,tznNNNNNZHHDASHKKKKKJHGGFDDHHFDADJKKJJSBnzg8tpiir2O+    ",
"     .#4gzbvvMNBADDGGAHJKKKKKKJHFDDFHFFDFKKKKKCNnzlprrtii8$$    ",
"      O9zjjzzmNCSSFHGDDHKKKKKKKHHFAAHHHFGJKKKKANmvczq7wee4$$    ",
"      &qljgzcMBZSDHHHDSFGJKKKKGHHHDAHHHFSHKKKKANNNNzu97761$$    ",
"     @2dgfzzMNSDSDHHHSSSSDKJKKGHHFDDHHHFADKJKKANNNmzzu061$@$    ",
"     @7iifzzMNZSSSHHHZZSSSSSGGGGFSAAHHHFSSSSJKANNmzzzxu<$@      ",
"     @8ppfzzNNNCSDHHDSSSSDGGDSSSADDAHHFAASSADDDANmlajxu6<@      ",
"    +4riruzzcmNNCDGDCCSGFGHGSSSSDAADFFZZZASSDGDSVmlaajju2@      ",
"    $wiprrzzzmNNBSDSCVDHHGGFSSACZZAAFDZVAGDGGHDDCNbhadjf4@      ",
"    $7ttwezzzmNNZSSSZZFHHGFSSSACVZDAAAZZSHHHGGSZVNmxauaf7@      ",
"    $4wq0uzzzmNCSSSSSSDGFFSSSSSZZZAAADAADGHHGSSCNNNzsqriq;..    ",
"    $168egzxzmNCASSSSSAZACZASSSSAZAADAADDGGGSSSCNNnziqripq$$    ",
"    $$28ixxMxnNNVAAAAABNNNNNZAAAZNNNAAAAAAAAASAVNmzzw7riiq#$    ",
"    $#2rgcNNzznNNNNNNNNNNNNNNNNNNNNNNNNNVDACVVVNNmzzdq7eir##    ",
"     @2pxMNNxzzxxxxxxMNNNNNNNNNNNNNNNNNNNNNNNNNNNmzzlr88rq$$    ",
"     @2pvNNNzzzzzxbzzxxccxxccccccxcNNNnxccxccMNnccnnmdq786$$    ",
"     @4gvNNMxglzzcMnzzzzjjzzzcbbvlxvvvxlzxbnxccxzxNNNzt2,4$$    ",
"     @7hxnMbzdhzzcNMxzzzjpjzzmNNbxlzhllxzxNNxzzljxbNNcu4;;oo    ",
"     @7hzxbzzdglzcbbzzzlgppzzbNNbzljpjzzzxnNczjddzzNNcp01$      ",
"     *9gzzzzziuglzzzzzlditsjjlcmvljipjjlzzzmzzgisllmmcge1@      ",
"    $riifzzzzwrpglzzzlgprqppijzzzjippipglzzzzzgeqpplzlgr2$      ",
"    $qisidzzsqrppdzlapppr78ippjzzkippqrppdzzzdprwippldir73$$    ",
"    $qiiipsd08rirwepppe0888ppipsdppppq80epdzgpie8qpppppr74$$    ",
"    $wiiiiu088qre77wqw87777wyprwrpipw8778epdpeq078qwypr074$$    ",
"    $7uipuq7:580w777777775:7ww078www877770ewe0777777ww0774$$    ",
"    $4qrrr77&;4877777773,;&777778777877777777723777777775:oo    ",
"    O,677422$$:24777732=++$2267777772222377773=-22277775;X      ",
"     +,44,$$#@@@-4344&$.   @@1443444%#@@=3444*$$#@$3443:o       ",
"      +$#$$#    .%$$$        @$$$$$$    .$$$$$$$+  $$$$o        ",
"      +$$$$$    .$$$$        +$$$$$$    .$$$$$$$+  $$$$o        ",
"                                                                ",
"                                                                ",
"                                                                ",
"                                                                "
};
