/* XPM */
static char *result[] = {
/* columns rows colors chars-per-pixel */
"64 64 180 2 ",
"   c #662729",
".  c #763537",
"X  c #793234",
"o  c #7C3436",
"O  c #783639",
"+  c #736164",
"@  c #756364",
"#  c #766464",
"$  c #7F6769",
"%  c #7E6F71",
"&  c #6F7D7D",
"*  c #707073",
"=  c #727273",
"-  c #727274",
";  c #737374",
":  c #747474",
">  c #747476",
",  c #757576",
"<  c #767676",
"1  c #737E7F",
"2  c #797979",
"3  c #7E7E7E",
"4  c #803638",
"5  c #873E40",
"6  c #943D42",
"7  c #824143",
"8  c #834345",
"9  c #924749",
"0  c #9F4248",
"q  c #9E444A",
"w  c #9E484F",
"e  c #A34B52",
"r  c #A84F53",
"t  c #AF4C53",
"y  c #B04851",
"u  c #B54A54",
"i  c #B24D56",
"p  c #B44D57",
"a  c #B44F56",
"s  c #B44F57",
"d  c #B84C56",
"f  c #BD4D58",
"g  c #A05054",
"h  c #A35254",
"j  c #A35157",
"k  c #A55056",
"l  c #AB5157",
"z  c #AE5654",
"x  c #AF575E",
"c  c #A75A5C",
"v  c #B85257",
"b  c #B45C56",
"n  c #B2575F",
"m  c #BC525B",
"M  c #BB5659",
"N  c #BA565E",
"B  c #B15C5F",
"V  c #BF595C",
"C  c #AD5760",
"Z  c #AE5860",
"A  c #AE5861",
"S  c #AD5C63",
"D  c #AD5D64",
"F  c #AC5D65",
"G  c #B15A60",
"H  c #B75C62",
"J  c #BD5963",
"K  c #B95D66",
"L  c #83696B",
"P  c #826D6F",
"I  c #9B6267",
"U  c #946469",
"Y  c #9A656A",
"T  c #976B71",
"R  c #976C71",
"E  c #966D72",
"W  c #8A7478",
"Q  c #82797C",
"!  c #817C7E",
"~  c #9D7177",
"^  c #957378",
"/  c #A36167",
"(  c #BB656B",
")  c #B8636C",
"_  c #A06A70",
"`  c #BE6770",
"'  c #B16E70",
"]  c #B26F72",
"[  c #BE6870",
"{  c #A07377",
"}  c #B37375",
"|  c #C14F5A",
" . c #C24F5A",
".. c #C15660",
"X. c #C55B64",
"o. c #C15D67",
"O. c #C76068",
"+. c #C1646A",
"@. c #C5666C",
"#. c #CA686E",
"$. c #CA686F",
"%. c #C16F71",
"&. c #CB6A70",
"*. c #CB6B71",
"=. c #C1767D",
"-. c #CE7478",
";. c #CE7479",
":. c #CE7579",
">. c #CF7579",
",. c #D07A7D",
"<. c #D07B7E",
"1. c #D17B7F",
"2. c #D67B7D",
"3. c #D8787B",
"4. c #7F7E83",
"5. c #A27B80",
"6. c #D17D80",
"7. c #D17E81",
"8. c #6C8A8B",
"9. c #6C8B8C",
"0. c #6F8B8E",
"q. c #6C8C8F",
"w. c #7E8486",
"e. c #6B8E92",
"r. c #788F93",
"t. c #6A9297",
"y. c #69959C",
"u. c #719196",
"i. c #789696",
"p. c #75999C",
"a. c #759E9E",
"s. c #7598A1",
"d. c #828285",
"f. c gray53",
"g. c #8D8D8D",
"h. c #AF8489",
"j. c #AA9B9B",
"k. c #819CA3",
"l. c #82A6A6",
"z. c #82A7A7",
"x. c #9AA1B1",
"c. c #9CB5B7",
"v. c #9CB8B8",
"b. c #A3A5AB",
"n. c #AAA7AB",
"m. c #BFA2A4",
"M. c #BDA0A7",
"N. c #BEA3A6",
"B. c #BEA2A7",
"V. c #B1ABAE",
"C. c #B6AEAE",
"Z. c #B0ACB0",
"A. c #BEB1B3",
"S. c #BFB2B3",
"D. c #BEB5B7",
"F. c #C18187",
"G. c #D28082",
"H. c #D28183",
"J. c #D38183",
"K. c #D18586",
"L. c #D08789",
"P. c #D38789",
"I. c #C18F94",
"U. c #CF9091",
"Y. c #CC9092",
"T. c #CD9092",
"R. c #CE9193",
"E. c #C9959A",
"W. c #CC9798",
"Q. c #C4989B",
"!. c #C1A5A7",
"~. c #CAA0A1",
"^. c #CAA1A2",
"/. c #C8A5A6",
"(. c #C5B1B1",
"). c #C1B3B4",
"_. c #C2B4B6",
"`. c #C7B9BA",
"'. c #C1C1C1",
"]. c None",
/* pixels */
"].].].].].].].].].].].].].].].].].].].].].].].].].].].].].].].].].].].].].].].].].].].].].].].].].].].].].].].].].].].].].].].].",
"].].].].].].].].].].].].].].].].].].].].].].].].].].].].].].].].].].].].].].].].].].].].].].].].].].].].].].].].].].].].].].].].",
"].].].].].].].].].].].].].].].].].].].].].].].].].].].].].].].].].].].].].].].].].].].].].].].].].].].].].].].].].].].].].].].].",
"].].].].].].].].].].].].].].].].].].].].].].].].].].].].].].].].].].].].].].].].].].].].].].].].].].].].].].].].].].].].].].].].",
"].].].].].].].].].].].].].].].].].].].].].].].].].].].].].].].].].].].].].].].].].].].].].].].].].].].].].].].].].].].].].].].].",
"].].].].].].].].].].].].].].].].].].].].].].].].].} } } } } } } } } } ] / ].].].].].].].].].].].].].].].].].].].].].].].].].].].",
"].].].].].].].].].].].].].].].].].].].].].].].].].G.G.G.G.G.G.G.G.G.G.1.` ].].].].].].].].].].].].].].].].].].].].].].].].].].].",
"].].].].].].].].].].].].].].].].].].].].].].].].].G.G.G.G.G.G.G.G.G.G.1.` ].].].].].].].].].].].].].].].].].].].].].].].].].].].",
"].].].].].].].].].].].].].].].].].].].].].].].].].G.G.G.G.G.G.G.G.G.G.1.` ].].].].].].].].].].].].].].].].].].].].].].].].].].].",
"].].].].].].].].].].].].].].].].].].].].].].].].].G.G.G.G.G.G.G.G.G.G.1.` ].].].].].].].].].].].].].].].].].].].].].].].].].].].",
"].].].].].].].].].].].].].].].].].].].].].].].].].G.G.G.G.G.G.G.G.G.G.1.` ].].].].].].].].].].].].].].].].].].].].].].].].].].].",
"].].].].].].].].].].].].].].].].].].].].].].].].].G.O.X.l 9 9 9 9 9 9 g ` ].].].].].].].].].].].].].].].].].].].].].].].].].].].",
"].].].].].].].].].].].].].].].].].].].].].].].].].J.*.#.H k k k k k k x [ ].].].].].].].].].].].].].].].].].].].].].].].].].].].",
"].].].].].].].].].].].].].].].].].].].].].].].].].>.-.%.( K K K K K K K S ].].].].].].].].].].].].].].].].].].].].].].].].].].].",
"].].].].].].].].].].].].].].].].].].].].].].].].]. .| 6 4 o o o o o o o O ].].].].].].].].].].].].].].].].].].].].].].].].].].].",
"].].].].].].].].].].].].].].].].].].].].].].].].].| | | 0 o o o o o o o . ].].].].].].].].].].].].].].].].].].].].].].].].].].].",
"].].].].].].].].].].].].].].].].].].].].].].].].].].p W 1 & & & & & U w ].].].].].].].].].].].].].].].].].].].].].].].].].].].].",
"].].].].].].].].].].].].].].].].].].].].].].].].].].i Q q.t.t.t.t.8.T e ].].].].].].].].].].].].].].].].].].].].].].].].].].].].",
"].].].].].].].].].].].].].].].].].].].].].].].].].].a Q e.y.y.y.y.9.T r ].].].].].].].].].].].].].].].].].].].].].].].].].].].].",
"].].].].].].].].].].].].].].].].].].].].].].].].].].v ! u.s.s.s.s.0.T z ].].].].].].].].].].].].].].].].].].].].].].].].].].].].",
"].].].].].].].].].].].].].].].].].].].].].].].].].].M w.k.x.x.x.x.r.R b ].].].].].].].].].].].].].].].].].].].].].].].].].].].].",
"].].].].].].].].].].].].].].].].].].].].].].].].].].V w.k.x.x.x.x.p.^ b ].].].].].].].].].].].].].].].].].].].].].].].].].].].].",
"].].].].].].].].].].].].].].].].].].].].].].].].].].V w.l.c.c.c.c.a.^ b ].].].].].].].].].].].].].].].].].].].].].].].].].].].].",
"].].].].].].].].].].].].].].].].].].].].].].].].].].N w.z.v.v.v.v.i.E G ].].].].].].].].].].].].].].].].].].].].].].].].].].].].",
"].].].].].].].].].].].].].].].].].].].].].].].].].].J _ 5.h.h.h.h.~ F ) ].].].].].].].].].].].].].].].].].].].].].].].].].].].].",
"].].].].].].].].].].].].].].].].].].].].].].].].].].=...d y y y y f o.F.].].].].].].].].].].].].].].].].].].].].].].].].].].].].",
"].].].].].].].].].].].].].].].].].].].].].].].].].].].=.j 7 X X 8 n I.].].].].].].].].].].].].].].].].].].].].].].].].].].].].].",
"].].].].].].].].].].].].].].].].].].].].].].].].].].].].].j.    C.'.].].].].].].].].].].].].].].].].].].].].].].].].].].].].].].",
"].].].].].].].].].].].].].].].].].].].].].].].].].].].].].N.u u S.].].].].].].].].].].].].].].].].].].].].].].].].].].].].].].].",
"].].].].].].].].].].].].].].].].].].].].].].].].].].].].].!.| | ).].].].].].].].].].].].].].].].].].].].].].].].].].].].].].].].",
"].].].].].].].].].].].].].].].].].].].].].].].].].].].].].!.| | ).].].].].].].].].].].].].].].].].].].].].].].].].].].].].].].].",
"].].].].].].].].].].].].].].].].].].].].].].].].].].].].].!.| | ).].].].].].].].].].].].].].].].].].].].].].].].].].].].].].].].",
"].].].].].].].].].].].].].].].].].].].].].].].].].].].].].!.| | ).].].].].].].].].].].].].].].].].].].].].].].].].].].].].].].].",
"].].].].].].].].].].].].].].].].].].].].].].].].].].].].].!.| | ).].].].].].].].].].].].].].].].].].].].].].].].].].].].].].].].",
"].].].].].].].].].].].].].].].].].].].].].].].].].].].].].!.| | A.].].].].].].].].].].].].].].].].].].].].].].].].].].].].].].].",
"].].].].].].].].].].].].].].].].].].].].].].].].].].].].].!.| | V.].].].].].].].].].].].].].].].].].].].].].].].].].].].].].].].",
"].].].].].].].].].].].].].].].].].].].].].].].].].].].].].B.| | b.].].].].].].].].].].].].].].].].].].].].].].].].].].].].].].].",
"].].].].].].].].].].].].].].].].].].].].].].].].].].].].].M.| | Z.].].].].].].].].].].].].].].].].].].].].].].].].].].].].].].].",
"].].].].].].].].].].].].].].].].].].].].].].].].].].].].].!.| | D.].].].].].].].].].].].].].].].].].].].].].].].].].].].].].].].",
"].].].].].].].].].].].].].].].].].].].].].].].].].].].].].!.| | `.].].].].].].].].].].].].].].].].].].].].].].].].].].].].].].].",
"].].].].].].].].].].].].].].].].].].].].].].].].].].].].].!.| | _.].].].].].].].].].].].].].].].].].].].].].].].].].].].].].].].",
"].].].].].].].].].].].].].].].].].].].].].].].].].].].].].!. . .).].].].].].].].].].].].].].].].].].].].].].].].].].].].].].].].",
"].].].].].].].].].].].].].].].].].].].].].].].].].].].].].!. . .n.].].].].].].].].].].].].].].].].].].].].].].].].].].].].].].].",
"].].].].].].].].].].].].].].].].].].].].].].].].].].].].].Q. . .m.].].].].].].].].].].].].].].].].].].].].].].].].].].].].].].].",
"].].].].].].].].].].].].].].].].].].].].].].].].].].].].^.-.| | ,.(.].].].].].].].].].].].].].].].].].].].].].].].].].].].].].].",
"].].].].].].].].].].].].].].].].].].].].].].].].].].].].^.-.| | ,.(.].].].].].].].].].].].].].].].].].].].].].].].].].].].].].].",
"].].].].].].].].].].].].].].].].].].].].].].].].].].].W.K.-.| | ,.L./.].].].].].].].].].].].].].].].].].].].].].].].].].].].].].",
"].].].].].].].].].].].].].].].].].].].].].].].].].].].Y.H.6.-.-.7.H.^.].].].].].].].].].].].].].].].].].].].].].].].].].].].].].",
"].].].].].].].].].].].].].].].].].].].].].].].].].].].T.;.+.c c @.<.^.].].].].].].].].].].].].].].].].].].].].].].].].].].].].].",
"].].].].].].].].].].].].].].].].].].].].].].].].].].].R.$.y o o d :.^.].].].].].].].].].].].].].].].].].].].].].].].].].].].].].",
"].].].].].].].].].].].].].].].].].].].].].].].].].].].U.&.s 5 5 m >.~.].].].].].].].].].].].].].].].].].].].].].].].].].].].].].",
"].].].].].].].].].].].].].].].].].].].].].].].].].].].P.2.G.G.G.G.3.E.].].].].].].].].].].].].].].].].].].].].].].].].].].].].].",
"].].].].].].].].].].].].].].].].].].].].].].].].].].g.' h 5 5 5 5 B { 4.d.].].].].].].].].].].].].].].].].].].].].].].].].].].].",
"].].].].].].].].].].].].].].].].].].].].].].].].].f.2 D q o o o o t Y , < f.].].].].].].].].].].].].].].].].].].].].].].].].].].",
"].].].].].].].].].].].].].].].].].].].].].].].].].: : A 0 o o o o y I : : : ].].].].].].].].].].].].].].].].].].].].].].].].].].",
"].].].].].].].].].].].].].].].].].].].].].].].].].: : A 0 o o o o y I : : : ].].].].].].].].].].].].].].].].].].].].].].].].].].",
"].].].].].].].].].].].].].].].].].].].].].].].].].: : Z 0 o o o o y I : : : ].].].].].].].].].].].].].].].].].].].].].].].].].].",
"].].].].].].].].].].].].].].].].].].].].].].].].].* * C 0 o o o o y I : : : ].].].].].].].].].].].].].].].].].].].].].].].].].].",
"].].].].].].].].].].].].].].].].].].].].].].].].].* * C 0 o o o o y I : : : ].].].].].].].].].].].].].].].].].].].].].].].].].].",
"].].].].].].].].].].].].].].].].].].].].].].].].].; ; P $ @ + + # L % : : : ].].].].].].].].].].].].].].].].].].].].].].].].].].",
"].].].].].].].].].].].].].].].].].].].].].].].].].: : ; ; : - - : : : : - : ].].].].].].].].].].].].].].].].].].].].].].].].].].",
"].].].].].].].].].].].].].].].].].].].].].].].].].f.< = ; : : : : : : ; > f.].].].].].].].].].].].].].].].].].].].].].].].].].].",
"].].].].].].].].].].].].].].].].].].].].].].].].].].3 : : : : : : : : : 3 ].].].].].].].].].].].].].].].].].].].].].].].].].].].",
"].].].].].].].].].].].].].].].].].].].].].].].].].].].].].].].].].].].].].].].].].].].].].].].].].].].].].].].].].].].].].].].]."
};
