/* XPM */
static char *pokecenter1671710658[] = {
/* columns rows colors chars-per-pixel */
"64 64 162 2 ",
"   c None",
".  c #1E201F",
"X  c #2D2119",
"o  c #2E2D2D",
"O  c #2C2825",
"+  c #2D393E",
"@  c #373637",
"#  c #423732",
"$  c #4D382A",
"%  c #6F413B",
"&  c #684032",
"*  c #72463A",
"=  c #2C3C43",
"-  c #3C3F41",
";  c #313E49",
":  c #563F46",
">  c #3D4042",
",  c #2F4555",
"<  c #364250",
"1  c #3D4B56",
"2  c #3D4C59",
"3  c #3F4752",
"4  c #36505A",
"5  c #285367",
"6  c #355467",
"7  c #295C77",
"8  c #3C5E75",
"9  c #424348",
"0  c #46484E",
"q  c #484B58",
"w  c #484F58",
"e  c #4B535C",
"r  c #445364",
"t  c #485768",
"y  c #495B6B",
"u  c #4C5A65",
"i  c #4F6073",
"p  c #4B657C",
"a  c #53707D",
"s  c #92494B",
"d  c #954C55",
"f  c #8C4D47",
"g  c #B5535C",
"h  c #B95D5B",
"j  c #BB625A",
"k  c #9B6C71",
"l  c #8A717C",
"z  c #BC6E67",
"x  c #B76469",
"c  c #AF7F7F",
"v  c #B37572",
"b  c #BE7A74",
"n  c #E95E4A",
"m  c #C7604E",
"M  c #E76957",
"N  c #C07677",
"B  c #EA7868",
"V  c #E47E70",
"C  c #C1807B",
"Z  c #C9847E",
"A  c #E0877A",
"S  c #E88071",
"D  c #3A6580",
"F  c #396B87",
"G  c #35728E",
"H  c #256C90",
"J  c #287194",
"K  c #347899",
"L  c #317AA0",
"P  c #4C6F81",
"I  c #55798A",
"U  c #617B87",
"Y  c #707D95",
"T  c #BB7E83",
"R  c #3983AB",
"E  c #3D89B4",
"W  c #4D819C",
"Q  c #5A809E",
"!  c #4C85A0",
"~  c #5C92AA",
"^  c #4E8EB1",
"/  c #4391BD",
"(  c #5093BE",
")  c #479BCC",
"_  c #4DA2CD",
"`  c #4AA3D1",
"'  c #5AA9D4",
"]  c #5FB3D8",
"[  c #65ABDA",
"{  c #6AB5DC",
"}  c #73B5DF",
"|  c #6AB7E3",
" . c #60B2E3",
".. c #76BDEB",
"X. c #7BC3F4",
"o. c #B08E90",
"O. c #A49BA3",
"+. c #BA9AA3",
"@. c #B5A8A9",
"#. c #B5B6BA",
"$. c #9CAEBC",
"%. c #C38585",
"&. c #C58C83",
"*. c #C8878D",
"=. c #C48F8B",
"-. c #CA8689",
";. c #C6918A",
":. c #D0958F",
">. c #C49792",
",. c #C99994",
"<. c #DF9F95",
"1. c #E88E81",
"2. c #EF9285",
"3. c #F09C90",
"4. c #CAA69C",
"5. c #D0A39D",
"6. c #F1A69C",
"7. c #D7ACA7",
"8. c #C9B1AC",
"9. c #D8B2AB",
"0. c #CBBCBA",
"q. c #D6BAB6",
"w. c #F2B1A7",
"e. c #D9CBB9",
"r. c #DBC0BD",
"t. c #CEC0B6",
"y. c #F4C6BF",
"u. c #99B9C9",
"i. c #B2BDC7",
"p. c #C5BCC2",
"a. c #B7C3CC",
"s. c #ABC7D3",
"d. c #B4CAD4",
"f. c #B7C9D3",
"g. c #BAD3DB",
"h. c #A6C2CF",
"j. c #87C3E6",
"k. c #82C7F4",
"l. c #96D0F3",
"z. c #95CEF0",
"x. c #A2D5F3",
"c. c #D7D3C5",
"v. c #C1D7DE",
"b. c #C8D9DF",
"n. c #DDDEDB",
"m. c #D6C7C8",
"M. c #E5C7C5",
"N. c #F6D5D1",
"B. c #F5CBC5",
"V. c #DEE6D4",
"C. c #E4EBD6",
"Z. c #C1D8E1",
"A. c #C8DDE4",
"S. c #D3DDE3",
"D. c #CFE2E8",
"F. c #D6E8ED",
"G. c #DFEBEE",
"H. c #D8E4E9",
"J. c #E6EDEF",
"K. c #EAEDEE",
"L. c gray94",
"P. c #EDEFF0",
/* pixels */
"                                                                                                                                ",
"                                                                                                                                ",
"                                                                                                                                ",
"                                                      u.u.u.u.                                                                  ",
"                                                d.d.d.L.L.L.L.d.f.d.                                                            ",
"                                          u.v.S.J.P.L.L.L.L.L.L.P.J.S.v.u.                                                      ",
"                                        s.J.L.L.L.L.L.L.L.L.L.L.L.L.L.L.G.s.                                                    ",
"                                      d.D.G.L.L.L.L.L.L.L.L.L.L.L.L.P.P.G.H.d.                                                  ",
"                        g.d.d.g.f.s.h.J.G.G.L.L.L.L.L.L.L.L.L.L.L.L.L.L.G.G.J.h.s.d.f.d.d.d.                                    ",
"                  % s #.K.L.L.K.L.D.A.L.G.G.L.L.L.L.L.L.L.L.L.L.L.L.L.L.G.G.P.A.D.L.L.L.L.J.#.d %                               ",
"              & @.>.0.L.L.L.L.L.L.A.D.L.G.G.L.L.L.L.L.L.L.L.L.L.L.L.L.L.G.G.L.D.A.L.L.L.L.L.L.0.>.@.&                           ",
"              h q.C n.L.L.L.L.L.L.Z.F.L.G.G.L.L.L.L.L.L.L.L.L.L.L.L.L.L.G.G.L.F.v.L.L.L.L.L.L.n.C q.m                           ",
"          & @.1.&.;.J.L.L.L.L.L.L.v.H.L.G.G.L.L.L.L.L.L.L.L.L.L.L.L.L.L.J.G.L.F.v.L.L.L.L.L.L.J.;.&.A @.&                       ",
"          * 8.1.;.;.J.L.L.L.L.L.L.v.F.L.G.G.L.L.L.L.L.L.L.L.L.L.L.L.L.L.G.G.L.F.v.L.L.L.L.L.L.P.;.;.A 8.*                       ",
"        $ m q.w.:.=.J.L.L.L.L.L.L.Z.F.L.G.G.L.L.L.L.L.L.L.L.L.L.L.L.L.L.G.G.P.F.v.L.L.L.L.L.L.J.;.:.w.q.j $                     ",
"        * j M.w.:.=.K.L.L.L.L.L.L.Z.F.L.G.G.L.L.L.L.L.L.L.L.L.L.L.L.L.L.G.G.P.F.v.L.L.L.L.L.L.J.;.:.w.M.j f                     ",
"        s j M.6.:.=.J.L.L.L.L.L.L.Z.F.L.G.G.L.L.L.L.L.L.L.L.L.L.L.L.L.L.G.G.L.F.Z.L.L.L.L.L.L.J.;.:.6.M.j s                     ",
"        s j M.2.:.=.J.L.L.L.L.L.L.v.F.L.G.G.L.L.L.L.L.L.L.L.L.L.L.L.L.L.G.G.L.F.v.L.L.L.L.L.L.J.;.:.2.M.j s                     ",
"      % g j M.2.:.;.J.L.L.L.L.L.L.v.F.L.G.G.L.L.L.L.L.L.L.L.L.L.L.L.L.L.G.G.L.F.v.L.L.L.L.L.L.J.=.:.2.M.j g %                   ",
"      % g j M.6.:.;.J.L.L.L.L.L.L.v.F.L.G.G.L.L.L.L.L.L.L.L.L.L.L.L.L.L.G.G.L.F.v.L.L.L.L.L.L.P.=.:.6.M.j g %                   ",
"      % g j M.6.:.=.J.L.L.L.L.L.L.v.F.L.G.G.L.L.L.L.L.L.L.L.L.L.L.L.L.L.G.G.L.F.v.L.L.L.L.L.L.J.=.:.6.M.j g %                   ",
"      % g h M.2.:.=.J.L.L.L.L.L.L.v.F.L.G.G.L.L.L.L.L.A.b.b.A.L.L.L.L.L.G.G.L.F.v.L.L.L.L.L.L.J.=.:.2.M.j g %                   ",
"      % g j M.2.:.=.J.L.L.L.L.L.L.v.F.L.G.J.J.J.G.f.@.g g g g @.@.#.H.J.J.G.L.F.v.L.L.L.L.L.L.J.=.:.2.M.j g %                   ",
"      % g j M.2.:.=.J.L.L.L.L.L.L.v.F.P.G.Z.g.g.F.O.h j j m h h h x T +.Z.G.L.F.v.L.L.L.L.L.L.J.=.:.2.M.j g %                   ",
"      % g h M.3.:.=.J.L.L.L.L.L.L.v.F.K.p.g g s.A.o.k Y _ _ Y k j j j g g p.J.F.v.L.L.L.L.L.L.J.=.:.3.M.j g %                   ",
"      % g j M.w.:.=.J.L.L.L.L.L.L.v.F.p.x h j O.h.I ( j.x.{ } ( Y j j j h x p.F.v.L.L.L.L.L.L.J.=.:.w.M.j g %                   ",
"      % g j M.w.:.=.J.L.L.L.L.L.L.v.g.g h j j v $. ...}  .| { |  .Y h j j h g g.Z.L.L.L.L.L.L.J.=.:.w.M.j g %                   ",
"      % g h M.3.:.*.J.L.L.L.L.L.L.g.+.g j j j j O.l l l l l l l T a j j j j g +.g.L.L.L.L.L.L.J.*.:.3.M.h g %                   ",
"      % g j M.2.*.=.J.P.L.L.L.L.L.m.*.*.*.*.*.*.*.*.*.*.*.*.*.*.*.*.*.*.*.*.*.*.p.L.L.L.L.L.L.0.j -.1.M.j g %                   ",
"      % g j M.A %.o.A.L.L.L.L.L.P.K.L.L.L.L.L.L.L.L.L.P.L.L.L.L.L.L.L.L.L.L.L.L.L.L.L.L.L.L.J.N j o.A M.j g %                   ",
"      % g j 8.V ,.c Z.G.J.L.L.L.L.L.L.L.L.L.L.L.L.P.P.P.L.L.L.L.L.L.L.L.L.P.L.L.L.L.L.L.J.J.%.j m ,.V 8.j g %                   ",
"      % g h 8.B 9.c Z.F.F.G.G.G.G.G.G.G.G.G.G.G.J.G.J.G.G.G.G.G.G.G.G.G.G.J.L.L.L.G.G.m.=.b j j x 9.B 8.j g %                   ",
"      % g j j 7.B t.b.f.v j j j j j j j j j j j j z ;.4.V.V.4.Z z j j j j @.D.F.F.s.v j j j j z 9.B 7.j j g %                   ",
"      % g j j ,.B Z s.@.j j j j j j j j j j j j o.e.C.C.C.C.C.C.0.j j j j o.g.F.g.v j j j j >.9.S V ;.j j g %                   ",
"        s g j j +.;.u.A 9.y.B.y.B.B.N.N.7.h j 4.C.C.C.C.C.C.C.C.e.j b m j 7.a.Z.r.y.y.y.y.9.A M A >.j j g s X                   ",
"        s g h j j +.d.<.B n n n n n M B N.j =.V.C.C.C.e.Z ;.e.t.z b c.o.j N.@.#.M n n n n B <.5.&.j j h g s X                   ",
"        > d g h j v v b r.M.M.M.M.M.M.M.Z z e.C.C.e.b j N C m j b n.C.e.N Z i.@.M.M.M.M.M.r.N j j j h g d - X                   ",
"        e q d g h j j j j j j j j j j j j &.C.C.C.C j 8.c.c.8.j b C.C.C.Z h O.m j j j j j j j h j h g d q e X                   ",
"        w i 2 d g h j j j j j h j h j j m =.V.C.V.j 8.C.C.C.C.7.j V.C.C.;.j o.j h j j j j j h h h g d 2 i q X                   ",
"        0 t i 0 d g h g g g g g g h g h g j o.&.C h b Z %.%.-.N g b %.%.x g g g h g h g g h g g g d q i y 0 X                   ",
"        G 8 r i 2 d g g g g g g g g g g g g g g h h g g g g g g g g g g g g g g g g g g g g g g d 2 i t 8 G X                   ",
"        G ) 8 t i q : : : : : : : : : : : : : : : > : : 0 $ : 0 0 : : : : : : : : : : : : : : : q i y 8 / G X                   ",
"        G | ) y t r = = r i i i i i i i i i i u a W ! ! u u W W W P u i i i i i i i i i i r = = r t 8 ) | G X                   ",
"        G l.[ ) 8 2 = = 1 r t r t t r r t t t q W ^ ^ ~ u u ^ ^ ^ I w r t r r t t r r r r q = = 2 8 / } l.G X                   ",
"        @ R ..{ ` 6 ; = 6 D D D D D 6 2 r r 2 q ! _ _ _ i p _ _ _ ! w 4 r r 2 6 D D D D D 6 = = 6 ` | ..R + X                   ",
"        9 , L l...J = = J ) } } ) ) 5 q F L L F ! _ _ _ a a _ ` _ ! F K L F q 5 ) [ j.) ) H = = H ..l.R < 9 X                   ",
"        : 2 ; E ..H = = J j.x.[ } ..5 p E [ j.K ~ { ] { U U { { { ~ K [ j.E P 5 ' x...[ z.J ; = J ..R ; 2 9 X                   ",
"        @ 2 2 , R J = = J x.k.k.x.| 5 / | z...K ~ { { ] U U { { { ~ K z...| / 5 ..k.k.x.l.J = = J L , q 1 #                     ",
"          # 3 2 ; 7 = = ; H H H H 7 = ` l.k.x.K ~ ] ] ] U U ] ] ] ~ K X.X.l.' = 7 H H H H ; = = 7 ; 2 2 #                       ",
"            # 2 2 ; = = ; < < < < < ; ` k.x.l.K 1 4 4 4 @ - 4 4 4 1 K X.z.l.` < < < < < < ; = = ; 2 2 #                         ",
"              # 9 - + + - 9 9 9 9 9 9 o o o o @ O                 o @ o o o o 9 9 9 9 9 > - + + - 9 #                           ",
"                X X . . X X X X X X X X X X X X                     O X X X X X X X X X X X . O X X                             ",
"                                                                                                                                ",
"                                                                                                                                ",
"                                                                                                                                ",
"                                                                                                                                ",
"                                                                                                                                ",
"                                                                                                                                ",
"                                                                                                                                ",
"                                                                                                                                ",
"                                                                                                                                ",
"                                                                                                                                ",
"                                                                                                                                ",
"                                                                                                                                "
};
