/* XPM */
static char *stone021671709641[] = {
/* columns rows colors chars-per-pixel */
"64 64 241 2 ",
"   c None",
".  c #000C18",
"X  c #040F1A",
"o  c #0B141D",
"O  c #0D151D",
"+  c #12181F",
"@  c #121920",
"#  c #131A20",
"$  c #141A20",
"%  c #151A20",
"&  c #161B21",
"*  c #161C22",
"=  c #171D22",
"-  c #121C26",
";  c #191F24",
":  c #1C2023",
">  c #1E2223",
",  c #192024",
"<  c #1A2024",
"1  c #1A2025",
"2  c #1B2125",
"3  c #1B2126",
"4  c #1C2225",
"5  c #1C2226",
"6  c #1C2227",
"7  c #1D2227",
"8  c #292A27",
"9  c #2B2C2B",
"0  c #2D2C28",
"q  c #2D2D29",
"w  c #31302E",
"e  c #35312D",
"r  c #35322D",
"t  c #38332F",
"y  c #3A352E",
"u  c #373430",
"i  c #3D3631",
"p  c #3E3731",
"a  c #3C3831",
"s  c #423C35",
"d  c #443D35",
"f  c #443F36",
"g  c #484339",
"h  c #4A4339",
"j  c #4C473C",
"k  c #4E493D",
"l  c #524737",
"z  c #544739",
"x  c #574D3F",
"c  c #5A4D39",
"v  c #5B4E39",
"b  c #5F503B",
"n  c #5F503C",
"m  c #5D503E",
"M  c #60503C",
"N  c #60513C",
"B  c #61523D",
"V  c #62543F",
"C  c #363C42",
"Z  c #373D43",
"A  c #40454A",
"S  c #5C4F40",
"D  c #5B5D5F",
"F  c #665342",
"G  c #675342",
"H  c #6B5742",
"J  c #6D5943",
"K  c #6E5844",
"L  c #6E5944",
"P  c #6D5A44",
"I  c #6C5946",
"U  c #6F5B47",
"Y  c #6F5D45",
"T  c #6F5D46",
"R  c #6E5E46",
"E  c #6E5D48",
"W  c #715B45",
"Q  c #735C46",
"!  c #715F47",
"~  c #755E47",
"^  c #765E47",
"/  c #775F48",
"(  c #785F49",
")  c #71604B",
"_  c #776349",
"`  c #77634A",
"'  c #7A614A",
"]  c #7B614A",
"[  c #78634A",
"{  c #79634A",
"}  c #7C624A",
"|  c #7C624B",
" . c #7C634B",
".. c #7D634B",
"X. c #7D634C",
"o. c #78664C",
"O. c #79674D",
"+. c #7D644C",
"@. c #7E644C",
"#. c #7E654C",
"$. c #7F654C",
"%. c #7E654D",
"&. c #7F654D",
"*. c #7C664D",
"=. c #7F664D",
"-. c #7F674E",
";. c #7B694E",
":. c #7B6A4E",
">. c #7D684E",
",. c #7D694E",
"<. c #7F684E",
"1. c #7C6A4F",
"2. c #7F6B51",
"3. c #7C6C52",
"4. c #7F6E54",
"5. c #7F6C56",
"6. c #646566",
"7. c #6D6D6D",
"8. c #80664E",
"9. c #80674E",
"0. c #81674F",
"q. c #80684F",
"w. c #81684F",
"e. c #82684F",
"r. c #83684F",
"t. c #82694F",
"y. c #816950",
"u. c #826A50",
"i. c #836A50",
"p. c #826B51",
"a. c #836B51",
"s. c #846A50",
"d. c #836C51",
"f. c #806C52",
"g. c #806C53",
"h. c #866C51",
"j. c #846D52",
"k. c #856D52",
"l. c #866D52",
"z. c #876D52",
"x. c #856E53",
"c. c #866E53",
"v. c #866F53",
"b. c #876F53",
"n. c #836F55",
"m. c #886D52",
"M. c #886E53",
"N. c #8A6F53",
"B. c #846F59",
"V. c #827256",
"C. c #827257",
"Z. c #847056",
"A. c #887054",
"S. c #897054",
"D. c #887155",
"F. c #8A7155",
"G. c #8B7155",
"H. c #8B7255",
"J. c #8B7156",
"K. c #8C7255",
"L. c #8C7356",
"P. c #8E7356",
"I. c #8B7557",
"U. c #8E7456",
"Y. c #8E7457",
"T. c #8F7557",
"R. c #837258",
"E. c #86735A",
"W. c #857458",
"Q. c #8B7558",
"!. c #8F7558",
"~. c #8E7759",
"^. c #88745C",
"/. c #8C7859",
"(. c #907557",
"). c #917658",
"_. c #917759",
"`. c #927759",
"'. c #93785A",
"]. c #94795A",
"[. c #957A5B",
"{. c #957B5B",
"}. c #907A5D",
"|. c #957B5C",
" X c #927C5C",
".X c #937D5D",
"XX c #937E5D",
"oX c #977E5E",
"OX c #8D7860",
"+X c #8D7861",
"@X c #907C64",
"#X c #987F62",
"$X c #96805F",
"%X c #98805F",
"&X c #99815F",
"*X c #988260",
"=X c #998260",
"-X c #998361",
";X c #9A8260",
":X c #9A8361",
">X c #9A8162",
",X c #9C8261",
"<X c #9A8462",
"1X c #9B8462",
"2X c #9B8562",
"3X c #9B8563",
"4X c #9C8663",
"5X c #9A8264",
"6X c #9E8365",
"7X c #9D8664",
"8X c #9F8466",
"9X c #9F8866",
"0X c #A08766",
"qX c #A08866",
"wX c #A08966",
"eX c #A18867",
"rX c #A08967",
"tX c #A18967",
"yX c #A28A67",
"uX c #A28B67",
"iX c #A28A6A",
"pX c #A58B6B",
"aX c #A48C6B",
"sX c #A68B6C",
"dX c #A78C6D",
"fX c #A98E6B",
"gX c #A98F6B",
"hX c #AC916D",
"jX c #AC936E",
"kX c #AA8F70",
"lX c #AA9070",
"zX c #AA9071",
"xX c #AB9171",
"cX c #AC9172",
"vX c #AD9273",
"bX c #AF9470",
"nX c #B69C76",
"mX c #B79D77",
"MX c #B89D77",
"NX c #BA9F78",
"BX c #BDA27B",
/* pixels */
"                                                                                                                                ",
"                                                                                                                                ",
"                                                                                                                                ",
"                                                                                                                                ",
"                                                                                                                                ",
"                                                                                                                                ",
"                                                                                                                                ",
"                                                                                                                                ",
"                                                                                                                                ",
"                                                                                                                                ",
"                                    . . . . . . .     . . . . . . . . .   . . . . . . . .                                       ",
"                                    0 a h h h h g e @ y d h h h h h d y @ e h h h g g a 0                                       ",
"                                    V <.|.|.{.].].S 9 I G.{.].].].|.G.T 0 S ].].].oX{.<.V                                       ",
"                                  3 3.$X:X,XoX].].Q.W. X:X,X{.].{.>X:X|.W.E.].].oX,X8X|.3.4                                     ",
"                                . 3 E.qXqX9X:X$X&X:X:X>XqXjXfXfXhXjXqX&X:X:X$X&X>X9XqX0XE.1                                     ",
"                                . 1 R.8X8XqXuXuXuXuX9X>XhXBXBXBXBXBXjX&X9XuXuXuXuXqX0X6XR.1                                     ",
"                                . & I r.G.bXMXMXMXMXmXmXMXBXBXBXBXBXMXmXmXMXMXMXmXhXG.r.I &                                     ",
"                                . & G ] 0.>X0X0X0XqX0X0X0XqX0X0X0X0XqX0X0X0X0XqXqX>Xa.] F &                                     ",
"                                . & G ] ] a.j.j.j.j.j.j.j.j.j.j.j.j.j.j.j.j.j.j.j.a. .] F +                                     ",
"                                . + G ] @.a.j.j.j.j.j.j.j.j.j.j.j.j.j.j.j.j.d.d.d.a.] ] F &                                     ",
"                                > y K ] @.j.s.r.G.j.r.j.a.<.@.0.0.@.d.d.r.j.P.r.a.a.| ] I y >                                   ",
"                              . 0 b ^ ] ] j.a.@.(.m.] j.r.] ] ] ] ] r.j.] m.U.0.a.a.| ] ^ n 0 .                                 ",
"                              . 0 N ^ ] @.P.s.@.(.m.@.P.j.] ] ] ] ] j.P.0.m.(.0.j.U.@.] ^ n 0 .                                 ",
"                              . 0 N ^ ] 0.(.P.G.(.(.S._.P.m.m.m.m.m.P._.m.P._.m.P._.@.] ^ b 0 .                                 ",
"                              . 0 n Q ] r._._.(.(.(.].(.].]._.(.(.]._.(.]._.(.(.].(.r.] T b 0 .                                 ",
"                              . 0 v n ` (.].m.0.0.m._.r.m.(.0.@.r.(.S.a.(.G.8.0.m.].(. .b v 0 .                                 ",
"                              . 9 v v ` ].].j.] ] m.(.0.r.G.@.] @.S.r.@.(.m.( ] m.].]._ v c 8 .                                 ",
"                              . 0 v v ` ].].m.@.] j.(.0.a.d.@.X.@.j.r.r.P.h.8.] m.].]._ v c 0 .                                 ",
"                              . 0 v v ` ].].L.d.j.m.G.U.G.d.d.a.j.j.G.U.m.j.j.j.P.].].` v v 0 .                                 ",
"                              . e H H @._.G.j.d.r.r.j.j.a.<.<.@.<.@.a.j.j.r.r.t.j.m.(.r.H J r .                                 ",
"                              . i ] ] j.P.0.@.r. .@.d. .] ] ] ] ] ] ] @.d.<. .r.0.0.P.j.( ] i .                                 ",
"                              . a ] ] r.j.] ] @.] <.d. .] ] ] ] ] ] ] ] d.<.]  .] X.j.0.] ] a .                                 ",
"                  7.C . . . O 8 z ] ] <.a.a.0.<.r.r.j.j.m.j.@.a.a.s.j.m.j.a.0.@.r.<.d.<.] ] z 8 O X . . Z 7.                    ",
"                  7.C X @ @ > l J ] ] r.j.j.d.d.a.j.j._._._.Z.d.j.!.].U.j.d.j.j.j.d.j.r.] ] J l ; + + X Z 7.                    ",
"                  7.C @ S v z J ] ] ] m.!.A.d.a.@. .@.j.m.A.d.d.j.Z.S.d.@.@.@.d.j.A.(.j.] ] ` I z v v & Z 7.                    ",
"                  7.C * E ! v ^ ] ] ] j.!.r.a.a. .] ] d.d.@.<.r.r.@.r.d.@.] ] d.d.r.(.j.] ] ( ^ N E E * Z 7.                    ",
"                  7.Z = ) R b ^ ] ] @.S.U.0.r.d.@.@.@.j.r.| @.@.@.@.r.j.@.@.@.d.r.@.U.A.@. .] Q n ! ) = Z 7.                    ",
"                  7.C ; 5.*.N _ ] ] P.G.j.d.d.d.d.S.U.j.j.j.U.!.U.d.d.x.U.G.d.d.d.d.A.G.G.@.] ^ n *.3., Z 7.                    ",
"                  7.C 1 R.;.b ^ ] @.U.U.j.j.j.j.j.Z.U.j.j.x.G.G.G.x.j.x.P.Z.d.j.j.j.j.U.(.@.] ^ n ;.V., Z 7.                    ",
"                  7.C 1 V.;.b Q ] @.U.G.j.j.d.d.s.d.d.j.j.d.d.a.d.d.d.d.a.d.d.d.d.j.j.S.U.9.] ^ n 3.V.1 Z 7.                    ",
"                  7.C 1 R.;.b _ ] @.d.Z.j.j.r.] | | @.a.d.d.@.*.@.d.j.d.] @.] *.@.j.j.x.j.] ] ^ b ;.V., Z 7.                    ",
"                  7.C 1 R./.o.P Q @.d.r.<.<.@.] ] *.2.a.a.@.] ] X.@.a.d.2.| ] ] @.<.<.a.a.] ^ I o./.V.1 Z 7.                    ",
"                  7.Z 1 R.8X XR J ` *.] ^ / Q _ ` ] @.2. .Q ` / / / ] ;.*.*./ / ^ ^ / ` ;.` I T $X:XE.1 Z 7.                    ",
"                  7.C 1 ^.9X:X$Xo.n N N v n N v n n N N b n v N n n N N n F v v n n n n n b *. X:X9X^.1 Z 7.                    ",
"                  7.Z 6 +XpXeXeX}.3.:.:.2.2.d.5.V.x.R.x.Z.Z.V.R.V.n.n.Z.Z.Z.x.n.3.a.;.;.:.3.}.iXiXaX+X1 Z 7.                    ",
"                  7.C 7 @XkXpXpXsXaX9X8X9XaXpXaXcXvXvXvXvXvXvXvXvXvXvXvXvXvXvXaXpXpX9X9XqXsXpXpXsXjX@X7 Z 7.                    ",
"                  7.C 7 @XvXcXcXcXcXcXcXcXcXvXcXvXvXvXvXvXvXvXvXvXvXvXvXvXvXvXcXcXcXcXcXcXcXcXcXcXcX@X7 Z 7.                    ",
"                  7.C ; 5.#X#X*X>X>XiXaXiXaXaXpXaXaXaXaXaXaXaXaXaXaXaXaXaXaXaXaXaXaXiXaXiX>X*X#X#X#X5.; Z 7.                    ",
"                  7.C & E d.x.d.j.!.-X4X4X4X:X:X-X&X-X4X:X:X4X4X:X-X:X4X-X&X&X:X:X4X:X9X:XQ.j.n.j.j.E = Z 7.                    ",
"                  7.C = E x.d.x./.:X:X4X4X4X XZ.Z.G.L.-X/.L.-X4X-X/. X-XL.L.Z.Z. X4X4X3X3X:X!.d.j.j.E & Z 7.                    ",
"                  7.C o u s d s h k k k k k g d d a g j g g k k j g g j g a d d g k k k k k g d s d u o Z 7.                    ",
"                  7.A - - - - - - - - - - - - - - - - - - - - - - - - - - - - - - - - - - - - - - - - - A 7.                    ",
"                  7.6.D D D D D D D D D D D D D D D D D D D D D D D D D D D D D D D D D D D D D D D D D 6.7.                    ",
"                  7.7.7.7.7.7.7.7.7.7.7.7.7.7.7.7.7.7.7.7.7.7.7.7.7.7.7.7.7.7.7.7.7.7.7.7.7.7.7.7.7.7.7.7.7.                    ",
"                                                                                                                                ",
"                                                                                                                                ",
"                                                                                                                                ",
"                                                                                                                                ",
"                                                                                                                                ",
"                                                                                                                                ",
"                                                                                                                                ",
"                                                                                                                                ",
"                                                                                                                                ",
"                                                                                                                                "
};
