/* XPM */
static char *Tree011671478118[] = {
/* columns rows colors chars-per-pixel */
"64 64 214 2 ",
"   c None",
".  c #181510",
"X  c #1C1813",
"o  c #211D17",
"O  c #221E17",
"+  c #251E16",
"@  c #1D221A",
"#  c #28231B",
"$  c #2C251B",
"%  c #29241C",
"&  c #2A251D",
"*  c #2C261E",
"=  c #2C261F",
"-  c #2E271E",
";  c #2A281F",
":  c #31281D",
">  c #34291C",
",  c #362B1F",
"<  c #392C1E",
"1  c #3A2D1F",
"2  c #3F2F1E",
"3  c #3E2F1F",
"4  c #2B2B21",
"5  c #2D2A21",
"6  c #2F2A22",
"7  c #2F2D21",
"8  c #2E2D23",
"9  c #312920",
"0  c #332C22",
"q  c #362D21",
"w  c #332D25",
"e  c #392D21",
"r  c #2B3125",
"t  c #2C3226",
"y  c #2F3226",
"u  c #2D3528",
"i  c #333127",
"p  c #353225",
"a  c #353126",
"s  c #3B3023",
"d  c #3B3226",
"f  c #383527",
"g  c #3B3526",
"h  c #3E3C27",
"j  c #32362A",
"k  c #353729",
"l  c #383728",
"z  c #32392B",
"x  c #343828",
"c  c #323A2C",
"v  c #333B2D",
"b  c #333C2D",
"n  c #3A3828",
"m  c #393A29",
"M  c #41301F",
"N  c #43311E",
"B  c #4B351F",
"V  c #433221",
"C  c #403122",
"Z  c #463320",
"A  c #423423",
"S  c #433723",
"D  c #453622",
"F  c #433525",
"G  c #4E3822",
"H  c #493927",
"J  c #4D3A24",
"K  c #4C3A26",
"L  c #443728",
"P  c #443A2C",
"I  c #513C25",
"U  c #543F28",
"Y  c #374230",
"T  c #384230",
"R  c #3A4531",
"E  c #394432",
"W  c #3B4733",
"Q  c #3C4530",
"!  c #3C4732",
"~  c #3E4732",
"^  c #3C4832",
"/  c #3D4833",
"(  c #3E4933",
")  c #3F4A33",
"_  c #3D4A34",
"`  c #3F4B34",
"'  c #3F4C35",
"]  c #57422B",
"[  c #584228",
"{  c #5C4529",
"}  c #5B462D",
"|  c #404C34",
" . c #414D34",
".. c #414E36",
"X. c #404F37",
"o. c #424F36",
"O. c #564632",
"+. c #5E4930",
"@. c #445237",
"#. c #495536",
"$. c #455439",
"%. c #465538",
"&. c #44543A",
"*. c #46573B",
"=. c #495739",
"-. c #47593D",
";. c #4B5A39",
":. c #4A583A",
">. c #4A5A3B",
",. c #49593C",
"<. c #4B5C3D",
"1. c #4B5F3F",
"2. c #4D5E3D",
"3. c #4C5F3F",
"4. c #60472A",
"5. c #634B2F",
"6. c #614C33",
"7. c #664F32",
"8. c #645036",
"9. c #6E5433",
"0. c #695235",
"q. c #6D5535",
"w. c #6C5537",
"e. c #675339",
"r. c #715736",
"t. c #795D37",
"y. c #735B3B",
"u. c #745B39",
"i. c #775E3C",
"p. c #50613F",
"a. c #7C603A",
"s. c #7F643D",
"d. c #4E6442",
"f. c #506441",
"g. c #516441",
"h. c #526742",
"j. c #576A41",
"k. c #556943",
"l. c #566943",
"z. c #526945",
"x. c #576C44",
"c. c #546C46",
"v. c #576E47",
"b. c #5A6C43",
"n. c #5B6F44",
"m. c #5A6F45",
"M. c #586E46",
"N. c #5C7146",
"B. c #597148",
"V. c #5D7448",
"C. c #5C7449",
"Z. c #5E7749",
"A. c #5E764A",
"S. c #607545",
"D. c #657B47",
"F. c #617748",
"G. c #637A48",
"H. c #61794A",
"J. c #61794B",
"K. c #62794A",
"L. c #617A4A",
"P. c #637C4B",
"I. c #637C4C",
"U. c #667F4C",
"Y. c #667E4D",
"T. c #667F4D",
"R. c #87693E",
"E. c #8B6C3F",
"W. c #6B834A",
"Q. c #68814D",
"!. c #68824D",
"~. c #68814E",
"^. c #6A854D",
"/. c #6A844E",
"(. c #6A854E",
"). c #6A844F",
"_. c #6C854D",
"`. c #6D874F",
"'. c #6F8A4F",
"]. c #718A4E",
"[. c #6F8A50",
"{. c #728D50",
"}. c #728D51",
"|. c #748F51",
" X c #749051",
".X c #779252",
"XX c #7A9450",
"oX c #799552",
"OX c #799553",
"+X c #7C9450",
"@X c #7D9752",
"#X c #7C9853",
"$X c #7E9B54",
"%X c #829C53",
"&X c #829F54",
"*X c #86A254",
"=X c #8BA654",
"-X c #8CA654",
";X c #8FA954",
":X c #92AB53",
">X c #93AD55",
",X c #97B055",
"<X c #9CB455",
"1X c #A0B755",
"2X c #A4BB55",
"3X c #A5B85A",
"4X c #AEBF5A",
"5X c #B3BF5F",
"6X c #B2C15D",
"7X c #B7C35F",
"8X c #C1C664",
"9X c #C5C867",
"0X c #CACA69",
"qX c #CFCC6C",
/* pixels */
"                                                                                                                                ",
"                                                                                                                                ",
"                                                          ) ..) E   ) _ )                                                       ",
"                                                    ) =.;.'.=X%Xj.;.'.%XG.;.$.                                                  ",
"                                                  $.l.OX*X$X1X:X$X$X$X<X*X$X.X;.;.=...                                          ",
"                                                z OX$X$X*X$X*X$X;X*X$X-X*X#X$X>X,XOXl.                                          ",
"                                              c l.*X;X$X$X$X*X,X1X<X,X$X$X$X$X-X1X#X`...                                        ",
"                                            c !.$X2X,X$X,X2X2X6XqXqXqX2X,X$X$X$X&X#X#X[.&.                                      ",
"                                            ..}.$X$X$X;X,X>X4X8X0X9X2X2X<X,X*X$X$X$X$X`.<.                                      ",
"                                          c l.$X$X=X=X&X&X$X<X2X7X3X,X,X;X$X$X$X$X*X.X~.A.c                                     ",
"                                          c l.J.$X>X2X<X*X$X&X=X=X*X,X,X:X$X$X$X,X:X~.J.~.c                                     ",
"                                          c l.z.[.&X=X=X&X$X$X$X#X$X2X<X*X$X$X,X2X.XA.U.~.:.                                    ",
"                                      b &.&.k.~.z.B.[.$X$X~.B.[.$XJ.!..XJ.[.J.$X%XJ.B.~.~.z.c                                   ",
"                                ..=.;.+XD.-.J.~.[.`.~.A.B.B.~.~.!.!.B.B.A.!.~.B.B.A.~.OX[.J.c                                   ",
"                                N.%X=X:XW.$.v.~..XOX[.~.~.~.~.~.!.!.[.[.U.~.~.J.!.)..XOX[.z.Y &.@.)                             ",
"                              ..].,X1X$X.X@.:.v.!..X$XOX`.~.A.~.}..X$XOX}.~.~.z.B.~.[.J.B._ B.`..XW.l.2.                        ",
"                            ..J.].%X;XOX(.N.$.z.B.(.[.[.~.B.B.~.`.OX$XOX`.~.A.z._ B.B.c.&.c '.OX$X:X.Xk.c                       ",
"                          c +X2X;X$X#X!.J.z.z.c c c _ z._ c c c -.J.!.!.J.z._ c ~.c c c k.!.[.$X>X2X$X.Xl.                      ",
"                          c +X2XOX~.~.z.B.~.~.~.!.l.b z c w 5 4 c c z.z.-.c k.~.~.~.!.~.!.$X$X$X>X2X$X$X.X@.                    ",
"                        c J.B.B.Z.~.%X$X*X=X=X$X].~.J.E 5 ] 0 h n a j y k b.!.!.~.}.$X$X$X$X%X*X&X$X#X}.B.p.)                   ",
"                        c B.[.[.OX$X$X*X*X>X1X=X$X`.l.0 q e.L M 0 V 5 0 #.J.J.J.J.OX$X$X*X=X>X,X$X$X#X~.A.P...                  ",
"                        2..X$X*X*X$X,X1X;X$X*X=X,X.XJ.! l U O.s s k y <.C.J.J.'.J.A.J.~.%X2X<X*X$X$X}.J.~.B.d.T                 ",
"                    z 2.`.#X,X>X*X;X2X8X5X,X*X$X=X.X`.W.n.n H w x ;.D.'.}.`.}.$XOX].(.A.A.+X*X$X$X(.~.~.U.z.$.b                 ",
"                  @.~.~..X$X2X,X,X1X2X6XqX6X2X$X$X$X$X$X$X~.z &..X$X1X,X$X$X$X$X$X1X,X$X[.z.[.'.z.J.~.J.z.z._                   ",
"                  p.~.B.(.$X*X;X$X$X$X<X2X<X1X1X$X*X>X=X$X$X:.F.$X>X,X$X$X$X*X-X;X*X,X*XOX!.v.v.U.~.!.A.z.p.E                   ",
"                ) [.`.A.A..X$X$XOX$X$X=X<X*X:X,X$X>X<X*XOX$Xk.&.].:X$X$X&X-X<X2X2X*X$X$X}.[.~.v.B.J.F.d.-.E c                   ",
"                ..$X#X`.I.B.U.[.}.}.$X&X*X.XOX$X$X=X*X.X|.}.v.f.n.OX$X*X<X2X7X8X8X1X:X$X$X$X$X[.J.:._ E c                       ",
"                ) |.$X[.~.J.I.`.}.J.[.OX~.U.`.[.$XOX[.J.~.v.I.k.k..X,X<X4X8X0XqXqX2X<X,X*X$X*X=XI.v.c c                         ",
"                ! ~.~.~.~.~.~.~.~.~.z.z.B.~.~.z.~.~.J.J.!.~..XJ._ k.$X2X2X2X8XqX1X2X,X$X$X$X2X,X[.B.~.c b                       ",
"                Y f.I.`.[.$XOX[.(.~.[.$XOX~.~.~.B.C.I.~.~..X}.U.o.D.$X$X*X>X1X,X,X$X$X$X$X$X1X;XOXA.!.N.E                       ",
"                z E h.}.#X$X$X#X[.U..X$X$X}.~.~.[. XOX).J.~.~.C.&.W.%X#X.X#X:X$X$X*X=X&XOX$X;X#X!.J.[.J.-.                      ",
"                  c @.~..X[.|..X!.A.~.[.}.~.~.~.$XOX[.).U.B.J.d.S.#X>X#X}.OX$X$X,X<X,X*X[.[.~.A.!.OX$XJ.-.                      ",
"                    T N.`.~.J.'.A.-.@.@.p.~.p.~.[.`.~.~.A.z.o.$.].:X2X;X$X#X$X$X=X1X,X$X}.U.U.J.}.$X}.J.-.                      ",
"                      c -.c c c z c # i c c c c c c &.B.z.c B.[.$X$X2X$X.XU..X$X$X$XOXB.J.~.~.~.~.~.~.~.k.                      ",
"                      c c c   c @     - w w j c c i c c c z.!.!.v.[.$XJ.B.~.~.z.!..XJ.J.~.~.~.~.~.~.~.~.k.                      ",
"                                        o - < M Z M q k ' ~.~..X|.).B.A.~.`.[.~.B.B.A.`.~.~.).}.OX$X~.f.c                       ",
"                                          X o o 5 C N g c J.`.OXOX}.~.J.~.OX$X}.!.).[.OX].~..X#X$XOXJ.o.c                       ",
"                                                . % - M n _ A.~..X}.B.B.).OX|.[.B.[.$X X(.~.#XOX!.B._ u                         ",
"                                                  - d K D b _ @.=.$._ *.A.[.~.B.z.J.[.).A.B.J.v._ _ c                           ",
"                                                # > 4.y.I B F c i w w c c -._ c c z.z._ c c c c @                               ",
"                                              . & > I 7.} G I G G q 5 & & y r   r r r r                                         ",
"                                              # 0 < J 6.e.Z +.G G V & 0 : o                                                     ",
"                                            X 2 # N ] } 6.+.y.6.U +.V 9 < : .                                                   ",
"                                            o s # J 0.{ +.e.R.t.r.w.B e - +                                                     ",
"                                            o # w y.E.y.[ e.R.R.R.{ e.Z 9 .                                                     ",
"                                              # B y.E.q.I R.0.9.] t.E.I C o                                                     ",
"                                              # V q.R.{ B R.5.+.Z 9.E.} Z - .                                                   ",
"                                              . - [ 0.F Z y.t.K G I y.I Z - .                                                   ",
"                                                % F K 0 q ] 7.B V , P Z w o                                                     ",
"                                                  # # . o w M 0 # . % % +                                                       ",
"                                                          # # o                                                                 ",
"                                                                                                                                ",
"                                                                                                                                ",
"                                                                                                                                ",
"                                                                                                                                ",
"                                                                                                                                ",
"                                                                                                                                ",
"                                                                                                                                ",
"                                                                                                                                ",
"                                                                                                                                ",
"                                                                                                                                ",
"                                                                                                                                ",
"                                                                                                                                ",
"                                                                                                                                "
};
