/* XPM */
static char *_1_tree011671618771[] = {
/* columns rows colors chars-per-pixel */
"64 64 12 1 ",
"  c None",
". c #285870",
"X c #484840",
"o c #645C55",
"O c #706860",
"+ c #908850",
"@ c #8898B8",
"# c #A3B0C9",
"$ c #B0C8E8",
"% c #C8E0E8",
"& c #E0E0F8",
"* c #E8E8F8",
/* pixels */
"                                                                ",
"                                                                ",
"                                                                ",
"                              @@@@                              ",
"                          @@@@$$$$@@@@                          ",
"                       @@@$%%%%%%%%%%$@@@                       ",
"                      @$%$%%%%%%%%%%%%$%$@                      ",
"                    @@$%%$%%%%%%%%%%%%$%%$@@                    ",
"                   @$%$%%%%%%%%%%%%%%%%%%$%$@                   ",
"                  @$%%$%%%%%&%&&&&%&%%%%%$%%$@                  ",
"                ..@$%%%%%%&&&&&&&&&&&&%%%%%%$@..                ",
"              ..##@%%%%%%&&&&&****&&&&&%%%%%%@##..              ",
"             .###@$%%%%%&&&&********&&&&%%%%%$@###.             ",
"            .#$#$@$%%%%%%&&&********&&&%%%%%%$@$#$#.            ",
"           .#$$$$@$%%%%%&&&&********&&&&%%%%%$@$$$$#.           ",
"           .$$$$$@$$%%%%&&&&&*&**&*&&&&&%%%%$$@$$$$$.           ",
"          .#$$$$$#$$%%%%%&&&&&&&&&&&&&&%%%%%$$#$$$$$#.          ",
"          .#$%%$$#$$%%%%&&&&&&&&&&&&&&&&%%%%$$#$$%%$#.          ",
"          .$$%%$$$@$$%%%%%&&&&&&&&&&&&%%%%%$$@$$$%%$$.          ",
"          .$%%%$$$@$$$%%%%%%&%&&&&%&%%%%%%$$$@$$$%%%$.          ",
"         .#$%%%%$$#@$$$$%%%%%%%%%%%%%%%%$$$$@#$$%%%%$#.         ",
"         .#$%%%%$$$##$$$$$%%%%%%%%%%%%$$$$$##$$$%%%%$#.         ",
"         .$$$%%$$#$$##$#$$%%%%%%%%%%%%$$#$##$$#$$%%$$$.         ",
"         .$$$$###$$$#$#@$$$%$%%%%%%$%$$$@#$#$$$###$$$$.         ",
"         .$$@#%%%$$$$$$#@$$$$$$$$$$$$$$@#$$$$$$%%%#@$$.         ",
"         .$@$%%%%$$$$$$$###$$$$$$$$$$###$$$$$$$%%%%$@$.         ",
"         .#@%%%%%%%$$$$$$$$##$#$$#$##$$$$$$$$%%%%%%%@#.         ",
"         .@$%%%%%&&%%%%$$$$$$$$$$$$$$$$$$%%%%&&%%%%%$@.         ",
"         .@$%%%%&&&&&%%%$$$$$$$$$$$$$$$$%%%&&&&&%%%%$@.         ",
"         .@$$%%%&&&&&%%%$$$$$$$$$$$$$$$$%%%&&&&&%%%$$@.         ",
"         .#$$%%%%&&%%%%%$$#$$##$$##$$#$$%%%%%&&%%%%$$#.         ",
"         .#$$$%%%%%%%%%$$#@@#$$$$$$#@@#$$%%%%%%%%%$$$#.         ",
"         .#$$$$$%%%%$$$##$$$$$$$$$$$$$$##$$$%%%%$$$$$#.         ",
"         .##$$$$$$$$$$@$$$$$$$%%%%$$$$$$$@$$$$$$$$$$##.         ",
"         .##$$$$$$$$$@#$$$$%%%%&&%%%%$$$$#@$$$$$$$$$##.         ",
"         .###$$$$$$$#@$$$$%%%&&&&&&%%%$$$$@#$$$$$$$###.         ",
"         .#####$$####@$$$$%%%&&&&&&%%%$$$$@####$$#####.         ",
"         .#@########@#$$$$%%%%%&&%%%%%$$$$#@########@#.         ",
"         .#@#####@##@#$$$$%%%%%%%%%%%%$$$$#@##@#####@#.         ",
"         .@.##@##@##.##$$$$%%%%%%%%%%$$$$##.##@##@##.@.         ",
"         .@.##@##@#@.#@$$$$$$$%%%%$$$$$$$@#.@#@##@##.@.         ",
"          ..#@@##@@@.#@##$$$$$$$$$$$$$$##@#.@@@##@@#..          ",
"           .@@.##@@@.@@#@###$$#$$#$$###@#@@.@@@##.@@.           ",
"           X@@.##.@@X@.@@##@########@##@@.@X@@.##.@@X           ",
"            XX.#@.XX XX@.##@##@##@##@##.@XX@XX.@#.XX            ",
"              X@@X     X.#@@@#@@@@#@@@#.X     X@@X              ",
"               XX      oX@@.@@.@@.@@.@@Xo      XX               ",
"                       XoXX.@@.XX.@@.XXoX                       ",
"                       XOoOX@@XOOX@@XOoOX                       ",
"                       XOo++XXOOOOXX++oOX                       ",
"                       XoO+OOO+OO+OOO+OoX                       ",
"                       oXO+OoO++++OoO+OXo                       ",
"                        XOOooOO++OOooOOX                        ",
"                         XXoXoOOOOoXoXX                         ",
"                           XXXoOOoXXX                           ",
"                              XXXX                              ",
"                                                                ",
"                                                                ",
"                                                                ",
"                                                                ",
"                                                                ",
"                                                                ",
"                                                                ",
"                                                                "
};
