/* XPM */
static char *center1671710820[] = {
/* columns rows colors chars-per-pixel */
"64 64 187 2 ",
"   c None",
".  c #2C221B",
"X  c #36271D",
"o  c #2E2D2D",
"O  c #222E34",
"+  c #27353B",
"@  c #2A383F",
"#  c #29353E",
"$  c #373839",
"%  c #392F29",
"&  c #1E272F",
"*  c #423024",
"=  c #4D382A",
"-  c #41352D",
";  c #433B37",
":  c #643D35",
">  c #6F413B",
",  c #764537",
"<  c #49403C",
"1  c #2E3E46",
"2  c #273C4A",
"3  c #383E45",
"4  c #563F46",
"5  c #36424B",
"6  c #224A5F",
"7  c #294557",
"8  c #3A4653",
"9  c #3D4957",
"0  c #3E4C5A",
"q  c #354452",
"w  c #285367",
"e  c #38566A",
"r  c #3C5E75",
"t  c #26546C",
"y  c #3F6171",
"u  c #2E637E",
"i  c #424348",
"p  c #484848",
"a  c #494548",
"s  c #454D58",
"d  c #47535B",
"f  c #5C5C5C",
"g  c #6C4B4F",
"h  c #425161",
"j  c #4B5B6D",
"k  c #495966",
"l  c #4E5E71",
"z  c #4F6073",
"x  c #4D6A77",
"c  c #546E7A",
"v  c #53707D",
"b  c #786E64",
"n  c #92494B",
"m  c #96544A",
"M  c #974C54",
"N  c #85494B",
"B  c #B4525C",
"V  c #B95D5B",
"C  c #B7595B",
"Z  c #A45251",
"A  c #BB625A",
"S  c #8A717C",
"D  c #9C6F6E",
"F  c #BC6E67",
"G  c #B56E77",
"H  c #BE7B74",
"J  c #B37572",
"K  c #B16A67",
"L  c #E95E4A",
"P  c #C56251",
"I  c #EA6957",
"U  c #E87968",
"Y  c #A9807A",
"T  c #C38179",
"R  c #E0877A",
"E  c #EB8C7E",
"W  c #386783",
"Q  c #35728E",
"!  c #287194",
"~  c #367799",
"^  c #2A6989",
"/  c #317AA0",
"(  c #2778A0",
")  c #49758F",
"_  c #617B87",
"`  c #B57C85",
"'  c #3A85AE",
"]  c #4D819C",
"[  c #5A809E",
"{  c #4D88A6",
"}  c #4691BA",
"|  c #5C91B5",
" . c #298FC0",
".. c #3997C8",
"X. c #4E9CC3",
"o. c #4B9DCE",
"O. c #429ACB",
"+. c #519FD0",
"@. c #4DA3CC",
"#. c #44A0D1",
"$. c #4DA4D1",
"%. c #5CA4D5",
"&. c #55ABD4",
"*. c #5AA8D7",
"=. c #66AEDE",
"-. c #68B7DA",
";. c #76B6DF",
":. c #62A5C7",
">. c #62B3E3",
",. c #76BCE8",
"<. c #7EC2EA",
"1. c #7BC3F4",
"2. c #BF8680",
"3. c #AB9191",
"4. c #A49BA3",
"5. c #B79DA4",
"6. c #B6A5AE",
"7. c #B5A7AB",
"8. c #B3B3B8",
"9. c #9EA1B0",
"0. c #C38B84",
"q. c #C48F8B",
"w. c #C59189",
"e. c #D0958F",
"r. c #DB958B",
"t. c #C79995",
"y. c #E88E81",
"u. c #EF9285",
"i. c #E49286",
"p. c #F09C90",
"a. c #E39B91",
"s. c #CBA79C",
"d. c #D0A39D",
"f. c #C6ACA9",
"g. c #D7AAA4",
"h. c #C8B1AE",
"j. c #D8B0A9",
"k. c #D5BCAC",
"l. c #CDBBB9",
"z. c #D6BCB9",
"x. c #F2B1A7",
"c. c #E8B2AB",
"v. c #E4A69C",
"b. c #DBC0BD",
"n. c #CEC0B6",
"m. c #F4C6BF",
"M. c #98B8C8",
"N. c #BDB9C1",
"B. c #83BFE6",
"V. c #C3BBC1",
"C. c #ADC8D4",
"Z. c #AAC5D2",
"A. c #B6CDD6",
"S. c #BACBD4",
"D. c #BCD2DB",
"F. c #AEC3CE",
"G. c #86C4E8",
"H. c #93C9EA",
"J. c #87C9F4",
"K. c #90CDF4",
"L. c #99D1F3",
"P. c #A7D8F3",
"I. c #C7CFCC",
"U. c #D3D5C9",
"Y. c #C1D6DE",
"T. c #CFD9DA",
"R. c #C6D9DF",
"E. c #D1D3D7",
"W. c #E5C7C5",
"Q. c #F6D5D1",
"!. c #F0CDC8",
"~. c #DDE4D4",
"^. c #E5ECD6",
"/. c #C3D9E1",
"(. c #C9DDE4",
"). c #D3DDE3",
"_. c #CCE0E6",
"`. c #CFE3E9",
"'. c #DDE5E8",
"]. c #D6E8ED",
"[. c #DFEBEE",
"{. c #DAE4E7",
"}. c #E7EDEF",
"|. c #EAEEEF",
" X c gray94",
".X c gray98",
"XX c #EDEFF0",
/* pixels */
"                                                                                                                                ",
"                                                          C.A.A.A.A.                                                            ",
"                                                    A.A.A.{. X X X XA.A.A.Z.                                                    ",
"                                            M.A.).). X X X X X X X X X X X'.).).M.                                              ",
"                                          M.(.'. X X X X X X X X X X X X X X X X(.C.                                            ",
"                                        M.].[. X X X X X X X X X X X X X X X X X}.].C.                                          ",
"                                      Z.{.].[. X X X X X X X X X X X X X X X X X}.].}.Z.                                        ",
"                      C.A.A.A.A.A.C.Z.A.XX].[. X X X X X X X X X X X X X X X X X}.].}.[.Z.C.A.A.A.A.A.A.                        ",
"              = m D 8.|. X X X X X].(.). X].[. X X X X X X X X X X X X X X X X X}.].}. X(.(.}. X X X X X_.3.m > =               ",
"            b T.A }. X X X X X X X]./.[. X].[. X X X X X X X X X X X X X X X X X}.].}. X_.Y.}. X X X X X X}.w.h.T.=             ",
"          Z i.0.q.}.XX X X X X X XA.].[. X].[. X X X X X X X X X X X X X X X X X}.].}. X].(.}. X X X X X X|.h.F T.P ,           ",
"        b U g.T ].XXXX X X X X X XD.].[. X].[. X X X X X X X X X X X X X X X X X}.].}. X].(.{. X X X X X X X[.q.h.y.P g         ",
"      N T.R h.A ]. X X X X X X X XA.].[. X].[. X X X X X X X X X X X X X X X X X}.].}. X].(.'. X X X X X X X[.q.A g.R Y >       ",
"    = m T.E b.A ]. X X X X X X X XA.].[. X].[. X X X X X X X X X X X X X X X X X}.].}. X].`.'. X X X X X X X[.w.A m.R w.,       ",
"    m A '.x.W.A ]. X X X X X X X XA.].[. X].[. X X X X X X X X X X X X X X X X X}.].}. X]._.'. X X X X X X X[.w.A Q.v.w.A =     ",
"  > Z A .Xx.W.A ]. X X X X X X X XD.].[. X].[. X X X X X X X X X X X X X X X X X}.].}. X]._.'. X X X X X X X[.2.A Q.x.e.A >     ",
"  > V A .Xx.W.A ]. X X X X X X X XD.].[. X].[. X X X X X X X X X X X X X X X X X}.].|. X].(.'. X X X X X X X[.q.F Q.x.e.V n =   ",
"  > V A .Xp.W.A ]. X X X X X X X XA.].[. X].[. X X X X X X X X X X X X X X X X X}.].}. X].(.'. X X X X X X X[.q.V !.p.e.A n =   ",
"  > A A .Xu.W.A ]. X X X X X X X XA.].[. X].[. X X X X X X X X X X X X X X X X X}.].}. X].`.'. X X X X X X X].w.V m.u.e.A n =   ",
"> B V A .Xu.W.A ]. X X X X X X X XA.].[. X].[. X X X X X X X X X X X X X X X X X}.].}. X].(.'. X X X X X X X[.q.P !.u.e.A B n   ",
"> B V A .Xp.W.A ]. X X X X X X X XA.].[. X].[. X X X X X X X X X X X X X X X X X}.].|. X]._.'. X X X X X X X[.q.P !.p.e.A B n   ",
"> B V A .Xx.W.A ]. X X X X X X X XD.].[. X].[. X X X X X X X X X X X X X X X X X}.].|. X]._.}.|. X X X X X X[.w.A Q.x.e.A B n   ",
"> B V A .Xu.W.A ]. X X X X X X X XA.].[. X].[. X X X X X X X X X X X X X X X X X|.].}. X]._.'. X X X X X X X[.w.A !.u.e.A B n   ",
"> B V A .Xu.W.A ]. X X X X X X X XD.].[. X].[. X X X}.|.).V.6.f.6.6.'.'.'.}. X X}.].}. X].(.'. X X X X X X X[.w.V m.u.e.A B n   ",
"> B V A .Xu.W.A ]. X X X X X X X XA.].[. X].[. X}.}.].S.6.` B C C B 6.6.6.E.'.'.}.].}. X].).'. X X X X X X X[.q.A m.u.e.A B n   ",
"> B V A .Xu.W.A ]. X X X X X X X XA.].[. X].R.D.C.(.].4.V V V A A V V V V G ` ` (.`.}. X].(.'. X X X X X X X[.q.A m.u.e.A B n   ",
"> B V A .Xu.W.A ]. X X X X X X X XD.].[.XXY.` ` 9./.].4.A A { _ [ D V A V V V B ` 8.}. X].(.'. X X X X X X X[.q.A m.u.e.A B n   ",
"> B V A .Xx.W.A ]. X X X X X X X XA.].[.(.B B A 4./.M.A )  .=.P.H... .A A A A V V B 6. X].`.}.|. X X X X X X[.q.A Q.x.e.A B n   ",
"> B V A .Xx.W.A ]. X X X X X X X XA.].I.G B A A A 4.M.#.=.H.L.H.=.H.=.$.| K A A A V B 6.`.).}.XX X X X X X X[.q.A Q.x.e.A B n   ",
"> B V A .Xx.W.V ]. X X X X X X XXXD.`.6.B A A A A J M.#.@.&.#.#.$.$.#.$...S A A A A C B /.(.).XX X X X X X X[.q.A Q.x.e.A B n   ",
"> B V A .Xp.W.C ]. X X X X X X XXXD.8.G C A A A A A M.S S S S S S S S S S K A A V A V B 5.D.}.XX X X X X X X[.q.A !.p.e.A B n   ",
"> B V A .Xu.W.V ]. X X X X X X X XA.C B B B B B B B B B B B B B B B B B B B B B B B B B B ` {. X X X X XXX}.q.P B m.u.e.A B n . ",
": B V A .XR h.V /.[. X X X X X X X X X X X X X X X X X X X X X X X X X X X X X X X X X X X X X X X X X XXX'.H A C j.u.e.V B n . ",
"> B V A  XR h.A M.[.|. X X X X X X X X X X X X X X X X X X X X X X X X X X X X X X X X X X X X X X X X X}.t.A A A j.y.e.A B n . ",
"> B V A T.U g.H M.].].[. X X X X X X X X X XXX X X X X X X X X X X X X X X X X X X X X X X X X X X|.[.[.q.A A A h.i.R 0.V B n . ",
"> B V A T.U R 0.M.].].].].].].].].].].].].].].].].].].].].].].[.].].].].].].].].].].|. X X X[.].].l.A A A A A V T.I v.0.A B n . ",
"g B P V A j.I v.M.`.F.J A A A A A A A A A A A A A A A F w.w.U.^.^.s.0.H A A A A A 3.N.].].].(.4.A A A A A A H j.U R h.A A B n . ",
": B V V A d.U U M.D.7.A A V A A A A A A A A A A A A T s.~.^.^.^.^.^.^.l.H A A A A A 4.].].`.8.V A A A A A 0.j.i.L r.t.A A B n . ",
": n C V A F t.U M.8.g.h.b.W.W.W.W.W.W.W.W.A A A P 3.~.^.^.^.^.^.^.^.^.^.k.A A A V V l.C.(.D.U.!.W.W.W.l.h.a.U L j.H A A C Z :   ",
"  : B C A A F t.M.5.U R u.u.u.u.u.u.x.x.x.W.A A t.U.^.^.^.^.^.^.^.^.^.n.H K 2.A F g.c.M./.6.u.u.u.u.u.y.R I r.j.0.A V V B n *   ",
"  > B B V A A A M.E.b.u.I L L L L L L L R .XA T ~.^.^.^.^.U.A A A k.I.A A 7.~.I.A W.x.M.4.L L L L L L U u.E.0.A A A A C B N *   ",
"  ; g B B V A A 4.A H b.W.W.W.W.W.W.W.W.m.A F s.^.^.^.U.H A P T H A A F s.~.^.^.H A g.M.6.W.W.W.W.W.W.W.h.A A A A A C B M 4 *   ",
"  a k a B B C A A A A A A A A A A A A A A A 0.~.^.^.^.H V 3.b.~.U.f.A F s.^.^.^.k.A A M.A A A A P F A A V A A A A C B g s d *   ",
"  a z k 4 B B V A A A A A A A A A A A A A A w.^.^.^.^.P 2.U.^.^.^.~.f.A R ^.^.^.k.A A M.A A A A V V A A A A A K B B M s l d *   ",
"  4 j l l 4 B B B A A V A A A A A A A P A A T U.^.^.I.V k.^.^.^.^.^.^.V T ~.^.^.f.A V A A A A A A A A A C V C B B N 5 z l a *   ",
"  4 e j l j a Z B B B B B B B B B B B B C B B B B B B B B B B B C C B B B B B B B B B B B B B B B B B B B B B B N s z z k h *   ",
"  0 ~ j j z j g B B B B B B B B B B B B B B B B B B B B B B B B B B B B B B B B B B B B B B B B B B B B B B B M q z z h r Q *   ",
"  d o./ h j z h 4 4 4 4 4 4 4 4 4 4 4 4 4 4 a a 4 4 4 4 4 4 4 a 4 4 4 4 a 4 4 4 4 4 4 4 : 4 4 4 4 4 4 4 4 4 4 s z l h W O.Q *   ",
"  d #.*. .h k l + 1 1 s l l l z l z z z z z l l l d ) { ] ] ] p k ] ] ] ] k k z l l l z z z z z z z z z + 5 + 0 x h W o.%.Q *   ",
"  h >.L.%.' r j + 1 1 9 j j j j j j j j j j j j j s { { { { { p j { { { { j k j j j j j j j j j j j j j + 2 + 0 d ~ #.B.K.Q *   ",
"  p :.G.=.+.' e + 1 1 8 h h h h 0 h h h h h h h d s X.X.X.X.X.p x X.X.X.X.z s s h h h h h h h h h h s h + 5 @ 8 W O.=.,.<.r *   ",
"  ; 6 ' 1.B.,.' + 1 1 ^ / / / / / / W q h h h h h s X.X.X.X.X.p z X.X.X.} x s e h h h h w ~ / ~ / / / / # 1 @ u o.G.,.*.^ 3 *   ",
"  < 8 7 #.L.J...O 5 5 ! ..=.B.%.o.o.! 1 0 / / ~ / k @.@.@.@.$.f c @.@.@.o.x W ~ / ~ r h w ..o.B.-.o.o...+ 1 @ ! ,.K.,.^ q i *   ",
"  < 9 h & #.1.#.+ 5 @ ! o.P.H.%.%.P.! 5 l  .%.,.&.j -.-.-.-.-.f _ -.-.-.-.c ~ %.,.+.) z w ..H.P.%.%.H.*.+ 1 # ! ,.>.! q 9 i *   ",
"  - 9 0 0 6 ' ..+ 5 @ ! <.K.1.J.P.L.! 7 } =.B.G...y -.-.-.-.-.f _ -.-.-.-.c ~ ;.J.=.$.Q w *.P.,.J.K.P.$.+ 1 1 ! >.u 1 s 9 ; X   ",
"    - i 0 9 q ( O 5 @ e } #.#.@.&.#.e t >.L.J.J.$.y -.-.-.-.-.f _ -.-.-.-.c ~ J.J.1.K. .7 ~ $.#.o.&.o.~ + 1 # ! 6 3 0 9 i       ",
"      ; 9 9 8 6 O 7 1 + 7 6 6 6 6 6 O 6 ,.K.J.P.&.y &.&.&.&.&.f _ &.&.&.&.x ' <.1.K.P. .+ 2 6 6 6 6 6 2 + 2 @ 7 q 0 s 4 o       ",
"        = 9 9 d + @ 1 q 0 e 0 d e d d W >.1.P.L.#.y o . . . o . . . . . o < ! 1.K.P.J. .h h h h 0 d d d + 5 # 8 9 0 i .         ",
"          - i i $ @ $ < i p p 5 p i p 3 o o o o o ;                       < $ o o o o o i i i i i i p 5 o 5 $ 3 4 $ X           ",
"            * * % O o % * * * * * * * * * * * * * %                       % - % * * * * * * * * * * * * % & % * % o             ",
"                                                                                                                                ",
"                                                                                                                                ",
"                                                                                                                                ",
"                                                                                                                                "
};
