/* XPM */
static char *result[] = {
/* columns rows colors chars-per-pixel */
"64 64 21 1 ",
"  c #C1C1C1",
". c #BEBEC1",
"X c #BAB9C0",
"o c #BFBFC1",
"O c #BDBCC0",
"+ c #BDBDC0",
"@ c #C0C0C1",
"# c #BBBAC0",
"$ c #BCBBC0",
"% c #BFBEC1",
"& c #C1C0C1",
"* c #BCBCC0",
"= c #BEBDC1",
"- c #7A7980",
"; c #ADA16B",
": c #AEA26A",
"> c #8F834B",
", c #8E824A",
"< c #ACA06A",
"1 c #ADA169",
"2 c #8D824B",
/* pixels */
"                              .XXXXXo                           ",
"                   oOOOO+@    @.....@                          @",
"                   +XXXX#@                                     @",
"                   +XXXX#@                                     @",
"                   +XXXX#@                                     @",
"                   +XXXX#@                                     @",
"@@@                .####$@                                     @",
"##O                 @@@@@                                       ",
"XX$                                                             ",
"XX$                                                             ",
"XX$                                                             ",
"XX$                                                             ",
"++.                                                             ",
"                                                                ",
"                                                                ",
"                                                                ",
"                                                                ",
"                                                                ",
"                                                                ",
"                                                                ",
"                                                                ",
"                                                                ",
"                                                                ",
"                                                                ",
"                                                                ",
"                                                                ",
"                                                                ",
"                                                                ",
"                                                                ",
"                                                                ",
"                                                                ",
"                                                                ",
"                                                                ",
"                                                                ",
"                                         @ooooo@                ",
"                                         %XXXXX%                ",
"                                         %XXXXX%                ",
"                                         %XXXXX%                ",
"                                         %XXXXX%                ",
"                                         %XXXXX%                ",
"                        &+OOOOOOOOOO@    @.....@                ",
"                        @#XXXXXXXXXXo                           ",
"                        @#XXXXXXXXXXo                           ",
"                        @#XXXXXXXXXXo                           ",
"                        @#XXXXXXXXXXo                           ",
"oo@                     @#XXXXXXXXXXo          @oooooooooo@     ",
"XX*                     @#XXXXXXXXXXo          OXXXXXXXXXX.     ",
"XX$                     @#XXXXXXXXXXo          *XXXXXXXXXX=     ",
"XX$                     @#XXXXXXXXXXo          *XXXXXXXXXX=     ",
"XX$                     @#XXXXXXXXXXo          *X---------------",
"XX$                     @#XXXXXXXXXXo          *X---------------",
"==%                      .==========@          *X---------------",
"                                               *X---------------",
"                                               *X----;:::::::>,,",
"                                               *X----;:::::::>,,",
"                                               *X----;:::::::>,,",
"                                    @@@@@@     O#----;:::::::>,,",
"                                    O####O     @@----;:::::::>,,",
"                                    $XXXX*       ----;:::::::>,,",
"                                    $XXXX*       ----<1111111>,,",
"                                    $XXXX*       ----2,,,,,,,,,,",
"                                    $XXXX*       ----2,,,,,,,,,,",
"                                    .++++.       ----2,,,,,,,,,,",
"                                                 ----2,,,,,,,,,,"
};
