/* XPM */
static char *result[] = {
/* columns rows colors chars-per-pixel */
"64 64 12 1 ",
"  c #8E824A",
". c #ADA16A",
"X c #AEA26A",
"o c #7A7980",
"O c #7A7A80",
"+ c #7B7A80",
"@ c #7B7A81",
"# c #BAB9C0",
"$ c #C0C0C0",
"% c #C0C0C1",
"& c #C1C0C1",
"* c #C1C1C1",
/* pixels */
"           oooo$***####************************########********#",
"           oooo$***####************************########********#",
"           oooo$***####************************########********#",
"   XXXXXXXXoooo$***********************************************#",
"   XXXXXXXXoooo$***********************************************#",
"   XXXXXXXXoooo%***********************************************#",
"   XXXXXXXXoooo%***********************************************#",
"   XXXXXXXXoooo&***********####************************####*****",
"   XXXXXXXXoooo************####************************####*****",
"   XXXXXXXXoooo************####************************####*****",
"   XXXXXXXXoooo************####************************####*****",
"   XXXXXXXXoooo*************************************************",
"   XXXXXXXXoooo*************************************************",
"   XXXXXXXXoooo*************************************************",
"   XXXXXXXXoooo*************************************************",
"   XXXXXXXXoooo*************************************************",
"   XXXXXXXXoooo*************************************************",
"   XXXXXXXXoooo*************************************************",
"   XXXXXXXXoooo*************************************************",
"   XXXXXXXXoooo*************************************************",
"   XXXXXXXXoooo*************************************************",
"   XXXXXXXXoooo*************************************************",
"   XXXXXXXXoooo*************************************************",
"   XXXXXXXXoooo********************************************####*",
"   XXXXXXXXoooo********************************************####*",
"   XXXXXXXXoooo********************************************####*",
"   XXXXXXXXoooo********************************************####*",
"   XXXXXXXXoooo************########*****************************",
"   XXXXXXXXoooo************########*****************************",
"   XXXXXXXXoooo************########*****************************",
"   XXXXXXXXoooo************########*****************************",
"   XXXXXXXXoooo************########****************************#",
"   XXXXXXXXoooo************########****************************#",
"   XXXXXXXXoooo************########****************************#",
"   XXXXXXXXoooo************########****************************#",
"           oooo****####*****************************************",
"           oooo****####*****************************************",
"           oooo****####*****************************************",
"           oooo****####*****************************************",
"   XXXXXXXXoooo********************####*************************",
"   XXXXXXXXoooo********************####*************************",
"   XXXXXXXXoooo********************####*************************",
"   XXXXXXXXoooo********************####*************************",
"   XXXXXXXXoooo********########*********************************",
"   XXXXXXXXoooo********########*********************************",
"   XXXXXXXXoooo********########*********************************",
"   XXXXXXXXoooo********########*********************************",
"   XXXXXXXXoooo********########*********************************",
"   XXXXXXXXoooo********########*********************************",
"   XXXXXXXXoooo********########*********************************",
"   XXXXXXXXoooo********########*********************************",
"   XXXXXXXXoooo*************************************************",
"   XXXXXXXXoooo*************************************************",
"   XXXXXXXXoooo*************************************************",
"   XXXXXXXXoooo*************************************************",
"   XXXXXXXXoooo********************************************####*",
"   XXXXXXXXoooO********************************************####*",
"   XXXXXXXXooo+********************************************####*",
"   XXXXXXXXooo+********************************************####*",
"   XXXXXXXXooo@********************************########*********",
"   XXXXXXXXooo@********************************########*********",
"   XXXXXXXXooo@********************************########*********",
"   XXXXXXX.ooo@********************************########*********",
"           ooo@****####************************########********#"
};
