/* XPM */
static char *stone011671709641[] = {
/* columns rows colors chars-per-pixel */
"64 64 133 2 ",
"   c None",
".  c #354B65",
"X  c #3A526C",
"o  c #3C5775",
"O  c #3D5978",
"+  c #445364",
"@  c #535C67",
"#  c #545F6A",
"$  c #425974",
"%  c #405D7E",
"&  c #5B6269",
"*  c #45607E",
"=  c #4A627D",
"-  c #596674",
";  c #5B6877",
":  c #6C6C6D",
">  c #BEA639",
",  c #CEAA1B",
"<  c #D3AF1E",
"1  c #D5B11F",
"2  c #C7A724",
"3  c #C8A825",
"4  c #CEAE2A",
"5  c #D6B220",
"6  c #DAB523",
"7  c #D4B42C",
"8  c #C2A93B",
"9  c #DCBC31",
"0  c #D9BB3B",
"q  c #E2BD27",
"w  c #BAA541",
"e  c #BEAA45",
"r  c #B5A64E",
"t  c #B2A555",
"y  c #B6A857",
"u  c #BDAD53",
"i  c #ABA463",
"p  c #A8A368",
"a  c #AEA86B",
"s  c #B1A966",
"d  c #B5AD6A",
"f  c #B8AF6A",
"g  c #BCB46D",
"h  c #A3A273",
"j  c #A7A97F",
"k  c #AAAA7B",
"l  c #B0AF7F",
"z  c #B5B37E",
"x  c #CEB643",
"c  c #CBB64C",
"v  c #D3BA46",
"b  c #C0AF54",
"n  c #C3B356",
"m  c #C0B25D",
"M  c #C8B759",
"N  c #456384",
"B  c #4F6680",
"V  c #496788",
"C  c #4B698A",
"Z  c #506781",
"A  c #536A82",
"S  c #57728F",
"D  c #4D6D91",
"F  c #506F92",
"G  c #4E729A",
"H  c #557394",
"J  c #5B7796",
"K  c #54779D",
"L  c #5F7A98",
"P  c #617B99",
"I  c #557AA5",
"U  c #5C7DA3",
"Y  c #597EA8",
"T  c #69829D",
"R  c #5F80A7",
"E  c #5D82AB",
"W  c #6482A4",
"Q  c #6E88A6",
"!  c #6184AC",
"~  c #6D8BAC",
"^  c #7490AF",
"/  c #6487B0",
"(  c #678AB2",
")  c #6A8CB3",
"_  c #6F91B6",
"`  c #7292B7",
"'  c #7995B3",
"]  c #7595B9",
"[  c #7897BA",
"{  c #7C9ABB",
"}  c #8E9F9F",
"|  c #909F9B",
" . c #97A08D",
".. c #9CA48D",
"X. c #93A094",
"o. c #96A49E",
"O. c #99A69C",
"+. c #9DA99C",
"@. c #A6AA84",
"#. c #A9AB81",
"$. c #A2A98B",
"%. c #A2A991",
"&. c #A7AF98",
"*. c #8D9FA1",
"=. c #899EAB",
"-. c #849DB5",
";. c #819DBD",
":. c #8FA1A2",
">. c #92A3A3",
",. c #9AA9A5",
"<. c #92A5AD",
"1. c #96A9AE",
"2. c #9EADA8",
"3. c #89A2B5",
"4. c #86A1BC",
"5. c #8BA3BB",
"6. c #97ABB6",
"7. c #99ACB2",
"8. c #92A9BC",
"9. c #839FC0",
"0. c #84A1C0",
"q. c #89A5C2",
"w. c #8EA9C5",
"e. c #92ABC6",
"r. c #98AFC7",
"t. c #94ADC9",
"y. c #97B0CB",
"u. c #9DB4CD",
"i. c #A0B7CF",
"p. c #A1B8CF",
"a. c #A5BAD1",
"s. c #AABED4",
"d. c #ACC0D5",
/* pixels */
"                                                                                                                                ",
"                                                                                                                                ",
"                                                                                                                                ",
"                                                                                                                                ",
"                                                                                                                                ",
"                                                                                                                                ",
"                                                                                                                                ",
"                                                                                                                                ",
"                                                                                                                                ",
"                                    o o o o o O o o   $ o o O o o o o o o   o o o o o o o o                                     ",
"                                    % H P L P L P H   C H L P P P P L H F   H L P L P P H %                                     ",
"                                    C ' w.e.w.w.e.Q % Y ] w.w.w.w.w.w.] U % Q w.w.w.e.e.' C                                     ",
"                                o L -.e.y.y.t.w.w.5.-.9.e.y.t.w.w.t.y.e.q.-.5.w.w.t.y.u.e.-.L o                                 ",
"                                o T a.i.a.i.y.t.t.r.i.u.u.a.u.y.y.y.a.u.y.u.y.t.t.y.u.u.i.a.T o                                 ",
"                                o T a.a.a.u.u.p.u.u.u.t.y.s.s.s.d.d.s.y.t.u.i.u.u.u.i.a.a.a.T o                                 ",
"                                o J ;.9.w.a.a.a.s.s.a.p.a.d.d.s.d.d.s.a.a.a.a.s.s.a.a.w.9.9.J o                                 ",
"                                o D ) ) { i.a.a.a.a.a.a.p.a.a.a.s.p.p.p.p.p.a.a.p.a.p.{ ( ) D o                                 ",
"                                o F ( ) ` 0.q.0.q.q.q.q.q.q.q.q.q.q.q.q.q.q.q.q.q.q.q._ ) ) D o                                 ",
"                                o F ( ( ` ;.9.{ ;.{ ;.{ { 9.{ ;.;.;.;.;.;.9.;.;.{ 9.{ _ ( ) D o                                 ",
"                                O F ( ) _ { -.4.;.;.3.4.;.-.-.-.-.-.-.;.;.-.4.;.-.;.9._ ) ( D O                                 ",
"                              % D Y ) ( _ { @.g 1.%.m o.X.t u M n b t | o.m %.1.g @.{ _ ( ) I D %                               ",
"                            o % G E ( ) ` 9.d x 2.l 7 %. .2 1 6 6 5 2  .%.7 #.2.x d 9._ ) ( E G % o                             ",
"                            o % G Y ( ( ] q.s 8 ,.k 3 %.%.3 , , , , 2 %.%.2 k ,.8 a q.[ ) ) Y G % o                             ",
"                            o % K Y ( ( ] w.+.$.8.,.j 1.1.#.k k k k j 1.1.@.,.6.$.+.w.` ( ( Y G % o                             ",
"                            o % G Y / ( { q.6.2.2.7.t.7.7.e.6.2.2.6.e.7.7.e.6.2.2.7.e.{ _ / Y G % o                             ",
"                            o % G I Y [ q.w.#.v v z 8.g g 8.z v v z 8.g g 8.z v v #.w.q.[ Y I G % o                             ",
"                            o N G I Y { w.w.f 6 6 f 8.M b 3.d 6 6 d 3.b b 6.f 6 6 f w.w.{ I I G % o                             ",
"                            o O G I I { w.w.a 3 2 a 8.y t -.p 3 2 p -.t y 8.a 2 2 a w.w.{ I I G % o                             ",
"                            o % G G I { w.w.>. . .>.0.,.o.-.:. . .} ;.o.,.9.>. . .>.e.w.{ I I G % o                             ",
"                            o % I Y E { 6.&.<.-.O.>.-.o.%.....%.%...%.%.o.-.>.O.-.<.&.6.{ Y Y I % o                             ",
"                            o * Y ( ) 9.&.0 @.>.c d -.t 4 9 9 9 9 9 9 4 t -.f c >.#.0 &.;.) ( W N o                             ",
"                            o N U ( ) 9...7 e y 4 s -.r , 5 5 5 1 < < < r -.a 4 t e 7 %.{ ) ( U N o                             ",
"                            % N ! ) ( [ X.w > > > h 4.i > > > > 8 8 8 8 i -.h > > > w X.] ) ) E V %                             ",
"              : : ; N N N N D I / ( ) { -.*.} *.| 3.{ <.,.,.>.:.} | ,.,.<.9.=.*.} } :.-.[ ) ( / I C N N N N ; :                 ",
"              : : ; N H K D I E ( ( ) { 0.{ { 3.$.k #.1.q.q.4.{ ;.;.q.q.1.#.j $.3.;.{ 0.{ ) ) ( E K D K H V ; :                 ",
"              : : ; V ~ ` I E ) ( ( ) 0.q.3.-.:.x q 9 ..{ 3.-.3.-.-.-.-...9 q x >.;.3.5.0.) ) ( ( E I ` ~ V ; :                 ",
"              : : ; V ~ _ I ! ( ) ( _ 9.,.t  .o.8 1 4 ..| t u M M u t } ..4 < 8 :.X.t ,.9.) ) ( ( E I _ ~ V ; :                 ",
"              : : ; V ' [ I ! ( ( _ ] 9.o.t  .=.i r y X.} t u M M u t } o.y r i :. .t o.9.] _ ) ) E I [ ^ V ; :                 ",
"              : : ; V { 0.I ! ( ) [ w.0.{ 3.;.{ 3.3.8.4.{ 3.5.8.8.3.-.-.4.8.3.-.{ 4.4.{ 9.q.[ ) ) ! Y 0.{ V - :                 ",
"              : : - V -.q.Y E ) ( [ q.0.9.0.{ 9.{ 0.0.9.{ 9.0.q.0.0.9.{ 9.0.0.;.0.{ { 9.0.w.[ ( ( ! I q.-.V ; :                 ",
"              : : ; C ;.q.I ! ( ) [ q.0.9.9.{ [ { { { { 9.9.{ { { { 0.;.{ { { { { { 9.{ 0.w.[ ) ( E I q.-.C ; :                 ",
"              : : ; V -.0.Y ! ( ( ] 9.9.9.{ ] _ ) _ _ [ 9.{ ] ) ) ] { 9.[ _ _ ) _ ] 9.9.{ 0.] ) ( E Y 0.-.C ; :                 ",
"              : : ; V -.e.' ( E ( ] { [ ] ] _ ( ( _ ] { { ] _ ) ( _ ] { { ] _ ( ( _ ] ] [ { ] ( ! ( ' e.-.V ; :                 ",
"              : : ; V -.i.u.' Y / _ { _ ( ( ( ( ( ` { { ] ) ( ( ( ( ) [ { { _ ( ( ( ( ( _ { _ / Y [ u.i.;.V ; :                 ",
"              : : ; C -.p.u.e.{ ! E ! R Y Y Y Y R E E E E U Y U Y Y I E ! ! R I Y Y E I E E E ! ;.e.i.i.-.V ; :                 ",
"              : : ; C 3.s.p.p.y.' ) ~ ) _ ( ) ) ) ) _ ~ ) ` ) ` ` ) _ ) ~ _ _ _ ) ) ~ ) ~ ) ) ' t.i.i.a.4.V ; :                 ",
"              : : ; V 5.s.p.a.u.i.u.y.y.u.u.u.p.p.s.s.a.s.s.s.p.s.s.a.s.s.a.s.p.u.u.u.y.y.y.y.u.a.p.p.s.5.C ; :                 ",
"              : : ; V 4.d.s.s.s.s.s.a.s.a.s.s.s.d.d.d.d.d.d.d.d.s.d.d.d.d.d.d.d.d.s.d.s.s.s.d.s.s.s.s.s.5.C ; :                 ",
"              : : : N -.a.a.a.a.a.a.s.s.s.s.s.s.s.s.s.s.s.s.s.s.s.s.s.s.s.s.s.s.s.s.s.s.s.s.s.a.p.s.p.p.-.N - :                 ",
"              : : - X Q 9.q.9.q.q.t.i.p.p.p.p.a.p.p.p.p.i.i.p.p.p.p.p.i.p.p.p.p.p.p.p.i.p.i.e.q.q.q.q.q.Q X # :                 ",
"              : : # . Q ;.;.;.9.q.r.u.i.i.i.t.e.e.t.e.u.u.e.r.i.i.r.w.u.u.e.w.e.e.r.i.u.i.i.t.q.9.;.;.;.P X @ :                 ",
"              : : # . P [ [ -.;.e.r.r.t.r.r.q.' [ ' [ w.w.{ q.t.r.q.-.w.w.[ -.[ [ 9.r.r.r.r.r.e.-.[ ' [ P . @ :                 ",
"              : : @ . $ % = = = Z A A A A A = = = = = Z Z = = A A Z % A = % = = = A A A A A A A Z % % = $ . @ :                 ",
"              : : # + + + + + + + + + + + + + + + + + + + + + + + + + + + + + + + + + + + + + + + + + + + + : :                 ",
"              : : : : : : : : : : : : : : : : : : : : : : : : : : : : : : : : : : : : : : : : : : : : : : : : :                 ",
"              : : : : : : : : : : : : : : : : : : : : : : : : : : : : : : : : : : : : : : : : : : : : : : : : :                 ",
"                                                                                                                                ",
"                                                                                                                                ",
"                                                                                                                                ",
"                                                                                                                                ",
"                                                                                                                                ",
"                                                                                                                                ",
"                                                                                                                                ",
"                                                                                                                                "
};
