/* XPM */
static char *candy_x1671636508[] = {
/* columns rows colors chars-per-pixel */
"64 64 140 2 ",
"   c None",
".  c gray19",
"X  c #333030",
"o  c #303333",
"O  c #313333",
"+  c #303535",
"@  c #323434",
"#  c #333737",
"$  c #383030",
"%  c #303838",
"&  c #353939",
"*  c #483020",
"=  c #503020",
"-  c #503820",
";  c #363E53",
":  c #384040",
">  c #344449",
",  c #374153",
"<  c #37525D",
"1  c #3A4563",
"2  c #3A4968",
"3  c #3A486E",
"4  c #3D4A6E",
"5  c #395E6B",
"6  c #3E5C6D",
"7  c #3A4B75",
"8  c #3E4B75",
"9  c #3F4E78",
"0  c #3E4F78",
"q  c #484548",
"w  c #52545B",
"e  c #5C5A5E",
"r  c #485C66",
"t  c #4D5C66",
"y  c #41527B",
"u  c #52606E",
"i  c #546C6D",
"p  c #546E6D",
"a  c #486A7D",
"s  c #4D6A7D",
"d  c #626C66",
"f  c #686068",
"g  c #6A6A6E",
"h  c #627166",
"j  c #606C7A",
"k  c #6B707B",
"l  c #687F7D",
"z  c #68837D",
"x  c #3E5082",
"c  c #3E5388",
"v  c #385898",
"b  c #3A6A86",
"n  c #3F738F",
"m  c #3E748F",
"M  c #3E5EA2",
"N  c #417186",
"B  c #567F86",
"V  c #487E9B",
"C  c #4B7E9B",
"Z  c #7E7E82",
"A  c #717D8A",
"S  c #4860A8",
"D  c #4076AD",
"F  c #5A74AF",
"G  c #497FB6",
"H  c #446BC6",
"J  c #4868C0",
"K  c #416FCF",
"L  c #486ECA",
"P  c #4870D0",
"I  c #4872D8",
"U  c #4876E0",
"Y  c #4877E1",
"T  c #4579E6",
"R  c #487DE1",
"E  c #487AEA",
"W  c #408098",
"Q  c #70999B",
"!  c #709D9B",
"~  c #4185A9",
"^  c #408CB7",
"/  c #4D84BC",
"(  c #4E88BE",
")  c #4B96B7",
"_  c #4391BC",
"`  c #6797B5",
"'  c #6991B0",
"]  c #699BB6",
"[  c #60A3B7",
"{  c #4E8CC1",
"}  c #4398C1",
"|  c #5493C8",
" . c #489FD0",
".. c #639ACA",
"X. c #45A0CF",
"o. c #48A9D9",
"O. c #5FB3DF",
"+. c #68AAD8",
"@. c #69B7D0",
"#. c #4885E1",
"$. c #4D88E3",
"%. c #4B97E0",
"&. c #4880F8",
"*. c #4886F8",
"=. c #488AF8",
"-. c #488EF8",
";. c #4892F8",
":. c #4898F8",
">. c #489EF8",
",. c #569BF3",
"<. c #52B6ED",
"1. c #48A0F8",
"2. c #48A2F8",
"3. c #48AAF8",
"4. c #48AEF8",
"5. c #48B8F8",
"6. c #4FBFF8",
"7. c #69BFEC",
"8. c #7FA6F8",
"9. c #58C4F8",
"0. c #58C8F8",
"q. c #63CDF8",
"w. c #6DD3F8",
"e. c #96929A",
"r. c #A8A9BA",
"t. c #B1B2BE",
"y. c #80A0C0",
"u. c #88B8D8",
"i. c #9FB8D8",
"p. c #B8B8C0",
"a. c #91B2F8",
"s. c #A9C2F8",
"d. c #88E8F8",
"f. c #C6C9D8",
"g. c #C5D2E0",
"h. c #C6D5EA",
"j. c #C8D8F8",
"k. c #D8E0F8",
"l. c #E3EAF8",
"z. c #F8F8F8",
/* pixels */
"                                                                                                                                ",
"                                                                                                                                ",
"                                                                                                                                ",
"                                                                                                                                ",
"                                                                                                                                ",
"                                                                                                                                ",
"                                                                                                                                ",
"                                                                                                                                ",
"                                                                                                                                ",
"                                                                                                                                ",
"                                                                                                                                ",
"                                                                                                                                ",
"                                                                                                                                ",
"                                                      % % % % % . . . . .                                                       ",
"                                                      % % % % % . . . . .                                                       ",
"                                                      % % % % % . . . . .                                                       ",
"                                          . . . . . . % % 0 S S P P P P P 7 . . . . o                                           ",
"                                          . . . . . + % % 0 S S P P P P P 7 . . . . o                                           ",
"                                          w u u u u j A A F L L Y Y R #.#.D b b b b r                                           ",
"                                      = = k y.y.y.y.i.j.j.8.&.&.&.&.;.1.1.4.5.5.5.5.C * *                                       ",
"                                      = = k y.y.y.y.i.j.j.8.&.&.&.&.-.1.1.3.5.5.5.5.V * *                                       ",
"                                = = t C C ' y.y.g.g.h.j.j.s.a.a.&.&.*.-.-.>.3.3.5.5. .V W r * *                                 ",
"                                = = s 5.5.+.y.y.z.z.l.j.j.j.j.j.&.&.&.&.&.;.>.>.5.5.5.5.5.a * *                                 ",
"                                = = s 5.5.+.y.y.z.z.l.j.j.j.j.j.&.&.&.&.&.;.1.>.5.5.5.5.5.a * *                                 ",
"                                . . b 5.5.u.p.p.p.p.f.k.k.k.k.k.&.&.&.&.&.&.&.&.1.1.3.5.5.b . .                                 ",
"                                . . b 5.5.u.p.p.p.p.f.k.k.k.k.k.&.&.&.&.&.&.&.&.1.1.3.5.5.b . .                                 ",
"                                b b ^ 5.5.` Z Z p.p.t.r.r.r.r.r.&.&.&.&.&.&.&.&.;.;.1.5.5.^ b b                                 ",
"                          . . . 5.5.5.5.5.b . . p.p.e.f f f f f &.&.&.&.&.&.&.&.&.&.:.5.5.5.5.5.. . .                           ",
"                          . . . 5.5.5.5.5.b . . p.p.e.f f f f f &.&.&.E &.&.&.&.&.&.:.5.5.5.5.5.. . .                           ",
"                          . . . 5.5.5.5.5.b . . g g e q q q q q I I Y I I E &.&.&.&.=.:.:.3.5.5.. . .                           ",
"                          . . . 5.5.5.5.5.b . . . . . . . . . . J J J J J Y &.&.&.&.&.&.&.1.5.5.. . .                           ",
"                          . . . 5.5.5.5.5.b . . . . . . . . . . J J J J J Y &.&.&.&.&.&.&.1.5.5.. . .                           ",
"                          . . . 5.5.5.5.5.} W W . . . . . . . . . . 3 J J I &.&.&.&.&.&.&.1.5.5.. . .                           ",
"                          . . . 5.5.5.5.5.} W W . . . . . . . . . . 7 J J Y &.&.&.&.&.&.&.1.5.5.. . .                           ",
"                          X . X 5.9.9.5.9.o.} } # # + . . . . . . . ; x x H &.&.&.&.T K K %.<.<.. . .                           ",
"                          $ $ $ 0.0.0.0.0.5.5.5.: & & . . . . . . . . . . M &.&.&.&.K v v { O.O.. . .                           ",
"                          $ $ $ 0.0.0.0.0.9.5.5.: : & . . . . . . . . . . M &.&.&.&.K v v { O.O.. . .                           ",
"                                b m ) 0.0.5.5.5.~ ~ V 5 5 > . . . . . . . c L L &.&.$.| | ( G G                                 ",
"                                . . b 0.0.9.5.5.5.5. .m W < . . . . . . . 8 S S &.&.,.7.7./ v v                                 ",
"                                . . m 0.0.9.5.5.5.5.X.W W < . . . . . . . 8 S S &.&.,.7.7./ v v                                 ",
"                                - * l d.d.q.5.5.5.5.5.5.5.n : : . . . . . 8 S S S S ..d.d.z - -                                 ",
"                                = = z d.d.q.5.5.5.5.5.5.5.n : : . . . . . 8 S S S S ..d.d.z - -                                 ",
"                                = = h Q Q @.q.q.q.q.9.5.5._ n n . . o & # 9 S S ....] ! ! h - -                                 ",
"                                      = = Q d.d.d.d.w.5.5.5.5.5.. . @ ; : y S S d.d.! - -                                       ",
"                                      = = Q d.d.d.d.w.5.5.5.5.5.. . # : : y S S d.d.! - -                                       ",
"                                          p B B B B [ w.w.w.w.w.@ @ > y y 4 1 1 z W p                                           ",
"                                          . . . . . B d.d.d.d.d.% % 2 S S 1 . . X . .                                           ",
"                                          . . . . . B d.d.d.d.d.% % 2 S S 1 . . X . .                                           ",
"                                                      . . . . . % % % % %                                                       ",
"                                                      . . . . . % % % % %                                                       ",
"                                                      . . . . . % % % % %                                                       ",
"                                                                                                                                ",
"                                                                                                                                ",
"                                                                                                                                ",
"                                                                                                                                ",
"                                                                                                                                ",
"                                                                                                                                ",
"                                                                                                                                ",
"                                                                                                                                ",
"                                                                                                                                ",
"                                                                                                                                ",
"                                                                                                                                ",
"                                                                                                                                ",
"                                                                                                                                "
};
