/* XPM */
static char *smallcandy1671709611[] = {
/* columns rows colors chars-per-pixel */
"64 64 249 2 ",
"   c None",
".  c #333232",
"X  c #343230",
"o  c #353231",
"O  c #353331",
"+  c #343333",
"@  c #353431",
"#  c #353432",
"$  c #353433",
"%  c #373432",
"&  c #363433",
"*  c #363533",
"=  c #373533",
"-  c #363534",
";  c #373534",
":  c #373634",
">  c #383634",
",  c #383635",
"<  c #393735",
"1  c #57322D",
"2  c #4B422C",
"3  c #4D422C",
"4  c #49403B",
"5  c #4B413B",
"6  c #4B423B",
"7  c #454240",
"8  c #474341",
"9  c #4C4744",
"0  c #4D4845",
"q  c #4E4946",
"w  c #594A41",
"e  c #5A4B41",
"r  c #595351",
"t  c #624F44",
"y  c #625146",
"u  c #645B53",
"i  c #635B56",
"p  c #7E604F",
"a  c #7B706A",
"s  c #CE1800",
"d  c #CE1901",
"f  c #CE1A02",
"g  c #CF1A02",
"h  c #CF1D04",
"j  c #D01A02",
"k  c #D42E00",
"l  c #D52F00",
"z  c #D52109",
"x  c #D62209",
"c  c #D6220A",
"v  c #D6230B",
"b  c #D2260D",
"n  c #D0280E",
"m  c #D53200",
"M  c #D73103",
"N  c #DA3D00",
"B  c #C32D19",
"V  c #DC2B13",
"C  c #D4341F",
"Z  c #DB371C",
"A  c #D5381C",
"S  c #E03B0C",
"D  c #D63E22",
"F  c #D43F26",
"G  c #9D6F18",
"H  c #E35009",
"J  c #E66B00",
"K  c #E96F00",
"L  c #E1720A",
"P  c #EE7709",
"I  c #EE740A",
"U  c #D5402B",
"Y  c #D5422D",
"T  c #DE4428",
"R  c #DA4E2F",
"E  c #DB5435",
"W  c #8B7346",
"Q  c #836450",
"!  c #876753",
"~  c #8D6E52",
"^  c #8E6B54",
"/  c #8E6C56",
"(  c #956F56",
")  c #946F57",
"_  c #977057",
"`  c #9C755D",
"'  c #A07850",
"]  c #A4785D",
"[  c #836D60",
"{  c #80746F",
"}  c #947A6C",
"|  c #837773",
" . c #887B76",
".. c #997D70",
"X. c #DD6342",
"o. c #DE6A48",
"O. c #DE6C4A",
"+. c #DE6D4B",
"@. c #DD6A59",
"#. c #DD6B5B",
"$. c #E17E6F",
"%. c #DF9F08",
"&. c #E1A307",
"*. c #F9A200",
"=. c #F8A202",
"-. c #F9A400",
";. c #FDB000",
":. c #FEB200",
">. c #FDB500",
",. c #F9B900",
"<. c #FEBB01",
"1. c #FDBF00",
"2. c #FAB515",
"3. c #E8AF27",
"4. c #F4AA3A",
"5. c #EFBC37",
"6. c #EDB73D",
"7. c #EFBB38",
"8. c #EEBA3A",
"9. c #FEC300",
"0. c #FBC600",
"q. c #FDC400",
"w. c #FEC500",
"e. c #FEC603",
"r. c #FECC00",
"t. c #F9CD0F",
"y. c #FED000",
"u. c #FED100",
"i. c #FED201",
"p. c #FED400",
"a. c #FFD400",
"s. c #FED500",
"d. c #FFD500",
"f. c #FED401",
"g. c #FFD600",
"h. c #FFD601",
"j. c #FED503",
"k. c #FFD503",
"l. c #FFD602",
"z. c #FFD603",
"x. c #FDD404",
"c. c #FDD405",
"v. c #FED404",
"b. c #FCD10B",
"n. c #FBD00E",
"m. c #F9C512",
"M. c #F8CA16",
"N. c #F9CC16",
"B. c #F6C71E",
"V. c #F7C91B",
"C. c #F8CB19",
"Z. c #F6C021",
"A. c #F2C02C",
"S. c #FDD421",
"D. c #96837B",
"F. c #BE8867",
"G. c #DE845F",
"H. c #DE855F",
"J. c #E9B342",
"K. c #EEB94F",
"L. c #E6AB55",
"P. c #E5A957",
"I. c #E6AB57",
"U. c #E5A95B",
"Y. c #C48C68",
"T. c #C58C6A",
"R. c #DE8661",
"E. c #DC8A63",
"W. c #DC8D66",
"Q. c #DE8D67",
"!. c #CE926D",
"~. c #D1946C",
"^. c #D2956E",
"/. c #DD936C",
"(. c #DE946D",
"). c #DE966E",
"_. c #DE966F",
"`. c #DF9E6E",
"'. c #DD8A7C",
"]. c #CE9776",
"[. c #CE9877",
"{. c #DA9A70",
"}. c #DB9A71",
"|. c #DB9A72",
" X c #DD9870",
".X c #DC9A72",
"XX c #DD9B72",
"oX c #DD9B73",
"OX c #DE9C71",
"+X c #DE9C72",
"@X c #DE9C73",
"#X c #DD9D75",
"$X c #DE9C74",
"%X c #DD9C77",
"&X c #DD9E77",
"*X c #E18272",
"=X c #DCBD60",
"-X c #DEA17D",
";X c #E3A561",
":X c #E2A463",
">X c #E1A267",
",X c #ECC353",
"<X c #F8D572",
"1X c #AE8B84",
"2X c #BCA499",
"3X c #C1A88B",
"4X c #C2A88B",
"5X c #DEA380",
"6X c #D9A486",
"7X c #DCA484",
"8X c #DDA584",
"9X c #D2A389",
"0X c #CFA893",
"qX c #DBAB91",
"wX c #DAB19A",
"eX c #DCB19A",
"rX c #DDB39A",
"tX c #DDB29B",
"yX c #E1B280",
"uX c #E5A393",
"iX c #E8A69B",
"pX c #C3AFA5",
"aX c #C2ADA6",
"sX c #CBB0A4",
"dX c #DDB7A4",
"fX c #DBBDB0",
"gX c #E7BBA6",
"hX c #DBC3BA",
"jX c #DCC4BB",
"kX c #E8C2B3",
"lX c #ECC6B9",
"zX c #F1CFB1",
"xX c #EFCDC5",
"cX c #F1CAC3",
"vX c #F1CCC3",
"bX c #F0D1C9",
"nX c #F1D3CB",
"mX c #F1D5CE",
"MX c #F2D6CF",
"NX c #F7E3D2",
"BX c #F4E0DA",
"VX c #F6E4E0",
"CX c #F6E5E0",
"ZX c #FBF3F0",
"AX c #FBF4F2",
"SX c #FCF9F8",
"DX c #FDFAF9",
"FX c #FEFEFD",
"GX c white",
/* pixels */
"                                                                                                                                ",
"                                                                                                                                ",
"                                                                                                                                ",
"                                                                                                                                ",
"                                                                                                                                ",
"                                                                                                                                ",
"                                                                                                                                ",
"                                                                                                                                ",
"                                                                                                                                ",
"                                                                                                                                ",
"                                                                                                                                ",
"                                                                                                                                ",
"                                                                                                                                ",
"                                                                                                                                ",
"                                                                                                                                ",
"                                                                                                                                ",
"                                                                                                                                ",
"                                                                                                                                ",
"                                                                                                                                ",
"                                                                                                                                ",
"                                                                                                                                ",
"                                                            o o $ o                                                             ",
"                                                          $ + o $ o o                                                           ",
"                                                    > $ 1 B I ;.d.q.&.2 $ +                                                     ",
"                                                  6 / ..1X'.4.e.d.m.3.` _ ! 6                                                   ",
"                                                6 y [.gXmXmX<XS.f.V.7.:X>XF.t 6                                                 ",
"                                              $ ^ [.kXBXSXSXNXzXd.v.n.7.I._.!.p .                                               ",
"                                              $ ( -XlXCXFXFXVXcXv.d.v.C.5.U.`.Q +                                               ",
"                                              e ] %XuXvXZXAXcXiXv.d.g.g.N.8.>X_ e                                               ",
"                                            $ Y.^.W.F *XnXnX$.D d.s.g.g.x.B.;X!.Y..                                             ",
"                                          $ $ }.XXE.n Y @.@.F f 9.r.d.g.g.b.A.L.+X.                                             ",
"                                          $ $ }.XXE.n d s s d s ;.9.d.g.g.g.g.6.+Xo                                             ",
"                                          $ - oX}.(.o.D s d d d s J >.f.f.d.d.6.+Xo                                             ",
"                                          < - wX7X_.G.E x d s d d N J 0.f.d.d.,XrX$                                             ",
"                                            < aX9X+X%X+.Z b h d d s m ,.f.v.t.=XpX>                                             ",
"                                              8 ` }.+X(.G.X.C d d s k -.q.M.P.~ 8                                               ",
"                                              < } qX&X%X(.R.R x d d m -.<.2.yX[ $                                               ",
"                                              <  .2X7X8X5X%X+.T d d M -.2.J.2Xa >                                               ",
"                                                q i sXfXdX-X(.Q.d x S -.K.3Xu q                                                 ",
"                                                  q a | D.0XtXtXx H L G W a 0                                                   ",
"                                                    < > r pXjXjXV P %.3 - -                                                     ",
"                                                          > - - - - -                                                           ",
"                                                                                                                                ",
"                                                                                                                                ",
"                                                                                                                                ",
"                                                                                                                                ",
"                                                                                                                                ",
"                                                                                                                                ",
"                                                                                                                                ",
"                                                                                                                                ",
"                                                                                                                                ",
"                                                                                                                                ",
"                                                                                                                                ",
"                                                                                                                                ",
"                                                                                                                                ",
"                                                                                                                                ",
"                                                                                                                                ",
"                                                                                                                                ",
"                                                                                                                                ",
"                                                                                                                                ",
"                                                                                                                                ",
"                                                                                                                                ",
"                                                                                                                                ",
"                                                                                                                                "
};
