/* XPM */
static char *_2_left031671529175[] = {
/* columns rows colors chars-per-pixel */
"64 64 12 1 ",
"  c None",
". c black",
"X c #604020",
"o c #E02828",
"O c #E07838",
"+ c #D8A830",
"@ c #F8C038",
"# c #F0D070",
"$ c #286880",
"% c #909090",
"& c #B0B8F8",
"* c #E8E8F8",
/* pixels */
"                                                                ",
"                                                                ",
"                                                                ",
"                                                                ",
"                                                                ",
"                                                                ",
"                                                                ",
"                                                                ",
"                                                                ",
"                                                                ",
"                                                                ",
"                                                                ",
"                             XXXXXX                             ",
"                             XXXXXX                             ",
"                         XXXX@@@@XX                             ",
"                         XXXX@@@@XX                             ",
"                   XXXXXX@@@@OO..                               ",
"                   XXXXXX@@@@OO..                               ",
"                 XX@@@@@@@@OO..                                 ",
"                 XX@@@@@@@@OO..                                 ",
"               XX@@@@@@@@@@XXOOXX                  oo           ",
"               XX@@@@@@@@@@XXOOXX                  oo           ",
"               XX@@@@@@@@@@@@@@XX              oooooo           ",
"               XX@@@@@@@@@@@@@@XX              oooooo           ",
"             XXOO@@@@@@@@@@@@@@OOXX          oo##oo             ",
"             XXOO@@@@@@@@@@@@@@OOXX          oo##oo             ",
"           XXOO@@OO@@@@@@@@@@@@OO..        oo@@##++             ",
"           XXOO@@OO@@@@@@@@@@@@OO..        oo@@##++             ",
"           XX@@@@OO@@&&@@@@@@OOOO..        oo@@oooooo           ",
"           XX@@@@OO@@&&@@@@@@OOOO..        oo@@oooooo           ",
"           ..@@@@@@$$**OOOOOOOO..            oo++oooo           ",
"           ..@@@@@@$$**OOOOOOOO..            oo++oooo           ",
"           ..OO@@OO..OOOOOOOO....            ooooXX             ",
"           ..OO@@OO..OOOOOOOO....            ooooXX             ",
"             ..XXOOOOOOOOXXOOOOOO..          ..OO..             ",
"             ..XXOOOOOOOOXXOOOOOO..          ..OO..             ",
"                 ......XX++OOOOOOOO..      ..OO..               ",
"                 ......XX++OOOOOOOO..      ..OO..               ",
"                     XX##++XXOOOOOOOO......OOOO..               ",
"                     XX##++XXOOOOOOOO......OOOO..               ",
"                   XX####XX@@@@XX@@OOOOOOOOOO..                 ",
"                   XX####XX@@@@XX@@OOOOOOOOOO..                 ",
"                   XX++XX&&@@@@..@@@@XXOOOO..                   ",
"                   XX++XX&&@@@@..@@@@XXOOOO..                   ",
"                     ..++..&&..@@@@OOXX....                     ",
"                     ..++..&&..@@@@OOXX....                     ",
"                       ..XXXX..OOOOOO..                         ",
"                       ..XXXX..OOOOOO..                         ",
"                         XX..%%OOOO..                           ",
"                         XX..%%OOOO..                           ",
"                           ........                             ",
"                           ........                             ",
"                                                                ",
"                                                                ",
"                                                                ",
"                                                                ",
"                                                                ",
"                                                                ",
"                                                                ",
"                                                                ",
"                                                                ",
"                                                                ",
"                                                                ",
"                                                                "
};
